<mxfile host="app.diagrams.net" agent="Mozilla/5.0 (Windows NT 10.0; Win64; x64; rv:137.0) Gecko/20100101 Firefox/137.0" version="26.2.5">
  <diagram name="Page-1" id="7vbA3OERa7bJsVWCH7UI">
    <mxGraphModel dx="2176" dy="830" grid="1" gridSize="10" guides="1" tooltips="1" connect="1" arrows="1" fold="1" page="1" pageScale="1" pageWidth="850" pageHeight="1100" math="0" shadow="0">
      <root>
        <mxCell id="0" />
        <mxCell id="1" parent="0" />
        <mxCell id="cPlidqTL_9iM7uaxnswC-71" style="edgeStyle=orthogonalEdgeStyle;rounded=0;orthogonalLoop=1;jettySize=auto;html=1;curved=1;" edge="1" parent="1" source="cPlidqTL_9iM7uaxnswC-2" target="cPlidqTL_9iM7uaxnswC-65">
          <mxGeometry relative="1" as="geometry" />
        </mxCell>
        <mxCell id="cPlidqTL_9iM7uaxnswC-72" value="&lt;b&gt;&lt;span style=&quot;color: rgb(255, 0, 0);&quot;&gt;/app1&lt;/span&gt;&lt;/b&gt;" style="edgeLabel;html=1;align=center;verticalAlign=middle;resizable=0;points=[];" vertex="1" connectable="0" parent="cPlidqTL_9iM7uaxnswC-71">
          <mxGeometry x="0.3005" y="6" relative="1" as="geometry">
            <mxPoint x="-6" y="26" as="offset" />
          </mxGeometry>
        </mxCell>
        <mxCell id="cPlidqTL_9iM7uaxnswC-2" value="Application Gateway" style="image;aspect=fixed;html=1;points=[];align=center;fontSize=12;image=img/lib/azure2/networking/Application_Gateways.svg;" vertex="1" parent="1">
          <mxGeometry x="343.5" y="780" width="50" height="50" as="geometry" />
        </mxCell>
        <mxCell id="cPlidqTL_9iM7uaxnswC-22" style="edgeStyle=orthogonalEdgeStyle;rounded=0;orthogonalLoop=1;jettySize=auto;html=1;curved=1;entryX=0.488;entryY=0.024;entryDx=0;entryDy=0;entryPerimeter=0;" edge="1" parent="1" source="cPlidqTL_9iM7uaxnswC-7" target="cPlidqTL_9iM7uaxnswC-117">
          <mxGeometry relative="1" as="geometry">
            <mxPoint x="425" y="200" as="targetPoint" />
          </mxGeometry>
        </mxCell>
        <mxCell id="cPlidqTL_9iM7uaxnswC-23" style="edgeStyle=orthogonalEdgeStyle;rounded=0;orthogonalLoop=1;jettySize=auto;html=1;curved=1;entryX=0.557;entryY=-0.024;entryDx=0;entryDy=0;entryPerimeter=0;" edge="1" parent="1" source="cPlidqTL_9iM7uaxnswC-7" target="cPlidqTL_9iM7uaxnswC-120">
          <mxGeometry relative="1" as="geometry">
            <mxPoint x="650" y="200" as="targetPoint" />
          </mxGeometry>
        </mxCell>
        <mxCell id="cPlidqTL_9iM7uaxnswC-7" value="" style="sketch=0;pointerEvents=1;shadow=0;dashed=0;html=1;strokeColor=none;fillColor=#505050;labelPosition=center;verticalLabelPosition=bottom;verticalAlign=top;outlineConnect=0;align=center;shape=mxgraph.office.users.user;" vertex="1" parent="1">
          <mxGeometry x="401" y="114" width="46" height="50" as="geometry" />
        </mxCell>
        <mxCell id="cPlidqTL_9iM7uaxnswC-8" style="edgeStyle=orthogonalEdgeStyle;rounded=0;orthogonalLoop=1;jettySize=auto;html=1;curved=1;" edge="1" parent="1" source="cPlidqTL_9iM7uaxnswC-7" target="cPlidqTL_9iM7uaxnswC-111">
          <mxGeometry relative="1" as="geometry">
            <mxPoint x="425" y="140" as="sourcePoint" />
            <mxPoint x="206.4000000000001" y="202" as="targetPoint" />
          </mxGeometry>
        </mxCell>
        <mxCell id="cPlidqTL_9iM7uaxnswC-51" style="edgeStyle=orthogonalEdgeStyle;rounded=0;orthogonalLoop=1;jettySize=auto;html=1;" edge="1" parent="1" source="cPlidqTL_9iM7uaxnswC-26" target="cPlidqTL_9iM7uaxnswC-2">
          <mxGeometry relative="1" as="geometry" />
        </mxCell>
        <mxCell id="cPlidqTL_9iM7uaxnswC-68" value="https://docs.mycompany.com" style="edgeLabel;html=1;align=center;verticalAlign=middle;resizable=0;points=[];" vertex="1" connectable="0" parent="cPlidqTL_9iM7uaxnswC-51">
          <mxGeometry x="-0.2196" y="1" relative="1" as="geometry">
            <mxPoint x="-1" y="7" as="offset" />
          </mxGeometry>
        </mxCell>
        <mxCell id="cPlidqTL_9iM7uaxnswC-26" value="" style="sketch=0;pointerEvents=1;shadow=0;dashed=0;html=1;strokeColor=none;fillColor=#505050;labelPosition=center;verticalLabelPosition=bottom;verticalAlign=top;outlineConnect=0;align=center;shape=mxgraph.office.users.user;" vertex="1" parent="1">
          <mxGeometry x="345.5" y="670" width="46" height="50" as="geometry" />
        </mxCell>
        <mxCell id="cPlidqTL_9iM7uaxnswC-45" style="edgeStyle=orthogonalEdgeStyle;rounded=0;orthogonalLoop=1;jettySize=auto;html=1;curved=1;" edge="1" parent="1" source="cPlidqTL_9iM7uaxnswC-2" target="cPlidqTL_9iM7uaxnswC-36">
          <mxGeometry relative="1" as="geometry" />
        </mxCell>
        <mxCell id="cPlidqTL_9iM7uaxnswC-73" value="&lt;b&gt;&lt;span style=&quot;color: rgb(255, 0, 0);&quot;&gt;/&lt;/span&gt;&lt;/b&gt;" style="edgeLabel;html=1;align=center;verticalAlign=middle;resizable=0;points=[];" vertex="1" connectable="0" parent="cPlidqTL_9iM7uaxnswC-45">
          <mxGeometry x="0.667" y="21" relative="1" as="geometry">
            <mxPoint x="-14" y="17" as="offset" />
          </mxGeometry>
        </mxCell>
        <mxCell id="cPlidqTL_9iM7uaxnswC-46" style="edgeStyle=orthogonalEdgeStyle;rounded=0;orthogonalLoop=1;jettySize=auto;html=1;curved=1;" edge="1" parent="1" source="cPlidqTL_9iM7uaxnswC-2" target="cPlidqTL_9iM7uaxnswC-39">
          <mxGeometry relative="1" as="geometry">
            <mxPoint x="373" y="1120" as="sourcePoint" />
          </mxGeometry>
        </mxCell>
        <mxCell id="cPlidqTL_9iM7uaxnswC-49" value="&lt;b&gt;&lt;span style=&quot;color: rgb(255, 0, 0);&quot;&gt;/app2&lt;/span&gt;&lt;/b&gt;" style="edgeLabel;html=1;align=center;verticalAlign=middle;resizable=0;points=[];" vertex="1" connectable="0" parent="cPlidqTL_9iM7uaxnswC-46">
          <mxGeometry x="-0.44" y="-2" relative="1" as="geometry">
            <mxPoint x="30" y="113" as="offset" />
          </mxGeometry>
        </mxCell>
        <mxCell id="cPlidqTL_9iM7uaxnswC-47" style="edgeStyle=orthogonalEdgeStyle;rounded=0;orthogonalLoop=1;jettySize=auto;html=1;curved=1;" edge="1" parent="1" source="cPlidqTL_9iM7uaxnswC-2" target="cPlidqTL_9iM7uaxnswC-42">
          <mxGeometry relative="1" as="geometry" />
        </mxCell>
        <mxCell id="cPlidqTL_9iM7uaxnswC-50" value="&lt;b&gt;&lt;span style=&quot;color: rgb(255, 0, 0);&quot;&gt;/app3&lt;/span&gt;&lt;/b&gt;" style="edgeLabel;html=1;align=center;verticalAlign=middle;resizable=0;points=[];" vertex="1" connectable="0" parent="cPlidqTL_9iM7uaxnswC-47">
          <mxGeometry x="0.4262" y="-28" relative="1" as="geometry">
            <mxPoint x="18" y="86" as="offset" />
          </mxGeometry>
        </mxCell>
        <mxCell id="cPlidqTL_9iM7uaxnswC-58" value="" style="group" vertex="1" connectable="0" parent="1">
          <mxGeometry x="-57" y="980" width="220" height="100" as="geometry" />
        </mxCell>
        <mxCell id="cPlidqTL_9iM7uaxnswC-36" value="App Service" style="image;aspect=fixed;html=1;points=[];align=center;fontSize=12;image=img/lib/azure2/app_services/App_Services.svg;" vertex="1" parent="cPlidqTL_9iM7uaxnswC-58">
          <mxGeometry x="90" y="1" width="40" height="40" as="geometry" />
        </mxCell>
        <mxCell id="cPlidqTL_9iM7uaxnswC-37" value="https://rootinternal.azurewebsites.net" style="text;html=1;align=center;verticalAlign=middle;whiteSpace=wrap;rounded=0;" vertex="1" parent="cPlidqTL_9iM7uaxnswC-58">
          <mxGeometry y="70" width="220" height="30" as="geometry" />
        </mxCell>
        <mxCell id="cPlidqTL_9iM7uaxnswC-59" value="" style="group" vertex="1" connectable="0" parent="1">
          <mxGeometry x="401" y="980" width="205" height="100" as="geometry" />
        </mxCell>
        <mxCell id="cPlidqTL_9iM7uaxnswC-39" value="&lt;div&gt;App Service&lt;/div&gt;" style="image;aspect=fixed;html=1;points=[];align=center;fontSize=12;image=img/lib/azure2/app_services/App_Services.svg;" vertex="1" parent="cPlidqTL_9iM7uaxnswC-59">
          <mxGeometry x="82.5" width="40" height="40" as="geometry" />
        </mxCell>
        <mxCell id="cPlidqTL_9iM7uaxnswC-40" value="https://app2internal.azurewebsites.net" style="text;html=1;align=center;verticalAlign=middle;whiteSpace=wrap;rounded=0;" vertex="1" parent="cPlidqTL_9iM7uaxnswC-59">
          <mxGeometry y="70" width="205" height="30" as="geometry" />
        </mxCell>
        <mxCell id="cPlidqTL_9iM7uaxnswC-60" value="" style="group" vertex="1" connectable="0" parent="1">
          <mxGeometry x="623" y="980" width="210" height="100" as="geometry" />
        </mxCell>
        <mxCell id="cPlidqTL_9iM7uaxnswC-42" value="App Service" style="image;aspect=fixed;html=1;points=[];align=center;fontSize=12;image=img/lib/azure2/app_services/App_Services.svg;" vertex="1" parent="cPlidqTL_9iM7uaxnswC-60">
          <mxGeometry x="85" width="40" height="40" as="geometry" />
        </mxCell>
        <mxCell id="cPlidqTL_9iM7uaxnswC-43" value="https://app3internal.azurewebsites.com" style="text;html=1;align=center;verticalAlign=middle;whiteSpace=wrap;rounded=0;" vertex="1" parent="cPlidqTL_9iM7uaxnswC-60">
          <mxGeometry y="70" width="210" height="30" as="geometry" />
        </mxCell>
        <mxCell id="cPlidqTL_9iM7uaxnswC-95" style="edgeStyle=orthogonalEdgeStyle;rounded=0;orthogonalLoop=1;jettySize=auto;html=1;startArrow=classic;startFill=1;" edge="1" parent="1" source="cPlidqTL_9iM7uaxnswC-74">
          <mxGeometry relative="1" as="geometry">
            <mxPoint x="293" y="750" as="targetPoint" />
          </mxGeometry>
        </mxCell>
        <mxCell id="cPlidqTL_9iM7uaxnswC-96" value="Crawl" style="edgeLabel;html=1;align=center;verticalAlign=middle;resizable=0;points=[];" vertex="1" connectable="0" parent="cPlidqTL_9iM7uaxnswC-95">
          <mxGeometry x="0.1186" y="1" relative="1" as="geometry">
            <mxPoint as="offset" />
          </mxGeometry>
        </mxCell>
        <mxCell id="cPlidqTL_9iM7uaxnswC-74" value="&lt;div&gt;Enterprise Websites on-premises&lt;/div&gt;" style="rounded=1;whiteSpace=wrap;html=1;" vertex="1" parent="1">
          <mxGeometry x="8" y="720" width="120" height="60" as="geometry" />
        </mxCell>
        <mxCell id="cPlidqTL_9iM7uaxnswC-76" value="&lt;b&gt;Microsoft Graph Connector&lt;/b&gt;" style="text;html=1;align=center;verticalAlign=middle;whiteSpace=wrap;rounded=0;" vertex="1" parent="1">
          <mxGeometry x="-15.75" y="690" width="167.5" height="30" as="geometry" />
        </mxCell>
        <mxCell id="cPlidqTL_9iM7uaxnswC-91" style="edgeStyle=orthogonalEdgeStyle;rounded=0;orthogonalLoop=1;jettySize=auto;html=1;entryX=0;entryY=0.5;entryDx=0;entryDy=0;exitX=0.5;exitY=0;exitDx=0;exitDy=0;dashed=1;dashPattern=1 1;" edge="1" parent="1" source="cPlidqTL_9iM7uaxnswC-87" target="cPlidqTL_9iM7uaxnswC-74">
          <mxGeometry relative="1" as="geometry" />
        </mxCell>
        <mxCell id="cPlidqTL_9iM7uaxnswC-87" value="" style="shape=image;verticalLabelPosition=bottom;labelBackgroundColor=default;verticalAlign=top;aspect=fixed;imageAspect=0;image=data:image/png,iVBORw0KGgoAAAANSUhEUgAAAyAAAAMgCAYAAADbcAZoAAAMamlDQ1BJQ0MgUHJvZmlsZQAASImVVwdYU8kWnluSkJDQAqFICb0jvUoJoUUQkCrYCEkgocSYEFTsqKjg2kUUK7oqouhaAFlUxF4Wxd4XCyor62JBUVTehAR03Ve+d75v7vz3zJn/lDtz7x0ANHu5EkkeqgVAvrhAmhAZyhyTls4kdQAcGAMqcAJkLk8mYcXHxwAog/3f5f1NgCj6a84Krn+O/1fR4QtkPACQcRBn8mW8fIibAcA38CTSAgCICr3llAKJAs+BWFcKA4R4tQJnK/EuBc5U4qYBm6QENsRXAFCjcrnSbAA07kM9s5CXDXk0PkPsKuaLxABoOkEcxBNy+RArYnfKz5+kwBUQ20F7CcQwHuCb+R1n9t/4M4f4udzsIazMa0DUwkQySR532v9Zmv8t+XnyQR82sFGF0qgERf6whrdzJ0UrMBXiLnFmbJyi1hD3ivjKugOAUoTyqGSlPWrMk7Fh/QADYlc+NywaYmOII8R5sTEqfWaWKIIDMVwt6FRRAScJYgOIFwlk4Ykqmy3SSQkqX2hdlpTNUunPcaUDfhW+Hspzk1kq/jdCAUfFj2kUCZNSIaZAbFUoSomFWANiF1luYrTKZkSRkB07aCOVJyjit4I4QSCODFXyY4VZ0ogElX1pvmwwX2yLUMSJVeEDBcKkKGV9sFM87kD8MBfsikDMSh7kEcjGxAzmwheEhStzx14IxMmJKp5eSUFognIuTpHkxavscQtBXqRCbwGxp6wwUTUXTymAi1PJj2dJCuKTlHHiRTnckfHKePDlIAawQRhgAjlsmWASyAGi1q76LninHIkAXCAF2UAAnFWawRmpAyNieE0EReBPiARANjQvdGBUAAqh/suQVnl1BlkDo4UDM3LBM4jzQTTIg/fygVniIW8p4CnUiP7hnQsbD8abB5ti/N/rB7XfNCyoiVFp5IMemZqDlsRwYhgxihhBtMeN8CA8AI+B1xDY3HFf3G8wj2/2hGeENsJjwg1CO+HORFGx9IcoR4F2yB+hqkXm97XAbSCnFx6KB0J2yIwzcCPgjHtCPyw8GHr2glq2Km5FVZg/cP8tg++ehsqO7EpGyfrkELLdjzM1HDS8hlgUtf6+PspYM4fqzR4a+dE/+7vq82Ef/aMltgg7iJ3FTmDnsSasHjCx41gDdgk7qsBDq+vpwOoa9JYwEE8u5BH9wx9X5VNRSZlrjWun62flWIFgaoFi47EnSaZJRdnCAiYLfh0ETI6Y5+LEdHd1dwNA8a1Rvr7eMga+IQjjwjdd8TsAAvn9/f1N33QxcK8fWgC3/7NvOttj8DWhD8C5Mp5cWqjU4YoLAb4lNOFOMwSmwBLYwXzcgTcIACEgHIwEcSAJpIEJsMpCuM6lYAqYAeaCElAGloM1YD3YDLaBXWAvOADqQRM4Ac6Ai+AKuAHuwdXTAV6CbvAe9CEIQkJoCB0xRMwQa8QRcUd8kSAkHIlBEpA0JAPJRsSIHJmBzEPKkJXIemQrUo38ghxBTiDnkTbkDvII6UTeIJ9QDKWiuqgJaoMOR31RFhqNJqHj0Wx0MlqEzkeXohVoFboHrUNPoBfRG2g7+hLtwQCmjjEwc8wZ88XYWByWjmVhUmwWVoqVY1VYLdYIn/M1rB3rwj7iRJyOM3FnuIKj8GSch0/GZ+FL8PX4LrwOP4Vfwx/h3fhXAo1gTHAk+BM4hDGEbMIUQgmhnLCDcJhwGu6lDsJ7IpHIINoSfeBeTCPmEKcTlxA3EvcRm4ltxCfEHhKJZEhyJAWS4khcUgGphLSOtId0nHSV1EHqVVNXM1NzV4tQS1cTqxWrlavtVjumdlXtuVofWYtsTfYnx5H55GnkZeTt5EbyZXIHuY+iTbGlBFKSKDmUuZQKSi3lNOU+5a26urqFup/6aHWR+hz1CvX96ufUH6l/pOpQHahs6jiqnLqUupPaTL1DfUuj0WxoIbR0WgFtKa2adpL2kNarQddw0eBo8DVma1Rq1Glc1XilSda01mRpTtAs0izXPKh5WbNLi6xlo8XW4mrN0qrUOqJ1S6tHm67tph2nna+9RHu39nntFzokHRudcB2+znydbTondZ7QMbolnU3n0efRt9NP0zt0ibq2uhzdHN0y3b26rbrdejp6nnopelP1KvWO6rUzMIYNg8PIYyxjHGDcZHzSN9Fn6Qv0F+vX6l/V/2AwzCDEQGBQarDP4IbBJ0OmYbhhruEKw3rDB0a4kYPRaKMpRpuMTht1DdMdFjCMN6x02IFhd41RYwfjBOPpxtuMLxn3mJiaRJpITNaZnDTpMmWYhpjmmK42PWbaaUY3CzITma02O272B1OPyWLmMSuYp5jd5sbmUeZy863mreZ9FrYWyRbFFvssHlhSLH0tsyxXW7ZYdluZWY2ymmFVY3XXmmztay20Xmt91vqDja1Nqs1Cm3qbF7YGthzbItsa2/t2NLtgu8l2VXbX7Yn2vva59hvtrzigDl4OQodKh8uOqKO3o8hxo2ObE8HJz0nsVOV0y5nqzHIudK5xfuTCcIlxKXapd3k13Gp4+vAVw88O/+rq5Zrnut31npuO20i3YrdGtzfuDu4890r36x40jwiP2R4NHq89HT0Fnps8b3vRvUZ5LfRq8fri7eMt9a717vSx8snw2eBzy1fXN953ie85P4JfqN9svya/j/7e/gX+B/z/CnAOyA3YHfBihO0IwYjtI54EWgRyA7cGtgcxgzKCtgS1B5sHc4Orgh+HWIbwQ3aEPGfZs3JYe1ivQl1DpaGHQz+w/dkz2c1hWFhkWGlYa7hOeHL4+vCHERYR2RE1Ed2RXpHTI5ujCFHRUSuibnFMODxONad7pM/ImSNPRVOjE6PXRz+OcYiRxjSOQkeNHLVq1P1Y61hxbH0ciOPErYp7EG8bPzn+19HE0fGjK0c/S3BLmJFwNpGeODFxd+L7pNCkZUn3ku2S5cktKZop41KqUz6khqWuTG0fM3zMzDEX04zSRGkN6aT0lPQd6T1jw8euGdsxzmtcybib423HTx1/foLRhLwJRydqTuROPJhByEjN2J3xmRvHreL2ZHIyN2R289i8tbyX/BD+an6nIFCwUvA8KzBrZdaL7MDsVdmdwmBhubBLxBatF73OicrZnPMhNy53Z25/Xmrevny1/Iz8I2Idca741CTTSVMntUkcJSWS9sn+k9dM7pZGS3fIENl4WUOBLvypvyS3ky+QPyoMKqws7J2SMuXgVO2p4qmXpjlMWzzteVFE0c/T8em86S0zzGfMnfFoJmvm1lnIrMxZLbMtZ8+f3TEncs6uuZS5uXN/K3YtXln8bl7qvMb5JvPnzH+yIHJBTYlGibTk1sKAhZsX4YtEi1oXeyxet/hrKb/0QplrWXnZ5yW8JRd+cvup4qf+pVlLW5d5L9u0nLhcvPzmiuAVu1Zqryxa+WTVqFV1q5mrS1e/WzNxzflyz/LNaylr5WvbK2IqGtZZrVu+7vN64foblaGV+zYYb1i84cNG/sarm0I21W422Vy2+dMW0ZbbWyO31lXZVJVvI24r3PZse8r2sz/7/ly9w2hH2Y4vO8U723cl7DpV7VNdvdt497IatEZe07ln3J4re8P2NtQ6127dx9hXth/sl+//45eMX24eiD7QctD3YO0h60MbDtMPl9YhddPquuuF9e0NaQ1tR0YeaWkMaDz8q8uvO5vMmyqP6h1ddoxybP6x/uNFx3uaJc1dJ7JPPGmZ2HLv5JiT10+NPtV6Ovr0uTMRZ06eZZ09fi7wXNN5//NHLvheqL/ofbHuktelw795/Xa41bu17rLP5YYrflca20a0HbsafPXEtbBrZ65zrl+8EXuj7Wbyzdu3xt1qv82//eJO3p3Xdwvv9t2bc59wv/SB1oPyh8YPq363/31fu3f70Udhjy49Tnx87wnvycunsqefO+Y/oz0rf272vPqF+4umzojOK3+M/aPjpeRlX1fJn9p/bnhl9+rQXyF/Xeoe093xWvq6/82St4Zvd77zfNfSE9/z8H3++74Ppb2Gvbs++n48+yn10/O+KZ9Jnyu+2H9p/Br99X5/fn+/hCvlDvwKYLChWVkAvNkJAC0NADo8t1HGKs+CA4Ioz68DCPwnrDwvDog3ALWwU/zGs5sB2A+bzRzIHQKA4hc+KQSgHh5DTSWyLA93JRcVnoQIvf39b00AIDUC8EXa39+3sb//y3YY7B0Amicrz6AKIcIzw5YQBbphkCIBP4jyfPpdjj/2QBGBJ/ix/xegi49Ih/nUSwAAAIplWElmTU0AKgAAAAgABAEaAAUAAAABAAAAPgEbAAUAAAABAAAARgEoAAMAAAABAAIAAIdpAAQAAAABAAAATgAAAAAAAACQAAAAAQAAAJAAAAABAAOShgAHAAAAEgAAAHigAgAEAAAAAQAAAyCgAwAEAAAAAQAAAyAAAAAAQVNDSUkAAABTY3JlZW5zaG90fIGOagAAAAlwSFlzAAAWJQAAFiUBSVIk8AAAAdZpVFh0WE1MOmNvbS5hZG9iZS54bXAAAAAAADx4OnhtcG1ldGEgeG1sbnM6eD0iYWRvYmU6bnM6bWV0YS8iIHg6eG1wdGs9IlhNUCBDb3JlIDYuMC4wIj4KICAgPHJkZjpSREYgeG1sbnM6cmRmPSJodHRwOi8vd3d3LnczLm9yZy8xOTk5LzAyLzIyLXJkZi1zeW50YXgtbnMjIj4KICAgICAgPHJkZjpEZXNjcmlwdGlvbiByZGY6YWJvdXQ9IiIKICAgICAgICAgICAgeG1sbnM6ZXhpZj0iaHR0cDovL25zLmFkb2JlLmNvbS9leGlmLzEuMC8iPgogICAgICAgICA8ZXhpZjpQaXhlbFlEaW1lbnNpb24+ODAwPC9leGlmOlBpeGVsWURpbWVuc2lvbj4KICAgICAgICAgPGV4aWY6UGl4ZWxYRGltZW5zaW9uPjgwMDwvZXhpZjpQaXhlbFhEaW1lbnNpb24+CiAgICAgICAgIDxleGlmOlVzZXJDb21tZW50PlNjcmVlbnNob3Q8L2V4aWY6VXNlckNvbW1lbnQ+CiAgICAgIDwvcmRmOkRlc2NyaXB0aW9uPgogICA8L3JkZjpSREY+CjwveDp4bXBtZXRhPgoTELo6AAAAHGlET1QAAAACAAAAAAAAAZAAAAAoAAABkAAAAZAAANWHyRypDQAAQABJREFUeAHsvVnYXUd551sylkd5lOV5luXZko3xDHgiGE80GENyGmM6acAkwRMzdOdAyDndwZDQNtCnn3bggvHpHAYn3SfAVQK5SAJXCZCLJJDnPCQk6SeDkz6JJX3fJ513rmGttfeWLS9taf2X8K5VVW+9w69qo7dqae+9bjddCRcIgAAIgAAIgAAIgAAIgAAIjEBgHTYgI1CGCRAAARAAARAAARAAARAAASGADQgWAgiAAAiAAAiAAAiAAAiAwGgEsAEZDTUMgQAIgAAIgAAIgAAIgAAIYAOCNQACIAACIAACIAACIAACIDAaAWxARkMNQyAAAiAAAiAAAiAAAiAAAtiAYA2AAAiAAAiAAAiAAAiAAAiMRgAbkNFQwxAIgAAIgAAIgAAIgAAIgAA2IFgDIAACIAACIAACIAACIAACoxHABmQ01DAEAiAAAiAAAiAAAiAAAiCADQjWAAiAAAiAAAiAAAiAAAiAwGgEsAEZDTUMgQAIgAAIgAAIgAAIgAAIYAOCNQACIAACIAACIAACIAACIDAaAWxARkMNQyAAAiAAAiAAAiAAAiAAAtiAYA2AAAiAAAiAAAiAAAiAAAiMRgAbkNFQwxAIgAAIgAAIgAAIgAAIgAA2IFgDIAACIAACIAACIAACIAACoxHABmQ01DAEAiAAAiAAAiAAAiAAAiCADQjWAAiAAAiAAAiAAAiAAAiAwGgEsAEZDTUMgQAIgAAIgAAIgAAIgAAIYAOCNQACIAACIAACIAACIAACIDAaAWxARkMNQyAAAiAAAiAAAiAAAiAAAtiAYA2AAAiAAAiAAAiAAAiAAAiMRgAbkNFQwxAIgAAIgAAIgAAIgAAIgAA2IFgDIAACIAACIAACIAACIAACoxHABmQ01DAEAiAAAiAAAiAAAiAAAiCADQjWAAiAAAiAAAiAAAiAAAiAwGgEsAEZDTUMgQAIgAAIgAAIgAAIgAAIYAOCNQACIAACIAACIAACIAACIDAaAWxARkMNQyAAAiAAAiAAAiAAAiAAAtiAYA2AAAiAAAiAAAiAAAiAAAiMRgAbkNFQwxAIgAAIgAAIgAAIgAAIgAA2IFgDIAACIAACIAACIAACIAACoxHABmQ01DAEAiAAAiAAAiAAAiAAAiCADQjWAAiAAAiAAAiAAAiAAAiAwGgEsAEZDTUMgQAIgAAIgAAIgAAIgAAIYAOCNQACIAACIAACIAACIAACIDAaAWxARkMNQyAAAiAAAiAAAiAAAiAAAtiAYA2AAAiAAAiAAAiAAAiAAAiMRgAbkNFQwxAIgAAIgAAIgAAIgAAIgAA2IFgDIAACIAACIAACIAACIAACoxHABmQ01DAEAiAAAiAAAiAAAiAAAiCADQjWAAiAAAiAAAiAAAiAAAiAwGgEsAEZDTUMgQAIgAAIgAAIgAAIgAAIYAOCNQACIAACIAACIAACIAACIDAaAWxARkMNQyAAAiAAAiAAAiAAAiAAAtiAYA2AAAiAAAiAAAiAAAiAAAiMRgAbkNFQwxAIgAAIgAAIgAAIgAAIgAA2IFgDIAACIAACIAACIAACIAACoxHABmQ01DAEAiAAAiAAAiAAAiAAAiCADQjWAAiAAAiAAAiAAAiAAAiAwGgEsAEZDTUMgQAIgAAIgAAIgAAIgAAIYAOCNQACIAACIAACIAACIAACIDAaAWxARkMNQyAAAiAAAiAAAiAAAiAAAtiAYA2AAAiAAAiAAAiAAAiAAAiMRgAbkNFQwxAIgAAIgAAIgAAIgAAIgAA2IFgDIAACIAACIAACIAACIAACoxHABmQ01DAEAiAAAiAAAiAAAiAAAiCADQjWAAiAAAiAAAiAAAiAAAiAwGgEsAEZDTUMgQAIgAAIgAAIgAAIgAAIYAOCNQACIAACIAACIAACIAACIDAaAWxARkMNQyAAAiAAAiAAAiAAAiAAAtiAYA2AAAiAAAiAAAiAAAiAAAiMRgAbkNFQwxAIgAAIgAAIgAAIgAAIgAA2IFgDIAACIAACIAACIAACIAACoxHABmQ01DAEAiAAAiAAAiAAAiAAAiCADQjWAAiAAAiAAAiAAAiAAAiAwGgEsAEZDTUMgQAIgAAIgAAIgAAIgAAIYAOCNQACIAACIAACIAACIAACIDAaAWxARkMNQyAAAiAAAiAAAiAAAiAAAtiAYA2AAAiAAAiAAAiAAAiAAAiMRgAbkNFQwxAIgAAIgAAIgAAIgAAIgAA2IFgDIAACIAACIAACIAACIAACoxHABmQ01DAEAiAAAiAAAiAAAiAAAiCADQjWAAiAAAiAAAiAAAiAAAiAwGgEsAEZDTUMgQAIgAAIgAAIgAAIgAAIYAOCNQACIAACIAACIAACIAACIDAaAWxARkMNQyAAAiAAAiAAAiAAAiAAAtiAYA2AAAiAAAiAAAiAAAiAAAiMRgAbkNFQwxAIgAAIgAAIgAAIgAAIgAA2IFgDIAACIAACIAACIAACIAACoxHABmQ01DAEAiAAAiAAAiAAAiAAAiCADQjWAAiAAAiAAAiAAAiAAAiAwGgEsAEZDTUMgQAIgAAIgAAIgAAIgAAIYAOCNQACIAACIAACIAACIAACIDAaAWxARkMNQyAAAiAAAiAAAiAAAiAAAtiAYA2AAAiAAAiAAAiAAAiAAAiMRgAbkNFQwxAIgAAIgAAIgAAIgAAIgAA2IFgDIAACIAACIAACIAACIAACoxHABmQ01DAEAiAAAiAAAiAAAiAAAiCADQjWAAiAAAiAAAiAAAiAAAiAwGgEsAEZDTUMgQAIgAAIgAAIgAAIgAAIYAOCNQACIAACIAACIAACIAACIDAaAWxARkMNQyAAAiAAAiAAAiAAAiAAAtiAYA2AAAiAAAiAAAiAAAiAAAiMRgAbkNFQwxAIgAAIgAAIgAAIgAAIgAA2IFgDIAACIAACIAACIAACIAACoxHABmQ01DAEAiAAAiAAAiAAAiAAAiCADQjWAAiAAAiAAAiAAAiAAAiAwGgEsAEZDTUMgQAIgAAIgAAIgAAIgAAIYAOCNQACIAACIAACIAACIAACIDAaAWxARkMNQyAAAiAAAiAAAiAAAiAAAtiAYA2AAAiAAAiAAAiAAAiAAAiMRgAbkNFQwxAIgAAIgAAIgAAIgAAIgAA2IFgDIAACIAACIAACIAACIAACoxHABmQ01DAEAiAAAiAAAiAAAiAAAiCADQjWAAiAAAiAAAiAAAiAAAiAwGgEsAEZDTUMgQAIgAAIgAAIgAAIgAAIYAOCNQACIAACIAACIAACIAACIDAaAWxARkMNQyAAAiAAAiAAAiAAAiAAAtiAYA2AAAiAAAiAAAiAAAiAAAiMRgAbkNFQwxAIgAAIgAAIgAAIgAAIgAA2IFgDIAACIAACIAACIAACIAACoxHABmQ01DAEAiAAAiAAAiAAAiAAAiCADQjWAAiAAAiAAAiAAAiAAAiAwGgEsAEZDTUMgQAIgAAIgAAIgAAIgAAIYAOCNQACIAACIAACIAACIAACIDAaAWxARkMNQyAAAiAAAiAAAiAAAiAAAtiAYA2AAAiAAAiAAAiAAAiAAAiMRgAbkNFQwxAIgAAIgAAIgAAIgAAIgAA2IFgDIAACIAACIAACIAACIAACoxHABmQ01DAEAiAAAiAAAiAAAiAAAiCADQjWAAiAAAiAAAiAAAiAAAiAwGgEsAEZDTUMgQAIgAAIgAAIgAAIgAAIYAOCNQACIAACIAACIAACIAACIDAaAWxARkMNQyAAAiAAAiAAAiAAAiAAAtiAYA2AAAiAAAiAAAiAAAiAAAiMRgAbkNFQwxAIgAAIgAAIgAAIgAAIgAA2IFgDIAACIAACIAACIAACIAACoxHABmQ01DAEAiAAAiAAAiAAAiAAAiCADQjWAAiAAAiAAAiAAAiAAAiAwGgEsAEZDTUMgQAIgAAIgAAIgAAIgAAIYAOCNQACIAACIAACIAACIAACIDAaAWxARkMNQyAAAiAAAiAAAiAAAiAAAtiAYA2AAAiAAAiAAAiAAAiAAAiMRgAbkNFQwxAIgAAIgAAIgAAIgAAIgAA2IFgDIAACIAACIAACIAACIAACoxHABmQ01DAEAiAAAiAAAiAAAiAAAiCADQjWAAiAAAiAAAiAAAiAAAiAwGgEsAEZDTUMgQAIgAAIgAAIgAAIgAAIYAOCNQACIAACIAACIAACIAACIDAaAWxARkMNQyAAAiAAAiAAAiAAAiAAAtiAYA2AAAiAAAiAAAiAAAiAAAiMRgAbkNFQwxAIgAAIgAAIgAAIgAAIgAA2IFgDIAACIAACIAACIAACIAACoxHABmQ01DAEAiAAAiAAAiAAAiAAAiCADQjWAAiAAAiAQEXgx//zf6X/+bf/XLVFZR3d7ab/uOy9aoGo0c1uGreOSxrH7QtdMsAGLjSgEQoHvL1uKGvuV1XOdbTU4DaoHGguJJrbcsBwvI1U10wIxA3Z8Ygak33VcljVX3b06Cu7aVxZdWkvVa1J7PGCqJwqDPVZVNlLzzymGYQqCIDAviaADci+ngHYBwEj8MY3vjH96Ec/WojHbs7k9uBax3/JL3AtqndRfW5yb+udp29P/XM/xyznxTCmL62t//cvnk5P/6/t6eTzbk6bzro6uvMyovVULqm415ucU1pH9JsqU8TNkpRmxSpg8rvZCP3vIGrdRf8d1Mjtpvo60iByPNLGaStVrc5dcjUNnXUi/UWa7PqovWgNO3HjcuJNaTc63IPKD+nNL1nGhnkAXJ3Fyf1g99VPU+B6XPPc+ENQVC5qd5h7aHDFUjL34Ck+mlyPfyHHI0W2uGnqzXCZiI0bDkn3XnVCuuPqzWIbLyAAAstBABuQ5ZgHeDFxAr/7u7+bbrzxxolTQPjLROCo489Jl7/831MObMkiJXv6BMNSfm6nBk/iVU7rrZxlzxQepZOcJdo4SS4LPbKV4H66RJ/J+eZjF9V5E8L1sp894vouUd/vn9uVshnf+qH2++IluwcFCBLzeMwf86Mv/poP+Ut6WrkOT4u/z786nn7ui+pz/eaQxKV8m7gsPg1bOasfjZxgsXmQXcOQfzyOadPFNwrEqszHxkl3rjP3Xv965HlN7F75/9L/87/fIXrxAgIgsBwEsAFZjnmAFxMncMMNN6Tf+73fmzgFhL9MBF50139Ihx91krikyTPliFSLZLV0VrJI6TF577QRkWVae1Nn/eXFTzbKi3N+2YSQB7oZKXvJJ5e3YfwERK5QU9f9iUoZlw/RcTHQqnU9Z81qJo9VOXfHeossW1tKu/08fWSrj+rrMufWrtf746dx5hgXqsU2Ca3DTb2dH9cTXlb6wox3U6lxeMM8fVlcx4U7ocZuouA41K7HJRHSwGd2rFLf7vTKK45PD959ubuAEgRAYB8TwAZkH08AzIPApz/96fSmN70JIEBgaQicsvnGdN7Vb6Qczk+gveQkrzyJJpc5CaSsT5PqoZNpTQ45wHK8Jo1ZH9c5uaW/mGRTwWkly/Mptj75qJ+A9Mn1+eHJKMfT9wTF/cgn8P3xupyfzLNejWd2/Fnv7Pg5/F6egqXkpHYX4x4TVMxnnx9inTvmyGm/yM2JX7hbQPmfxZVx1H4Ez0684ZbwFr3ip40f8GPHympao8VD055WV55J/+0dN6WTjjvSAkUBAiCwLwlgA7Iv6cM2CBCBE088Mf3t3/4tWIDA0hB4yU99Sn3hJK+4oho31hliemO5IaWe1hH9Lm9yVPWkvjBDWaXWKM3WGyvmfQbEn5TkZLfSqlls0aSblTDX6Q/zFJD46WMl/qIl3DQ5q4fmqJsC4xfNA/o0yVctszi5HVajXpnmMNC1O1Nf4Z/LqV7XEyD0JszFTSFYjZT2LncXrx0elIuJsXFWN7elcZU2HjtX1lTA1F5xxqHpsZ++wQehBAEQ2IcEsAHZh/BhGgTe//73p1/+5V8GCBBYGgKbX3RfOpU+fK4n++WTAEpuKZfUpNDbFzuJt10GxSgKRFEkl5Q1+mc/8pMFTqlz+9BnQPwJCMOTzUfrn5nTfn6Skhu68ZE96ud29lP7m3jzcO4QOSl77Wb/Nexcdzs0TO2EPbdv7eZPyIV/MtAnZIa/e6bP/Yr43b/ww/SpQzPsFnEVmwNSk+OV+eU6qeGLb1TAqnk+uvEPzU9u306bj127d6k9s7u6siN97N+8MF2++USxgRcQAIF9RwAbkH3HHpYnTuCHP/xhOu+88yZOAeEvE4HDNmxKV91VbIgtOYzNAjnryWDltyfjRbKp/a6gki6yTpOKLFTr7bdb+ZONg0h/9RkQU09pZ2OurpPBqr/zGRDrViF6bfzRTYn29sfvI1VRM7xXn+ihYc9JX/hdx9d98tT2Z7tq3/23sgmgjF8kpN8j0PC0xpusTrjcYoq16NdXiLi4+eHVrKaNJ9tl+/zkg5+AsFTtz7p0yoZd6TNvv7UwhlsQAIF9QQAbkH1BHTZBgAi87nWvS1/60pfAAgSWhsDWl70vHXOCbYo5+eOTb8r+/WRck7lcF8ddjsr8JIOT0LauYUp7nKibXFHn5N+fbLAGlu98BoQcOYh3EVT6ZsXlunYtDSU9HM+inwHxTcgsfzkiUyt+DsW/Jyf7qrDhJ3Yyd7fD8ffFW/aLPhXU+SSHq3mU+dU4OB61r9wruWJcjsfkev0QbayQ/iM5+jOkz9eXyLEd1tdZd+K+xMty6icXrDf7wZ/52LG6Wtirx7Gtd9xxTrr9qnPdQZQgAAL7gAA2IPsAOkyCwDe+8Y10++23AwQILA2BE864Ml10w8/V/lByV165Su1lV9zrDctJsulC0W/aTBE3e1Ja2vFhnLby//yJxbzPgPi4nOxWWjVpLZo4ea0uqavn0m7dmuQWIccwF1AtXbt1f9gq4lefQ6ErslLb+XUWJ/eM1S7C3f3oxh89onJRu8PcQ4MrlrLiySKigDxv5qOSczHVIK9u1+PnjcgzO1e1j155PuSywuUOXbcj/Y9feEXI4QYEQGB8AtiAjM8cFkEgXXHFFekP//APQQIElobADa/9L3TqfLCdMHMuyCfRdrJMXkpyKzlieeKs/RyEJov5JLqsW/ZMUpZkVnpLO40+kxv6DIj7xx6xPX5SUtr1fvavCMCqpV0bZ/Zq8TJekuN/D0Zyoi/isfHmh3bncSqW6+JXPHlo2i0JlzjMH7KmcRX+1fH0cy/jn6XP9ZdxqXwTl8VXxqN+NHLlPNjmolefY6yBLzA//fFup80HrwF5IkJ2yycjYt/9JwuvvPw4fC2vkMYLCOwbAtiA7BvusDphAp/85CfTgw8+OGECCH3ZCJx12avSmRffxVlkdq28pXZJUqlXylKOR0jdJUo1rITae+V5oF6cHJZX/K6HNXLOL5sQSiqrz4BYf8ibmqGTbz8Q9ycqmpSSe6yndKHxp/WvG485Ykqa4Z34S7v9PIf0kZP4HZA8WcV8r6ytpZ1rvDp4Ktv1Ks3SI3c0bnWnfi3vicce4Z0oQQAERiSADciIsGEKBHbs2JFOOOGE9M///M+AAQJLQeDg9Ueka+95gnJqStp6Ttg1WbYTZ/K4K0eNsscYPnHWJwIabjnek2+3y3VO7ukvps5nO/SzG/VnOPrkKn/Nr9gEkd5FPwOieup4W39Zr8ZjcgP1/GRhnj6On/4zv+MEX7Dk+fH2jlw7rif+4bjICF+8e7J10Mbr9RzP7PglEAsoNgXFOnN9Pv/BU9wo4w23hLcBsmId/dbHrrR9Vb9yV+2QX7IJqf1rx207fX36CL6WV6YdLyAwNgFsQMYmDnuTJvDoo4+mxx9/fNIMEPxyEbj4JQ+ljaduVac4+Syvph7VuDHhGKY33C3JpSSfJBP9Lm9yVPUk1Hq0MHlOI+WyYt5nQPxJSU52K62axRZNkYx720Bc/XIaYelf127tv5uRJJ8q1mt+dfWVcrM4uaa9xb3PbuGdm8sRRJhxY6FyvRop7V2eLh5EZss5ORPfvpO+clfsmB7p102IKirb6d7Gra2upI+98fK07Vx8La8TQgkCYxHABmQs0rAzeQLf+9730tatluhNngYALAOBYzZdkLbe8q7YBOSTaM6Jh0+g/QTeS1agSWV94lz2a1IrgpSTmhxBqMdpO7MpT7CHPgPiT0BYXjYfvX5wL/fzZ0TMPtW78eV4OWnW/tY/ros6u/F4+uRIn+np8lkg/g7/0j8JQDiqQ0P+FjwX0Jfnv/Ev5sv0Udiz7RY8LNtnborfuFB7qGGkWYBrVM3xqlyul/OzQv/siv/5la4jGarjRX8/l3I+TtmwO33m0VvyQNyBAAiMQgAbkFEwwwgIpHTXXXel3/qt3wIKEFgaAle/8qPpkMOPtRSR3OIksLys6skdVz0ZLMV0nPRIc1bjCirpjh3WX17+1bqUPkqzP9nA74AYJecV2GrOvHmTa7A/z2O1CTD17Tpo56dvvnX2m02F63N/rN6vL4RpfYSg3Hg12u1mjXY0O1boW6+chw+jfl+NdXxdLrvpxwrfRV/Le9uLzikcwC0IgMDzTQAbkOebMPSDABF46qmn0j333AMWILA0BE694CfSudteR7mbJ43lCTO5yUkdn3xT9u8n45rM5boE43Kip//EWU++NXSxx3p77LJ+tutPNtgzlsPvgDCWzH34yYrJGTfbLRJUIkvjO0+eYn61W2ZoSI7ty/SoHtFndnR+ub+cf9HGI+g/avdNQRWH+WvrQeSkn9o7607cFw4sx/b5K3dlzagDYjCenIW97jgdnv09JG1P/+Pf42t5fcZQgsAYBLABGYMybEyewIUXXpj+5E/+ZPIcAGB5CLz4dU9KMidJpbtFSV11NfVcJblSNO71huVUr3VEv2k3RdwsclmxCpg8p638P//WqnmfAXGfcrJbRSNJa9nCSX11Sb0gYt2xWXLhGOYC2tG1W/f7cE3eDaGIhEJXZKW28+ssTj4Z7P4i3N2PbvzRIyoXtTvMPTS4YikrniwiCsjzZj4qORdTDWknfeh8lT58rlVRovfFK8+H9ntjf53N3rXt2PTQ3Ze7IEoQAIHnmQA2IM8zYKgHgY9+9KPp3e9+N0CAwNIQOP/qn0knnXP9zCcbkvzZybQmv5TcSo6YT479yQgHpslieQKe5Sx7JilLMiu9JBd1HR/6rH3oMyA+ji2xffwOSDsP/Tx1PkvuOs4mWOZJ57/RZ5x1GnV+ZdPQWRfFONtc9Oqz5cDzrXpyg8rbepLu7O8qfe5jJ33uw+Ngv0We5eiPPInxktYFdVt/waPsp3FrK9vTf3v7S9OmY/C1vIQDFwg87wSwAXneEcPAlAk8/fTT8rW7u/ykbsowEPtSEDjymNPTFbd9UH3pHAhbA/eWt5zEWVMkfapBX/kIOSQ0l7QObZd+bZHXps7JY3nF73pY4+BnQKw/5E3NvJNvf6KSk1ZSVLrQ+NP6J8ly6XCM1ZtmeAlERpV2+3m68lYf1Sf+OyC8mdi+wpsPJmdXAzyeRFG38g1BvYn5sqqN33baIfS1vNe7MEoQAIHnkQA2IM8jXKgGgQceeCA9+eSTAAECS0PghbT5OOKY0/REuDw5piTMnyiIs5yURX9xwtyRI2nK8jSpNrneuiIQudBr44o6J/f0FxN+B4Q505/YrBTcvX0x7pxty4QU89nlTup9gubI6brgeWK9Op/98y92ZWdHcvRHNwN5nbX10Eeau+tE3Eorq/StV3Sgw+Z9vD3iEP/Vjtur/ZMRNlC5er+Wq2sr6fH7L0+XnbNJWeAVBEDgeSOADcjzhhaKp07gO9/5TrrmmmumjgHxLxGBk86+Lm2hf37lVyS3ucHvtIystKk27fnpgWaxkRx6hzZn3TZeU1hNNnMn3Zk8p5FyWTHvMyD+pCQnu5VWNlQ1zI/fzNM4SXZ9tOgpWsJNT7JD0BR43coifmkZ0Of+svpItktVEY7esBr1yjqiv2t3pr7CP5dTva7HnajtMHe5wi7fVCO1m/RXrS5vdlWJbUKo4t2r9G/sdtBnPxqxzrzqCF49NtIVDNRZn/tz8oZd6TOP4Gt5fQ5QgsDzRQAbkOeLLPROnsCtt96afvu3f3vyHABgeQi8+LX/NZK17glzPplmj7v9lKRRlqZJu50cU9rGdc7eqvamrtkdZ4HSIYpUvh1n+tg+/fGT/qHPgPiTEvZXNh+NXfWXe/E7IMK7eNJU1gUQzWN+Aubza/MT4/J804TTMJPr5W7zZ0m/LJNSTuaX9Yt1vSkmrPSPhsn1LztXbF2YOLWyXH5SZ4LcLvr7/dNlmNcX63d7rOEdrzgrvQJfy8socIHA80YAG5DnDS0UT5nAF7/4xfT6179+yggQ+5IROGfbT6bTLniZeWVZX11oVlf67f2U5EmSRn2erJVinoxy2sdXJJVW9yLGZAGTN0MmgN8BcVItT2t3foHNbqKIGx+gZdHs86il23NxE4xqXe+bb10ftk4acV8XbkU2DV7h0uPxNh9v7VzdTk8+1vhbBmzT46JSNuN186FW6/hMseuXhWmbqkLhoet2pv/+715etOAWBEBgbxPABmRvE4U+ECACZ511VvrRj34EFiCwFAQOOfy4dPXdj/nugXzyk2ErqcVPgCM55KSOT747v8dASaadiEtwLkelP7HQg+y2rihKO5ocZn1c52TUn2ywBpbH74DU8+OcCY/OW8xnXed+5ikTz6XNW8Vd5tfEjH+vHI33cdzvenU+a7vRzfo8yafSx/v6aet5XdKoYt3pV+5y1L5u1byPz/6wNbZDcmFPwhZOmQOPNzkue7jw1/I+jK/llRnECwg8HwSwAXk+qELnpAl86EMfSh/84AcnzQDBLxeBy258ZzrmxAs4O6suTcKKZk5Sy6up5yrJlaJxrzcsJ8mhC0W/KTdF3BxJZGVXK5xG8v/8W6vmfQYkm/Nkt1RK9zkA6eD4q0vq6rkKaG+Xk4+y8VG0dqPDB7hCKaU3v2QZG+b+cnUWJ58Mdn8R7m6oG3/0iMpF7Q5zDw2uWMqKJ4uIAvK8mQ+W46ce21fp185FKvMtZqkzToRNXu7FBt/ZTVPP3ERa9K2tPJN+/e03po1HH26NKEAABPYmAWxA9iZN6Jo8gR//+Mfp9NNPnzwHAFgeAsefujVdfMPbNEkrsjZJAntOfj0p7fZTcis5IieBfhKtJUcr8tFe1zUr5qzPkswBu6439Jnc0GdA/OSaPWL7/KSk9iP7J8mtBsDqVW7AD+3vi5fG8YdNQo/H09qt6xp2wy2ePDTtloR3+ZOc+WsBVH6ofG23lJ+lj6IQHmVcvfqMcxmPcm3tFnXbXPTqM3zdeGw8xcsfOudNiIw3+46/9Fv7aRz9yU9AbJzYyZxlfl2OeLuezEsd23rK+vRRfC2vTA9eQGBvE8AGZG8Thb5JE7j//vvT5z73uUkzQPDLReDaV/2ndPD6I9Wp5uRXckPqyc1xVzRaMmhynqxVUUrSLD3SbDl0HpEbdFhT5+SxvOJ3PayRc37ZhJCnuhkppSkP9/GmhpNQuUJtXfcnKjlpJemQ5fuyovGrQntt+vNYHdd29+lzWv083Vqrj+oT+h2QFfrBQf5vj/nSgJpvzTPr0/Z2/fl8rcnX8m5Ll56Nr+V1gihBYG8RwAZkb5GEnskT+Na3vpVuuummyXMAgOUhcPpFd6azL32VnghzVkxZmSbdfjLsJ8vW3nPCXslTaFKv5Kixo7e1w3XlUo735NtPnrnOgvQXE34HhDj4E6EuJ523xbgzeJkgKvrnW/Xr/MhEzZTjdWT6SK/OZ998m13J9knONwUc14B+9lPXG204SWb7Cv3TK144Yq7g4eHIcin9IXGx4/Zq/0xRj75st1yfTOTkI/lreW82OChAAAT2FgFsQPYWSeiZPIHrr78+/f7v//7kOQDAchA46AXr0/X3fNKc4WSQLiu04klj0czJXnk19ajGjQnHML3hbklq3WD0u7zJUVXkBvRxGimXFfM+A+JPSnKya/a8aOx4shvuNf1hnto1HlMkckVLuGlyWaEOiHo5vuXe1SfJNw3h4bM4uSZ2S7WYwRl2Z+ozDqXdwjs3Z56VRWs3NJBQvrrcrc/scu0Z2nzwPkeuUNvy9X4TsKoT43VQjg/HQ1xvMjeSlqZiHPnw6G1nptvxtbxBFzcgsDcIYAOyNyhCx+QJfOpTn0pvfvObJ88BAJaHwIXXvTVtPO2FcqIsaalkWZRNeXJJ5fBJNIu1/aRFhnMS6CfGWnLWq0mltTd1zYo5qTP77Qm467N2phgn2eTH0GdA/EkJy8vmo7Gr/nIvfgekO595fgVQMd88T7FJKNp93sv5VL0z5t82AaSmXj/UTtPly1FvbML8W69sgLmX/fVxWqpi91eEWa/oH16PKt8fZ16n6uChaUf67+//CVeNEgRAYC8QwAZkL0CEChDYtGlT+ru/+zuAAIGlIHD08ZvTZbe8Jyd3lgR6wemZXHVRZIMWhvdzEkpNXI2kz0Sk4OwyJEo1rqAUpnuRz22cDJYXfgfEaSiXBk/mF9hqzvNO/lna51FLt2dlY7CdH50/XxHqjtaaTUWoDUelpV+fCq/u2pV28uc+ivXky5UsSfus8axFNx8urf5xu7bkwiXm6eN477zsGPpa3m2iBS8gAALPnQA2IM+dITRMnMD73ve+9OEPf3jiFBD+MhG48vb/Mx2+YVN94sxJZWSbfjI8dAJM0Yg89cu3NS0gR/J+Qq4H2W1dCXGyN/Tkhd1ju/5kgzWwPH4HhLGU3JQLz6e0G6eWO/czT5l4LklA5Qt9Mr8mZvx75di+qFM9rlf96vODlfGl9mNTUMVR+GHt/IOD/PkP1st+z9Lf9YetsZ80TkrWL2GHPm0wu6G/h4vYz3K7VnekX3/0Jen4o/C1vDKteAGB50gAG5DnCBDDp03gBz/4QdqyZcu0ISD6pSJwyuYb0+YrXk+plSZf6hwnc3RZoRVPropmS7q8X5K1qDT6Sl1xrzeS9Ik564h+U+bJHVUjiSzsuJ+cRvL//Fur5n0GxMeVyWepthtP45j4JR7pMOuOpN2VxTAXcHFP0hvBkLf2In71uRHwaiE3i5PPIIur96bA9YQ7dYMm+d5JZXTTjf5v5vzEABvX5c4dBU8zVfGUsSq3g558rMnTjxDUmx79lVbjZKOiYH/ksqL11+uZmw11fc24y+hreX/lp68L/bgBARB49gSwAXn27DASBNJrX/va9OUvfxkkQGBpCLz43v9KKV99cixJYJNl6cnynJPf6sSctFDWp8mj69eSg6/b67plsSQlCkRRJKHkV34i0ugz+0OfAfFxnPazPvwOSM3d+cT8VPNZctdxNsEyTzI/7XwbZ51Gpu7z2dot6rIJ8PVStMu8c529S2mVJm8HffCc7crFpS44q6q97JesJpUv4yJ7+QlIv11WqJsl6+e6+KP1vE6lg160fW11JT1+/7Z0yVknUBsuEACB50IAG5DnQg9jJ03g61//errjjjsmzQDBLxeBzS+8L5187kskuRLPmhNcyQXLDs/1PAxP/rgeYy05syZKOXOSyHJ8yTjpyVW9o1dLUqVuL6Udaoqk07rjdz2s7t9udRA5pZsR62jlI564MYm67k9UJOkkCek1ERkwxz+N11RzEWP1phlufLJ8abefp8u2+qh+AP4OCDPgb73iK/OQO2nbY740wEerPlUTExXzZerbCRuq07iTjtiVPvvwTa4QJQiAwLMkgA3IswSHYSBw+eWXpz/6oz8CCBBYCgKHbzgpvfC2D0ky3z4B8bruBcqT5KETYAqJk7A4WZ4lR7KU5WlSbXK9dcUkcqHXxhV1tkt/MeF3QIiDz5sm0VQPTsp5Me6cbcuEFPPZ5R45dzXvfXK6LmR9kF6dz/75F7uyeyA53xRwXBGHjtu+siJPr6i5+sxR9rtPv2k3f9UfkhM7bq/2b1ifycmyz/7xiu2u65QeftkZ6Y6rzuFuXCAAAs+SADYgzxIchk2bwCc+8Yn00EMPTRsCol8qAttueX/acPzZ5JMnX5w8uYt2E3Vt1+SKkza78gAX8B4poztufJyLqSbulqTZNYcBlzc5qnpy7RqkNHmOpKzP+wyIPynJyW6ltQSiaslR9dPkBuLq51SMDDdNn9WDbNRrO9Esdrv6fAJZbhYnt7O3uPfZLbxzc+SVRRBF3Hig7rnVtSh5rvC3Xq3ycy3SZsNVqmgItS1fk+wOpA59H4hE6A1FPlC7qTniE5HZcoelnek33/cy04ECBEDg2RDABuTZUMOYSRPYuXNnOv7449O//Mu/TJoDgl8eApvOeFG64Jq3FCfLdqJLWRUne5JeSXYqDeK4JIHNSbSfTLNAt5+0mL58Mq92OHvTpLK263KWPVd+qHw7zvSxffrj44c+A+JPSthf2Xz0+sG9+B2Q7nwSX5t/AUTrI9dtHqmjHpfnmzqot3++q3Vim5S8/GxeqX2NBHesrMU8u32aRrFrC87cy/5pv20aTLGvJxHm8cX6qfwReYvL/Td7bj+/X6SDXjzOzOWOS49Nj9y9lfpwgQAIPBsC2IA8G2oYM2kCjzzySHriiScmzQDBLxeB6179yXTQQQeHU56MSY4orf0nupYbesFZWeiohlG7JH3UGMlhKSnjXKJU09q1QY0d9re88DsgTkO5NHgy4MBWc+bkW67B/jyPnsy7RR0XA61a133zQY6EuM6+rZNG3OXchs/39tXVtEYfPo/1SgJ5feX15OGoHpV3XeFA0RBPwEKfd5pj4R/fzNfXvi94PvxreY/bcJgrRwkCILAHBLAB2QNYEAWB7373u2nbNvwYFVbC8hA469JXp9MveIUmcXai7U8O+k5+PXmUpC/kOafNJ8wSHWdZ3C+/E1EkiUNy3G7JXGtX68qstOPJpp88c5398ycbrJHl8Tsg9fw4Z8Kj8zbAnfuZp6T1XPbNt8yviRn/Xjka7/OVn0zYuuj1g5XxpfZjU8B6yA/5wUH6p1eyHob8H2j39dT1h63ZOpRS41L5kgO3m5z5o3VrN07ifSVn+jgqar/0pIPxtbwMCRcIPAsC2IA8C2gYMl0Cd955Z/ra1742XQCIfKkIrD9kQ7r67l/JPlFSJCe6RfKlndxOlxVasWSrbJbx3ssd9YBcpfayK+71huUkOXSh6DfdpoibI4kszPowSm/Fjn9r1bzPgPi4nOyWSuk+ByAdnERWl9TVcxXQ3khOXTiG2U0UnqQ3giFv7UX86nMj4NVCbhYnnwwWX4R7eGf6ve78RB/pYjcWsevjutxDQ5jgm12kdfvONXebhrfcTNz9YzV0lXLFLFGHCahYvLK8XNHdX8/cbKjra8a1crt2raXH77ssXYyv5Q3muAGBRQlgA7IoKchNnsBXv/rV9JrXvGbyHABgeQhcfMND6biTLxGHJEm2k1s/Ie87+Y2cjLKp8slDOZ4VlnVNQikZpRtNxv3kW8uQp8RSx9VylsWSmCgQRaqntdPos3iGPgPi/nP6yvrwOyA1d+cT8xPro+Wu9blPNoyzTiNT9/ls7RZ1WXD1unhm5wqPnLmeaEJdgN1v1h3XZTVJOyuK9UT2ZP17Keu8Hi/6yn7Xb3pEczZAve5/YUf07k4nH7k7feahG1klLhAAgT0ggA3IHsCC6LQJXHDBBelP//RPpw0B0S8NgWNPvChd8uJH1J84qaUq3S968suyfMVwTrr8Km852TI5KUs5lpe6S1hV9LASau+VFwGVavrxOyDORich46H6fv47IDvX1tLqGq8VumyNyZMNDo2a8vrK68nlfEDmIVqo2RR5lQb4aNVnHa6oFpfNi0tI2egL/TZO31+k2eQeuuX0dOfV51QqUAEBEJhNABuQ2XzQCwJC4CMf+Uh6z3veAxogsDQErrrjsXTIYUdHEiTJUJwE+4ktd9uJMCdLkjPlup+Qa5JG7XECTGGKvJ/4emn6KjmS7eit7ZK452rqT/hZ62M/WJD+YsLvgBTz1s6PP+FajDtnzTYBM7jzdMtVzXt3fng9zX1SIubMrm0rOGnnz33skK/cdX9MP/kn65Sbi88cZb975NgNcrj2h+r0Z+gJyLC+4fVdvn98Hbtdf78cyl/L+95bDSAKEACBRQhgA7IIJchMmsDTTz+dNm7cKMnZpEEg+KUhcNr5L09nX3oPZ1+1T1KnZEqSsLLb5DrinKxx0mZXrz7vLPR15FxGNXG36jXNYaC2w82ezLkGKU2eIynr8z4DIl/FSwO68aualpcml7PiN/MUUJdT0RJumpzVQ3PUaz+iWXh29bm/LDeLk9vZW9z77BbeuTnyyiKIIm48UPec/KfPffBX7nIW34zzumCwkVJ4Q6ht+Zqwy8VYHqDvA9XjHaHIGrSeuVGzNC0gxxoKu6+45Jj0KL6W17iiAIH5BLABmc8IEhMn8Ja3vCX92q/92sQpIPylIUBJz/Wv/r8o96FkzE602bey7ifkemLLyRQlfZJlWdmRr8d39ZXDOQn0E2MtVX3RLmZynfs1Wct+RPLPcbi+Mh7KBL196DMg/qSE/ZXNR2NX4+de/A5IvT66883zk9eTz28t5/NRzqfqNbmYx6Jumw3+p1cr9q1XsjkQe4VcYV+XC63bYgK7/suqlnXPcr6edLZJb7F+VE1eT+y/yudxpf78fiFt5Ff2d0ieJNZ2pl9/+MXp2A2HugsoQQAEZhDABmQGHHSBwLe//e107bXXAgQILA2BLS/6t+nEM68yf9qTWm32ZExyJ2lq5eq61SzZKkJ1MU4OqZmrkRwWYp6kqUSpxhWUwqwoLEoH+1te+B0Qp6FcGjyZX2CzmyjixhTVda75PGrp9lzc5KNa1/vmW9eHrZNGfJW+HWAnPf2wvQhpNQEveteXahQXQh/f6CbAXNOiARRPwEQ642rtan2+vu56NeuN3UtPXp9+5d/g74tqblABgQEC2IAMgEEzCDCBW265Jf3O7/wOYIDAUhDYcOyZadst77eDYU3GPDkqT3D9pLrv5NeTx1qek7TyBJzC5eSKT5aLf5MfSaudOAsUl+Pxlhy2drWuCEs7rT6us11/ssEaWR6/A1LPj3MmPDpvA9y5X+ZRBXU+ZZ4KfTK/Jmb8yycKffNlC5CkdX5mzTe78MyOVTIg5sVfHid+zfN/jn4NLxSz92TG1qGUZsbsDNu1OHg88ynWt9QrP0RLR47j2bW2mp6gr+W96MyN4gteQAAEhglgAzLMBj0TJ/CFL3wh3XfffROngPCXicAVL/tAOvyoUyR3E78o6akuqVMyVSRf2m9yHXFO1jhps6tXn3dqMqc1GhGDqCXu9YbVqF7riP7aDjdHEmldUpg8R8L/w++AzObkE7Aod0fNyXV1RVW5c3XW/Lhdn/++dbdjRX/tXOyU+rnB6t1xIk39IWDDbb1S88x168OzgWgxRVU9c/Pm2q47Oihnw9jfkw7fRV/L+1JvQQkCIDBAABuQATBoBoEzzzwz/cVf/AVAgMBSEDjp7BvS5ivuoxzHk7Cek1o7ufUTcj+ZlnStyZ7Kk15PMjsnv6FPc0HXl/XryTED6p4Us5/WrwZIim7ED21v7Ya86zP7Q58BcX/ZEtvH74C089DMTzWfef34PMx9slHMp8+3zmdrV+srq/S5jzX+2UHrN/u8DnT9teOyv75OpPTx1TjbhLTriTYdso68pP523ZI66jU57nf9hX8el9p3f63syNfxPXjzafhaXoaMCwRmEMAGZAYcdE2XwC/+4i8m/g8XCCwLgetf/V8oZfKky71qT2qpnZo4uZLLCmnkhoF6bo67QpZuPUkjFZ6siX5/4SRQe6RFqnqn7blBWj2p1Irq93su8TsgTkPnI+Oj+n7yOyC7aDf4DH/ug9bFvPUomwEOTaR9PchKUxCKge71JvPQ7s56IjkfrevV5Gy8F9HaKhyqmx8aD2nuldudDl23mn7z3Te7epQgAAI9BLAB6YGCpmkT+Ku/+qt02mmnTRsCol8qAuds/cl06uabKanyk9giSfMkiMs44a7lfBxnZX5yrSfQwye6kly1+ohKOU4gcVLW0dva4boiLcdrckjJYtgRA/M/AyJilAbSOP/AOuvtPgFRP8xB4cNf5ctPVPr86DwBGJBzf1mv6umLl5Ng7c96++1mfWyQ/mt5dvxwvbPtEh7xr4xf/O3oYzlq5ItvivlYiFPrL9V30NOPNXr6ofZqTtmfHv+LzxzNlGM3xV311wOQzQxzpz/Ov8uhtWv+mb5yPrr+Z7ulXM1td7r94mPSI/haXl5RuECglwA2IL1Y0DhlAm94wxvS5z//+SkjQOxLRODQIzamK2/7P8QjTaqaZLH0VbJIT74KOT/y9STTxkQy6joiCw0B75EyuuPG5VxMDXC3JIcDdnOymJM516CGtMaRlHX8Dkg7gYqHZlox7SXuffOj82n2wg27iUJv+J9d7aQNSHd91f769Jb+u0QExDeFft10VFLlQrcOHqDvA2mw8YWiQk6HR3wiGwaH5bin8z4IQ/K1vP/3wzekY47E1/IaRBQgUBHABqTCgcrUCXzzm99MN99889QxIP4lInDZje9MRx2/WZO5gZNpdleSvei3E13Kqrhd0nzZFUiDRFfL1+O7+jTX8pPkOFnmJM92G6LP6q2c7kZqP1Te7MY408fx0B+3M/QZEH8Cwv7id0D4SdIMnjRPfmIvyXZRZ340kdEvyTvXpTm3+3yU86nrKNvlp1Dbd64269H6bX2G/gF/3a4FZO6Vfoi74R/L+XoSYfa7WD8tFx5Yrdcmzvx+kQ568fdTtqNxF+u14Of+X3ziC9Kv4mt5iR8uEOgSwAakywQtEyZw3XXXpT/4gz+YMAGEvkwEjj9lW7rwmrd2k6s4aLWbqKv3noxRTmRXK1fXs1jcmaJGH1U9uTLFLuA9Uh+2a6OygMnXdv2fVVF6J/2yuaC7g6iumxHXo6XLmTgVpi/U1nX/Vq0uJ9cbA6WB5fzqj997Va4Q146mIexS73PSF27ZTRRxY47Vda65XS1NzIsef71LSumXkVHV2rr0DG0+dnHGT5fGybNT2+ftgQpYQfpcm5SNfhfXcTnp19H02vpLA2p9LlnbXVRfR7+padvdT938EOPdu9LHX39puuCM490BlCAAAkYAGxAsBRAwAvxr5/yr57hAYFkIXHPnr6aDDzkiTqb9BNpPdCWNtORLkr04CdYkzeV8nGWdFJ73W0kt5XiJn/WyvuLf5Hty6CfplRzJu53WrtZFurLT6uM6J3X+ZIM1sl98qq6f3ditJdd5F0Glb1ZcTuKI+DQuEbR4Fv0MCPuh7pAXzIHq7J+UVtd+wWT9JkeCpR/MkRoW0GdyzXiqVnadMztU2lEzeR7MYRrtenvikPkN9/RmIF73I8dTx+tfuetyNbfMKfszx3/yW3n3yYkW6c/+kJxsPmiclBGOygWHVl8Pl3K+Kj+yXY/PJlYCbOfjpCN2p888+BIRwQsIgEAmgA1IZoG7iRM44YQT0t///d9PnALCXxYCZ1x4VzrjwjvVHTtxLZMq6bAkKXyWep18NQpClG80WeKkza5efd6pyZzWaEQMopa41xtWI0mod0R/bYebPVm1Hi1MniPh//kTi3mfAcnmfLNQaS0DkA6Ov7qMXwRk3V1OPsoFtN6Zn+yQDzBBHSev+SXLmFqaIGnj11mc3N9FubuhbvzRIyoXtcthrq3tlg+euwYunz030+LzoxjITJ5XXV+NnFW9YHm5rHBO3uz1zM1GNnbnyoXBMKRmrfq2m05Ld119jkuhBAEQIALYgGAZgAAReO9735see+wxsACBpSDwgoMPS9fc/TE5UY0klJIiP3H1ZNTr7LQke3FybSe6JKhJptz4rkBirOXr8V193O/u5BP2jv3qpDjLWfZMat2P/hPnONlv4hn6DIjbZ0scT/dbsLTdAvYArDqPp4vnOOQJA/97MH3UUMRj/GbEL7yjn/yKJw+l/uzvvPkpJkT8UPnWj8X0+Xoq4+rVZ/5TIbx5vtgPnocd9JW7/NW74hd5NNt/9Usx9scveoJztpf9ktUkdthvaWe7skmhupfiXz2exOr+xl/RLAteOujF/S3sWNxsl69Z8R6ybiX95rtuEjm8gAAIKAFsQLASJk/gBz/4QdqyZcvkOQDA8hC48JqfTcefsjUcysmVJ13epckPZVP5ovtFT359XAy3ZEqURaMnb6zX7RedLCzjJI3VodFtI0q9IS+iJh8DpI7fAXE2yiXjo/oS/g4If+PVKn3zla4D951KWxfz1qNsFjg0GiKrqFlPvk5Vomumtaubj1Kf+6Q8sz5t902ES7X6oh7DzdM8Ma6ISt/8qJ/6rliXbrvoqPQovpY3EOMGBLABwRqYPIF77703feUrX5k8BwBYDgJHbzwvXfrit0eWVZ+s+kksdzdJENfjJLiWiycLckDdPXH2pM+fKAiJPn3UUfqjcvTa0WtycXIc4VTjW7tc52SP/mLqfLaj+gyIiPXLiX+V3YIT6V30MyCqp4639VeSTfKX1Gpcjd3MXQQ4upnxqwC9tvo643R+O3LtOKubQipsXXT0CXYxz/xny2m/yJEDa/TUYzs9/ZD1OKi/Xo/Znx5uxWeOZsqxGxaHTYD4r5sPskd/nL/Pz7C+fi6ssLuest2575diPtKu1fSlh65PRx1xiPiJFxCYOgFsQKa+AiYe/9e+9rV055327+wnzgLhLweBK3/il9KhR55QO8M5NF2aVDXJonbpKyePlHZ15KhFLiu04skV67VLxnuFyqYe1bjxcT5GNXG3JIeuOQy4vMlRNZJIV8GlyXMkclkx7zMg/K+j+J9rdeNXNd14OEkNc514wzwF1JUrWsJNk7N6aI567Uc0C8+uPveX5aR3JO59dgvvIixO7Plbr+Jq/ItNnAvkgLWlqTfD83yY3KLzqg7q+0AMNXZ8Xj0QthvxiWwYNM+1XslxT+twU89VHX/xSevTr77xatOJAgSmTQAbkGnP/+Sj37ZtW/rud787eQ4AsBwETj735nTu1tdRNkTpkGQv/SezkixRf3kCK8lenEDbOFHDyY/pC72sPo+fr0/d0eGcZLtfWqr6ot3suhz3ezxShp/mh+uzdp4NTTZV/9BnQPxJCcvL5qOxW4Rr354lAiw+J/6an8dR6qvjaeOo610+zq+WG57P2l8LoLtOOvHb/MyNVwSK9dT4F/Nl+mw++fc+/Ct3fV6VS+2viuf1xutR119//C6f3wd9+mRVix6W882OsOFw6E89b7nemY+GT36/KJfsb7ZTvn/YZll3//N8Ugu/33bx1/Jeks4/HV/Ly8xwTZsANiDTnv9JR//xj388Pfzww5NmgOCXi8D1/+o/q0Oy+ci+dZIrO6DlNEuuqPtwTrYk59GGjlw9LoY3dmMYJ0+sj/7z5MoUayHjXGKWXRvV2OH4ysu/WpfSPWn2Jxv4HZCGX2CzmyjixgdoWTT7PGppYl4089HODyfTK/S5D/7F86yYNPWMk01ALKQwkIfRna9vds/9srtKzldgnz8q6OLtevXeAoA0qcV5+rpxmb4m3hxmfv9JPLkjbTp8V/rs2/C1vD4jKKdLABuQ6c79pCNfWVlJxx57bHrmmWcmzQHBLw+B8654Q9p05nWajNmJLnsnyVmc8NYnx5KkWRI0S85PgvOuxPUMn+hK0sV2i3+T78lhPtkVB8kN1+N6Paks68q69rONT/X5kw1O41gevwPSclIuPJ/C0zjRNFT1cr5jPolnNY8yvzxO52dQrhi3i07y+XMfbi/WYayD1l/V35Wv/fX+WK8DcamcbVHYcW/g5UN/fNOjcXq3bjY0vtaurVNZfjSe9DFXvrp8s91SruZm+gbm4+dvPCXdja/lFb54mS4BbECmO/eTjpyffPATEFwgsAwEjjjqlLTtll/wc1LOemq3rNr5N/AdOU2yOnKuuVVL4yVJc2u9+ryzdIsUlbriXm9Yjeq1jug3XXRnTHYAAEAASURBVGaHmzVJbASsSmmc2MHvgMzm5JOxKHefUU+yvZ7nVLnzNPTND28+1mgT0h1vE2cKNXl376gxuu0mCt8UhSd64+uxR27munX7bnDArjuUufnAMOgNUg7KmVT7vnX33Y67c+i61fQb77zRR6EEgUkSwAZkktM+7aC/973vpa1b81ecTpsGol8GAltvfG/acOyZOdnjE13+d0flyS5lM37i6kmh1zkGSfbs5NZPkHU4J1M0osmeavl6fFefDRc1nCz6Ce+sk+IsZ4EVftj4Ab9b+0OfAfH42RLHg98BsXkcmp9YH/V8+3rK683nt9FHelfpBwf5a3fL9cPzpevL1plUZ63XAf3m36C+iMvMmR32W/zhOv3JT0D67bD+kOP3lenx9VS/X/T9U8bblWd/huP194sZImu708svPDq9/e7L2BVcIDBJAtiATHLapx30HXfckb7+9a9PGwKiXxoCm06/Km258qdrf3izUFw5uZLUSHI97Ta5UpzuObmSK9pn17NY3LGSuLr2i06WEn8lLZMx2X2Wy0mpdPJLFpAm1l9e+B0Qp6FcMh6q78PfAZGv3KUPnlfzVU5ddlQDkDptAnwxhazdREHJO91z1ZN7uzM9QzysvbGrm4tSXz3e3YnWZny7PqNe+Du8rjVejcOjiIHuMH1dG38t77Vpw+H4Wl6fB5TTIoANyLTme/LR8u998O9+4AKBZSFw3d30TwHX0cerKQmK5EsfXYiL0h4nvPWJbpUEcRI1IFeewKod12MlWSrtmOGuvl45apQ9Bvvvek1fVRetlR2P10+euc7JHv3FhN8BkfXQPz/OeTHultZX66Oeb50HnR/mn9dRLffMjlU2Sf+V8yzTL/M6NK6WL/3pWSfFZ45sYVnRrq/arvjNy4f+iD0vmSM5zet7WF8/ZyZSv1+4nu36umU57XA9JZ/st8AzP1jvRZsOxtfyCjy8TJEANiBTnPUJx3z++eenP/uzP5swAYS+TATOuuSedOrmWy3JoRzGnZMkxStUWkec7LpgR447KPmR5EtzItUSCgql3M/JUagvB9gwN9RUO3Zdrcpzt+rttyvJmtkVuQF9HIlcVuB3QAxEjdtI6vTtDe5987OTPvexSp/7cP06b+6Ilc08dteXy9fz6iuwGZ7XY4jbem0wuL+uXfXp+0DaQj4UucPaTc0aF1VFZAE5Htk63NRztV8f2/r4/3ZR2nLaceIHXkBgSgSwAZnSbE881sceeyy9973vnTgFhL8sBA459Oh05W3/kXIYPqG1E1Nyjut2ZEu1ur2V8zrHVOuxcZRViT5Oryq9rXxd7+orh+cTXT/ZVvVFu9kt+8V+4Yf46357nMZB7MsmSuMY+gyIPylhef7ITPczIOq39vNnRIwDNdS86npwb+Iohpti52rjI4663uXTzGuM03b2d7Z/ItBdJx1/90xfXk+1f6v0dbv8uQ+Nv5znrH/P1pfpH/CXmiX+/D7o48GzlOV8PVGTXPEkRN5fNt44d+aDRpS8RbO8X6SDXtzfmkvmVY93v3K/BBr8Sn2bjkjpsz9/g/iMFxCYEgFsQKY02xOO9R//8R/TccfhlGnCS2DpQr/4+ofSMSdcIH5x8lNdTb2TXIW43URdtbh8VtPK1fUYngeYokYfVT250h57lXHSIw1ZTW0nxmQBkw8PpI7fAXFSyqXBxdmuCgS2us7Jt1yD/XkedT7dnpWu36r6g4NZJtZrpV+T7CxVJP3z/CF7vnrUH1bsLXTb2An7bqzxN54AupZq/J7rC95mL8zFjXdoGfbJrkZhDgz48XMvPTW98uqzTQkKEJgGAWxApjHPk4/yzW9+c/rUpz41eQ4AsBwEjjvx4nTRtT8fybyflHry5XX2VjYT9mTAnyj4SbSkN5YEzZLzcWaQtM4/0ZWki+0W/ya/z7+QIz/cjvtX15V97WcbnwQ8/zMg5MhB/N28VPpmhfX2PwHhrI8EmRM5xv+Mi5+o9PmRT9xNfkCunh9Rq/qCq+m3etbbbzfrcz/r8dTa+Kvzp2ENc+d+iVsFxVGJu9Qn82ti1C7yPO8yn4mefOxKq/6tVz7O4vJ5Lvn6uC7fzCnLW1yNPl83LKd6+uREi/RXfP3JmZQRjsoFh1Zfjrf0W3G0fLPdPG8tt36/2Tw5Qi91/yHrVtJvvOOlbA4XCEyGADYgk5nq6Qb67W9/O1177bXTBYDIl47Ai2775bT+0KMoRSqSG/IyH5DGnfpu1fJkVTokmSnC8+SmSL4aBYWwJ2Gz7NZ+ZHPUXnbFvd6wnORaLhT9Zt4UcbMn17VjWqM0Tezgd0Bmc/LJWJS7s+Zku7qiqtzX6J9e7aDNh+vP05nXbT0+FEizJPN5dKiJGxPvrGtX6v71yOn6MkGX83HenB2OFrkJN/Umc3OxMOgNOoyaZ9pt/MjV+fp+4oKj8LW8RhvFNAhgAzKNeZ50lDfffHP65je/OWkGCH55CJy25bZ05oWv1JPdOAmtT2DlRJc/1KBHzOJ8eTLrSXt5Alv31yeskjY1WVYtTykh9Q/r4353JyefHfmIx/RZXbM2TsLIc1Mk9qiltJtPvuv2oc+AuH32iPV0n4BouwH0ABbk6eJlvORXNS8ej/lrfviTgYhHxEo95Fc8eWjamQ9dNZe6bgLuIFXr+Xa7zmeePl9Peb2JhvTMjhU2vJB+kVt4vc73t1dfFSdHrVzY71hPtOlQ70uuxs/GCw+Xo/hcT+YlE+YGivgLOzzO7Iq+ot7q8/kwQ/36dq+lLz14bTrysPWsDhcIHPAEsAE54Kd42gF+/vOfT294wxumDQHRLw2BdQe9IF175xOUDdUucfJUXU09J1dFTiQDbFw5nO75RLnsDoMhV/fn5riLIayna7+QUwF6lbSLa5I7yo34YcmcNlhzPb6NH78D4rCUU14OVB/pd0B27NRfOxdPsgNWLeavuC0mvphnStrnrEd5AsKh0ShP3sv15MNVolxfaqa1G09UQp/JuaLSZ+pq11+rL+o2TuMZWtcar8bhUcRAd1hLbxa+u9OFm9anj91/lTuLEgQOaALYgBzQ04vgzjjjjPSXf/mXAAECS0Hg/Ct/Jm087UrJSjjn8GTLT1K9nk+iNTnK/XYCK7kPZy9yo7GJQj+hreXKE1jdTHi/y9d2RGGfPuqQ8cXJr2eNtV6TI/9UnuvuZj459nhzfGJg/mdAzA/6C+x5+wyIxlPH2/rL/HN8M07cyU8HoPKzuFNwIl7os3gzJx3fkWvHWT3Wic0bNZvfpR/UyBdN1Ar9s6sV+uyH16snDNTv68nDcn0dubBXc8r+mB8lR3kyZPFpgF0eEpc0SxzV+4UWpPjnJfvb4dDaLTmwvNtv5QQPe1Xx63Kq43VeNpDE+/vZ7if+9UXpvFPxhSnCFC8HNAFsQA7o6Z12cB/84AfThz70oWlDQPRLQ2DDsWeny17yLvXHknF3LpLd3OB3lXyc7Pp4z+pdWuqU3EjypclSo8AlpZxv1w2ZFq927LpaFeBuSdLIDzXk/VbaeO71ZK6SsGEciVxW4HdADITDiqre7A3u/FXF2+npR3X5fJEZn1edt0qqXHDS0V1fLm+O9/jvEqZAqyHOm4uOmb4GktL3gepRNSSoNz12NS7qlr4F5FiTcVGl3Xru7tdXuqNxrUsnHLYLX8sbQHFzIBPABuRAnt0Jx/bXf/3X6dRTT50wAYS+bAQuv/kX0mEbTrITW85d7KSWSztx9SQkn+jaSSkFI/KNnI/jWOt+G0cKuV3SRi5pPDWweCNf1/v7fXjhNyd5otfGW13NZLmcNZr9No4YZ/rYP/rjJ8dDnwHxJyDsL380o/sZEPaLe7kfvwPi68XXmdcFEPHhOn/ofG2N5qH5rIuur3ae83wJ6IXXl45r14n74/7NXq+yqm39mT4JRF/K9dPa4fUo8fi6oyEan8fj61Q66MX9zXZq+Xq8++/xiKfCV+Xm6XvrS05J/wpfy6sTidcDlgA2IAfs1E47sPvuuy994QtfmDYERL80BE4668Xp3K0/Rf5wNmzJTeEdJzPV1dQ1WcoSudvGdYZz8s7Jjo9p5ep6Fos7HehipEj0UasnV65ZSjHkErPs2qjsmA2v7fpX61K6J/2yuaC7g6iumxHXo6XLmTgV7rjJNXX/Vi3n2rhTBiAKyvnpj7+2s4g+p/Wc9AW2Ot558bO029VS/ed/dsU/OFjGawA8QKvW9mata//nUDrQ1dTjYx6o2/2yOx1g4m5nrn8036In9PXbXVRf8UYSRTG/cWP6I6z8/lM/oqMVNH0RoNQPXbeannr7S0wWBQgcmASwATkw53XSUfE3XvE3X+ECgWUhcO1dn7CkjtIRTlroSDaSLqr7SaknX15n/0Uu5G2cqOGkxfTNkfMnCZbdybhab22HBLKfxb/J7/Ovjqf2z+3qCbRobeKp7bJ+1udPNjiNYz/5yYb+fof9jgfX8TsgNv1MqZ97Od/1PBXcZX55Se5Oz+xcreZHZqxvvTb2Yh3GOi308/rWabUHGsW6pQ59Hwz439ip4xSrMt4Uq7uy+SB9vgnRt5vKsScST2vX7Iuf+f3ICrv+Zbvl+1T1up6BeBzEYFw+PiX+Wt533HWpxIQXEDgQCWADciDO6sRj4t/84N/+wAUCy0DgnMt+Kp189ovNFU6+6IqiSB5zsyZJImgvlXzRzclUeUmdkpgi+dLuUFBKW3IV7hSKTazRn6ukrzQd93rDcpJruVD013q5WXOyRsCqHAn/z59YzPsMSDaXk94m4Kba2uW6ei6C1q1JaBFyDHMBVbsod0lWaYiMzi+qhF9dvwHn6ixOPmBR7m6I4/KLNx+8UZTLm710h6yucWqy7ON1XAywqs2DC0V3KFI50q/xuaCV7l+IZ7lilij8UFwpYD/liu7+eubWb7fLt5GzautHdmsP7bI++lreLz94TTriUHwtr+NFeWARwAbkwJrPyUfz5JNPpgceeGDyHABgOQgcdsSmdMWtH4iTXz/B5WyrPlnNJ5+SFHImWP0bfJMfOGHmaEVf9Js+syPpa5Nl1fL1+K4+7ictA36HPAWmek2f1XN2KQpEkcgN+B36LJ6hz4D4CTSnpayv+xkQbWd9RQBWpVHBqy/+vnhJrpoXj6eOt+XE8Wu8zodKe/LQabesVdpn+FfH43p77Cygj//Z1Sp97sPXJ7mr/pp9Xj/qz7D+2p96/F7TV/nBXqkdXpjKkeqymaG6lxR/Zz54XNnfE6/GIx304vEXdkSv1knA+PT3O1dzeCF9bP/CE16Ar+VluLgOSALYgByQ0zrdoDZu3Jj+4R/+YboAEPlSEbj0hrenDcedK7mMOtaehFqrJYnhfFPPyZUnXS7Zo4+aFj35JUG5rOAsyhWzkri69otOlpJxkg7KmKyG5ag9N0h/W2f95YXfAXEayiXjofpe/h2QVfq1c96A+OxFUu8ucJkdkNZqvsqpa+R8Xcxbj7IZ4NBIe7bvHrF9MRs3rZmOfzTAR6u+enzWp+1VPNzUGvC6+aHxkGZvD/UagcRjatSPGGiSdV3tu8c8MBSmJ37qgrQFX8vrQFAeQASwATmAJnPqobznPe9JH/nIR6aOAfEvCYGNp1yRttDvfnBy4SewkYxb7iIph/TXJ6c2QCLR8d5vpYzXZCeSIE6G4iS4litPYEUfpWe1Xs6l8hMBM9zVRx1dOWo0f9yOx1vXRWs1vi9+Epj/GRDzg/4Cw++A8LzFfNr8NPW87nwd5XncvrKWdtGjo751ITNWras+/aJdxuf1l/XXerU9+9OjT54MqT8z5Xi52zqo3i+y+aDxXsq6nmfX46/95vi7/me7/gSty8n0Ne8Lc5jE+/tFnzxhE8Mid8JhKX32564TE3gBgQOJADYgB9JsTjiWH/7wh+m8886bMAGEvmwErnrFR9LBBx+ubhUnmtIQdeuWJJKSHQ+Ck77ysmp5sirdHTkW9OSLkydXEgq8wYbnk2JrqPoLBXV3VqzyjR3uluTQI4p+U2/juTmSSOuSwuQ5krI+7zMgnLvxP9fqcFItJRBVS36onyYwEJcmoe38FCPDTdNn9RgR9dpONIvdrj7nz3KzOLkdVqNaTHMY6NpluZ30rVf8BCRjnjOu0K/+mF4vGn5dbiGoN+Gf3jTDya/an0XnVQPS94EYaux4vB545kbSIlvb7ZVjxe6fGOnWc3e/PveDe/vnV8c9cMPJ6VXXnO1WUILAAUEAG5ADYhoRxGte85r01a9+FSBAYCkInHHBXen0La+gpEJPOi27qOr1yarKRRKijxAolrrdT1xdzusctOgbeAIi6Y1kWTTSsqJavh7f1afDOk82ivjqeExf0a92zX74WctV8VB25vyGPgPiT0DYX9l8iPo8LjBKP34HxPny+lmjpx47Vuxbr6jeeWIgJ/G+Xmwddvja+qbxMr8F8Nnra7Y+9o/HV082qF76L92FnK4/dkSvTjw8vliP1XqlIaW/+f0iHfTi/lrZka/Hu//ur+vz988i+pwn+7Wevpb3Nx71L7Ig47hA4AAggA3IATCJUw/ha1/7WrrzzjunjgHxLwmB9YccmV708g9rsiNJtOZm6p6ddXL2VFycZFRXU9dkKUvkbhvXGc7JVmuXG1xHPS43x50KuhgZFH3U6smVa5JSHHKJWXZtVA7Ahtd28TsgTle5NLgy4MDmE6XjOPlWsLUeb+aZ2r6DvvXKulm/z56UrcGmHuu1sk8je+Qk6XfDlTwZdzdpXNe+t2Q5HVBsesz/jl1S7KOlHLC7qL6OftfXxBvxuH2SUz880HBYb7x5QI8D4u5bz9uQ3nE3vpbXCaLc/wlgA7L/z+HkI9i6dWv63ve+N3kOALAcBC68+q3p2E2XUM7CSZCfnFIqIUkGpSNctk8ABuockeiJ/gF9c+TcD82GOOtxPVY246ma/aSTcD/J1WQu1yu5nnjdrp78inQTTxuf2vUnG0yQ48fvgLSclAvPZ986c+7lfJNgrLvt9OSD/+VVXgetHtPPIsW4mP9YPzqO9fTKxbqNbvE3y+t491fXSX7fDPtn+sQ9jUvsc12Sf/K/3AQYp2G7Gm/EZ35r+NkfX8d9cnX8ps/senzlfOj7uo2/9qOKn/5x4ZffdnU6/JCD2S1cILDfE8AGZL+fwmkH8MQTT6RHHnlk2hAQ/dIQOGbj+emiax/kLEiueSfRkSxJ8h7DOCupYyr0afJj3R05FqyTL5UMBZVeTV5n2a39yOaoveyKe71hOfHThaK/9pubPZmrHdMaR8L/w++AzObkk7EId//WKyVsExNF3FTdrj9PZ07K63mz8dbYXV8uXdspNwsuIaUvuBBnu+QN1XV9mbTLVYPZ6xjoglpas8c1qG9RObfb+JGr/X4M2m312fALNx5MX8v7Iu9FCQL7NQFsQPbr6Zu286urq+noo49O27dvnzYIRL80BK64+YPpsCM32j9dz0la52SXsqf65Lo5+eQB1b/BN3k7mdUkjPRbnQHoiarrsdLsSLrWZDu1fD2+q4/7ScuA3yFPaaHqNX1Wj6yRb0yRxl/bjZPiJp6hz4B4/Eya9eF3QGruzsfnZ23XrsTfeqXTMLw+u+urf15L/T6vUjbzt9f02TzrOrRNSLueaNMh68hL6m/XrfAo+xt/6/cLZ/8ev5Ud+XYdt3Udx9yVz3x9vTxJwROvo6/lPe04UoQLBPZvAtiA7N/zN2nvH3roofSJT3xi0gwQ/PIQOPncW9LZF71aHNLkmpIMSXIs59AeddhONN17lq+uph7JOglFDiMDbFw5nO4XPfklwVJL6Sgriatrv+hkKfFXPJMx2X2Wo/bcIP1tvY0fvwOimHwSMj7i+Rx+B8S/cjfPrc4j6/fZ0/Wl7e7FzPkqRbOjxTzr+0AaQtZuoqBNAt1zNdt3j6jR5PymNdPxjwb4aNWn7vj4rE/b2/XX6ot64e/wuq7f9+pHDDRH6rrad4/beG2zYs0bD92Nr+U1iij2bwLYgOzf8zdZ77///e+nyy67bLLxI/DlI3DtnR8XpyRZtycTfqLvJ7CRtFCuEUkf3fhJsiZLlJz4ES9pXEgfWxaFnqxYKXY4GdM6Z2Wiz+qtXa9bIOJHJd/4o3L02tHb2lH3WL6Op1vnOOgvps7ve/BX8O4iQ1rquD65yl/zK3Ovx3u8JCZ+Ze7Osetf6T/r1brJDdSz3nn62BH6r+XZ4TY0n/1+sMIV+8FB9pf1M+dh/00/SYhcrOc+/a5O163yN7kYV3OSEeaHyhf9xWeOZspFGGpX4yG7svkgfV6SHX07abwaTxuH2Zdw8/tRw8/vH9WT4/X1w3I1pyIetk9/FuYuTz5Nn41r7b7l2pPSq649m63iAoH9lgA2IPvt1E3b8dtvvz194xvfmDYERL80BDZvuz9tOv2q7A/nOnTNfxJhcpKksLxdnJyVV6Evckfu78ixoCdfZXcoKLVKUiT6vLVXn3cW+jpyLqN2uFv19tt1v7lX4zG5Wo1EIk3Wjd8B6efkK2eIO//QIH/w3OWKhabETW13vdqE2HyX+qt1aGI+r7nKyXdY7d5EOHpjZnw4yYdj0qabitwcgi6XG+hO3wc20Hpqfe5QjovERGQBOdbY2m3qudqvz+eBe/vfB/U4q6VDDtqVnnr4evYAFwjstwSwAdlvp266jn/lK19J995773QBIPKlInD0sWeki69/F+Ui+eTUk4n25LOs1ye/dmJKkelJKWmQ7KVu9xPX0G8nzAyktm/jRI2lN6zPj1I78vX4rj51R4fnE93heEwfJ4FiVwzSi8VlfkccJufxiX3Kzlz/0GdA/AkIy/PBcfczIOq39k/3d0Ce2UlfuUuwnadOQ+Yr81DwlnmWk3ibr5ifel7L+ZL1qguEcTfrsa6zJ7pe+/X5upi9XmU12frK7xMxzvbbePj9aXapUPvuR+NvXqfSQS/ub7ZTvt9IYG68JFA9iSnHe7x9PEWu1G9PiG4976j0zrsvYdO4QGC/JIANyH45bdN2esuWLekHP/jBtCEg+qUhcNmL352OPOaMyh9NGihZkSSIkxPvLjYD3kQly1dXU/ckxGVyt43rDOdkq7XLDaFBb9rhWXHdT+2ij1o9WXJNUso4l5hl10Y1dtr48TsgTlcnqMGVAQ/OZ57Ynatr9GvnPDfF1Yxj/T57w/Obx8d8VXpoZOOorlt9H8joSp5arO7rm6vZvnuU5XSAbgJEn7+0dv19F/pCUG8qP+br68Zl+hq7EY/bJzsahQfa70fwbLodUO/80Gbvq2+7Kh26/gU+CiUI7FcEsAHZr6YLzn74wx9O73vf+wACBJaCwKbTr0mbt91HWUZOviRZkGo+cdVuS69MIJIuqvvJpyQrRZ2DFDlSoPJWmn5Jb1jfHLny5FeTKdfjems7plDiWmcnrn3+VnLsN/1Rf01fVRfpJp7aLsfP/vmTDdbI+vA7IC0n5UJ4lGfFOc+DfuUufXKmWT88jjnz+umfL9Nv88Hru5r/Zlysw1auqstyEj1Zfrb/w/6p+xoGxUF2NB4qJPknf8tNgHEattvEZ35r+Jmnm3G7zpXlxH7Ea/rMrr8vFuXu+uv4xXudB7NzwfH8tbxXinm8gMD+RgAbkP1txibs7z/90z+lY489dsIEEPqyEbjm9o9RQkAnkJLMFd7pnkCSIGm1OqdHZT2SJRovSYermKFPkxMT7Mix/jr5UsnabjYzz244LkOyOWovu+Jeb1hO47GO6DfLpoibc7LlXlFp8hwJ/w+/AzKbkwMruXPSu33nGm3eNBku6Lp4Bm28eT3KZYVXY0B056S81usDTQ05VK9rlw5FZs7k6uFkdliu1tsONPseQHTX+jyuzM38a+zOlYuwwpDGFdU9tNvqK4a375eP3Xt+uuB0fC2vI0O5/xDABmT/mavJe/qmN70pffrTn548BwBYDgJnXXxPOvmsm+REUpJ+TrY42ZMnBpw75SSNmqs6Z2V1vyaJkVzwgOrf4Ju8JZMuV57A6km267HS7Ej62mRZtXytnwl3+0mL6fMT3Y59CkzH1fFpFspZlCgQRSLXsaPjW/tDnwFx+0ya9XU/A5L1kYAHwOp74rP5Yznpd/FmHqt58XjqeFtOGnaph/zqXSfZ3y7/2r86Hh1X2l1Z3SXffFXrMf2deWz8b/jwvKmeRs7WYwPMqtlfMlfxftb6Kj9Yi+qtntDQpkPWp5c0nyUXjoOvzuZf5Jx/nlfhHHaNg9n19Sf6ivHul/f7+8UcJnHnOayvnt9+7mznBP5a3p+9ll3ABQL7FQFsQPar6Zqus9/5znfSNddcM10AiHypCBx51MZ02Us+kH2ypMYbJFnjJEOSIE4eokdvom7VLOANPkBK1cdJkydd3m2KSn103znJlpE0JuTqcbk57gpZuuXkyoZ7cuUeSCn+uwTLey/fUHtu0I6m7kmhj8LvgDgJBZlxUX2B3wFZo53YDv7BQbtavu06YP0+e8Pz69p0PURNXdRqdrSo6/tAGkLWbqKg9UX3XM323SNqNDm/ac206yved6FPrGdFoU/bu3w6AibohXnaOiL1+n2vUZi+UFvX1f5QvMUmhcxnPuoLv76Zvpb31fha3gwEd/sFAWxA9otpgpM33XRT+ta3vgUQILAUBC665m3pmI3n52RAj1jFN04m2pNPP4GNZJyyCM5VPJnI8tzOHSZAGhfSx5ZtnMiTZh1n463OBuv+Irkp/LZAxI9KvvFH5ei1o7e1o+6xvPrVb5d5cBz0FxN+B4Tnw+aNudTclF8fd0b4zM4VHsHdg+OYM0+c6jW5qJt+khA5mg9dB62cdZud6klEsZ4iDlsntmD61408GXL7MqBfrnj/VO8XiZvGeyl+qN/Ddpv4LF4Nv5iH7I5xcz9bTqbP4vX4bUJIuL9f/n9AnrCZvkpOvO+1uz6tpd94+Dp2FxcI7DcEsAHZb6Zquo5+7nOfS/fff/90ASDypSKw6dSt9MHzN6lPnMPJRTdxTw12P/9JhI2WZDOGcbakHf5a6KOcJnd35FiQkhtJvgq57JBrlDKSSm/t1eedhb6OnMuoo9wtfg7Y9QDUW9ar41yLD+NI5LICvwPSz4kIKiYq+NfO+QkIX9yq6yXupN2x+jivd9erisd8kRqfV9Vr/V4089hdXyGoN+yWXHrTDOeFUXaTm76psmFeuJzXJSB9H0hTY8fj9fh5uMZF0iJb2+2VY8Wt3aaeq/363A/uzfPEiu1yBZ3h1lDI3Xzukeld+FpeJ4JyPyCADch+MElTd/H0009PP/7xj6eOAfEvCYErb/0P6eBDjpSkWR9UaPogydbASbFlF1ToySfXNTnT+vATEOun2Hv1tye1Yd/16jhJbziZUYeF5J7p01xLhxcnwoPx1PFxvJqsSeDih8ZfyzkHdlCTTY1j6DMg/qSE5fnguPsZEDMr/Qf+74Cs0Ffu7uSv3I11YHyjrjw766/hLfMsJ/E2XzbPnfk3vcxf5lcFrErrxPp1+nOd16OuP/Mv6tYu6uatV9ai48t4xTi30x9/v7V+80Bdf7U991c0y/tFDNCL+zskb/pmxMt83I9F9DnP6n3C+osnRGX8vDn/ys9dmQ7B1/L6EkC55ASwAVnyCZq6ex/4wAfSL/3SL00dA+JfEgKnnXdbOn3LHZK8VC5xslJckdxIEsTJiXfyjWQ/3iAly1dXU/ckxGVyt43rDOfkq7XLDaFBb9rhWXHdT+2ij1oj6XFVXMo4l5hl1wY1dtr48TsgDlcnqMGVARfzyd92tZ1+cFCuZkDLt10HLO6zNzy/7hOb7ywc6qSR3m6ium4paXaDhb/qpwqqHA1XLabfPaLGapxuAnSkvbZ2aYCP1nhcut/viCfEwqC2tPq9u2l3P8snNepHn11S7c0DelyAu+t43AFz2Maff/wL0n96A76W16cR5XITwAZkuedn0t79zd/8TTrllFMmzQDBLw+B9esPTS+89TFJjuJkldyT5EWPNsVZSRYoW4jkixrKk0/qoGyi/yRVkyWWz0mW6Al5G2f6y6Rvlpz7q1kMJy+up9+PMpC+E9fSvzoe19sXv2hVLhGPyRV11udPNjiN5Lj4yQaf8NIvWmjJdf5uXip9s+JywiHis/lhQeOuerp2eZxNlCrmOl2ir/CvrGu/D2Nv++PPeufpcz9NzvV1/FA7Gpba3bGyi/7p1a6Z/rp/PE54uH4xW/pv+osAlWvjl42TiTB+lVzFLXPK8v36ws9B/9R9DaOcN2qXzQf5L6XJdfxs7dq8NZw1/JJLbXdP3weLco+4qviFWjW/7J/MY8H5V1+zJV2Ir+UVNHhZbgLYgCz3/Ezau9e//vXpi1/84qQZIPjlIbDlip9JG0/epjkEJTdyWaHJXOFrdMeNddb1SJYoeZOkw1VY8uvVbM7kBu1yR518qY7aruuNZDE3+J0Nc0NtldrLrrjXG8lFaQjHJ1f0a9V5cXNOtqyPC5PnSPh/+B2Q2Zz8K3eDoK2feXwDtPHuzJe198nlTUJYJbEYII3d9eWyYVDlaJJ1HXi/la4vxLPczPeLD/eFFG6FopDgm7xevXkP5WxYN/7o0JvGj0G7Maz2g2v975dQnDby1/K+Fd8Y6QhRLi8BbECWd24m7Rl/4xV/8xUuEFgGAiedckE65/KfjycTnnzRwSPlHJoWSLLFJ5Hyb7S1vZXzOmcRmpzZyWtxgin6WHH1b/BNvpErT2DDPvnjdliN6FODlr0o0Vq+1s8S3X4aPuB3yJMdHWfjrc7mqYNeRIEoErmOHR0f+izeoc+AePwcMevrfgYk6xP7GgCrNz/N36au/X3x0rhqXjyeOt6Wk4ZdzgvZ7V0n2d8ufxpvPNg/j4djln965TkoczY5xZ7H+bro+tP4L+rzOJ63vnnt80f8asa3fjxrfZUfrEX9ruKVzQz56yW/H0hQ11vBt+xv/BXNwlE66MXjt7Ijb/oX4K585usTOXWcrNX+O/du/Kr3Z64+Mb0GX8sr3PCyvASwAVneuZm0Z/ybH/zbH7hAYBkIbH3pv0uHH3liuMLJTHU19Uh2JMnh5MGl7Sbq2r6YPtJD4pp0zNBHQp2TbBlJY8Ku3dRF6Wghy82UxNnwSHrcBS4lQJco1bABas8AdFRTb+PH74AoJgInNxkX1ZvfAeHNB29CqisPsPE20S4U1azfZ0/KZnw7f9V8hS5S3juOkmJfeCFrN1HQ+qJ7rmb77hHrrR1vzbR2dfNR6qvHZ33aXsXDTa0Brxf+Dq9rjVfjsHjcYBNHNIv+oXhts8Ju0X+ZDztql/tn1UMO2pWeehA/Tuh4UC4nAWxAlnNeJu3Vk08+mR544IFJM0Dwy0PgjM03pVO3vIpyEk/CuSySAv7Lvz2pjJNQk6OsQZMcuYncxZOJvhNNT4LE7jx9jMv8UD9ru+4vZy91fx2H+yH0+/SJGYrf/FE5eu3obe2oeyxfx9Otcxz0F1Pnsx3VZ0BMT59cHZ/qz8DtMyQDfuR57OfSzhfr1XgsjoF61tuNt+TBfDzLrOLo+Kt2d9JX7q7S7qOcj1Jf62+5DpjzsP+qn90RuVh/fXEKXeHAcarfbZw1pzwfPfrkyZDbl4Vl4sX7LjeHXfGT3aU/EqeXFCe5pXK6UHv09fut4Q/bLbmL/Yi/jnePuMsTNuNerafMedhu5n7zZvpa3rsu4RBwgcBSEsAGZCmnZdpOHX/88enpp5+eNgREvzQErnnF4+GL5ORU6z3R5XzOL7vvlWOZUparnCSVzZIcsqBdhT6R8/EdOe6g5EeSL9bbUeANUs63GwpM3oZnxdoQYnrD3RqPdUR/PZ6bNZ5GwKociVxW8CakvPwD6C7HuRv/c61u/DaqGT8/fh3XL1fMWLhp8xhuRkfpdkxMFuO7rj6fwOgt/OcPnPMHz+UKRWbG5OpxPfobvt312ugjhaqljbOWs1rPuo4evQm/9aYIz/pNIIrF7PIKYE+78YQic0TrbDfoSNMCcqyhdbip52q/vhK/2M8D1D+vd4Zbg0XR+qHD1qWn6Gt51x/Mn6DCBQLLRwAbkOWbk0l79O53vzt99KMfnTQDBL88BM655CfTiWdcLw5JEjpwwinJDv2t7yeTnky0J59lXZNaSpJ6xtmRLdm1frrrk3N77GDd73q1XdIrzkr0KJjFG/m63t/vwzkJdL+05Oytjqeucz8J0IsIiiKVr+WqeCg7cztDnwHxJyDsr2w+ev3gXu4/cH4HhDnxDw7yV+8yx7l8m3Wr05D5yvQUvGWZyEm8zRcN0PU1PF8yvzJQk2OV93Vi49zfOfrEn7nr1cPWde3rSWeb7LXxkD5fT73xc3/hn8ZD2tiP8Hconjo+97/Vp3gW0+c8Pa7gSfPiet0Ov69Vrp6nLcfx1/K+0JGgBIGlIoANyFJNx7Sd+fM///O0efPmaUNA9EtD4IRNZ6TNV76T/PEkLLvGf9lXV1OPZECSIMthZIAmH5rUZA2L6Svl/d786LjDyVZrlxv6x+XmuFNBq2o8OjySHlfFpSVpbiDjcAWlsMvntjb+oScbB1EAuhmxsaae0i5tiCJuakFr9m/VirisPTzKAUhT6V9//D5SFTXDjY/LcNXmh5qejb6da7vSKv0XV2uwqZf+y5iIN/srfgz6EwN0uOuPZr4hDd4uUh4nz44JVvIk5M00rmvfW7KcDtAk20xo0dolxT5aygG7i+rrxmXWG7sRj9snu+qHB+pe1/XnY35ks0V+fOTV56WLzzjODaMEgaUhgA3I0kwFHLnnnnvSU089BRAgsBQELrnu0bTh6LNyssjJBGUTmjxqEqTJTXSI35yTdORsXCRpcWJp+gbqrFDsRb/ZbfXNkStPfjWZcj11HH6yWgaC3wGhZDb41/Oh8zM835m7TJhhnaXP5Gx+fTxVYx2s0Wc+dtDTj2odmn/qz7B+16dZMSfBvg5Mf9S13RyWANVeK6f1xdZ15pTl+/WFn+FPn5xoEQ72hlN3Jfkn/8tNgPEctjv8Pqg5sx/Zrq+LLqd+roty9/lmS/r+X9SucYr1upu+ljelzz5wtbiIFxBYJgLYgCzTbEzYl69//evpjjvumDABhL5MBM49//q06ZzX6d/6hWORfFByI5cVkpUUcrm7kcsdNpxPaovkx3UscLKqCtwBGyjjSB/90SQmFOpNR9zkQqwj4D1SZrdIrhSNe70Z5OTaTBFL52TLO6k0fRwJ/8+fWMz7DIiP68ZvunMA0sDJXXVJXTzSZuuO5NuFY5gLuPhi3H29yOj84toj/lKOveLrGf61c6rot0bV9lWCXhfkG4ZCTdyoKqv2yfm6DZt80/B89txMq+sLtzLfYpY6dt2neU9ePC4206uviX9QLgzGAGlx992Or0+vL6wv4h96v3Ttajza/tNXb0r34mt5fZZQLgkBbECWZCKm7sZll12Wvv/9708dA+JfEgIvetmH0wsOPoz+tqe/xi2L0JNI3yxYKd38l7zXqZR/o83DOFny9rrO2U7db3KkidvFbvVv8E0+TjbrOmOb5x8JWPbC0q18Xe/vdxxlXOp3yM+IV+xr4KJI46/tOq/QZ/EOfQbET6DZI9bHX0erep179k/jH5rP2g+13xcvyVXzYvo6dms/eue7d51kf+v5VH3ylbv8rVfkYPSLP9zAXtNl60c5FHLUHnzn+FvpZ33GV98OWY/zL+2KfXGD5AbXq8+P+Rf6c/weR6Uv5CxMs8Pvl4iXQEicXnLcTbzsr25Si3Ei5/ZlAIethsLukLzFUfpR6Cu5azymZ0Ce/Zsdf+1Hjt/1mj/m9/p19LW8b8OPEwpXvCwNAWxAlmYqpuvI448/nh599NHpAkDkS0Xg3EtelTadfpP6ZMmXJ0HuKCc71dXUNRmiZECSIMthZICN6wzvNDTqOakiPfRf5ERD+kho0ZNfUWh6VV3hR3nLyZTJqf2ikwc6J1OYcbAcjcgNLN2ptzzxOyCKiWfSca3QZz52rurnPlqce8rX573UP39+3SeevmL+i9t+P/R9oIG4DhsUBa0vuudqXl/uETWanN+U5lVvCGiVBvho1SfNWVEtXsfDoq0Br9s4fX+RZm8P9SxQv+/VjxhoknVdebrHbD8Uqj6y471S9tr1MexWKNBGqt54zpHp3XddnIVwBwL7mAA2IPt4AqZufm1tLW3YsCHt2LFj6igQ/xIQOOro49LF130gJ0FxQmkni+Rj38mpHbFKBPyXfz75tXGUNUSSwcmB1HOyleVNTo9sF9fHkqLX/aztliew4h8nSZWfatf9MMPkYKNPzOT4VI5eLT63o+5z0uR21D2Wn2WXkyuOg/5iwu+A8PwYP//ch9e7fJXzfL4mx6B5vVTzk+0NrwObv2pcXsd5vbTzXK4DtSv2+9aNPBnyeERgYH3VdjUesiubDxrvpaxz9ccU9egz/wRLvb7r9wvryXaHOdXx+rwRNlVQ8Wu4xxOtdn4Wsatxul9ul9fLQaT3qZ99YTr4BfhaXpoFXEtAABuQJZiEKbvw4IMPpk9+8pNTRoDYl4jABVe+JR17QnFKKEladjCSD0pu5LKC/tqX/4VkdMeNdbV1U8NJEt1aL2cRoUpuYpjJeXdHjjs8+SrVhIJKryZXs+y6IR0W5uLG1IWY3nC3xmMd0e/yJkdVzckaAatyJHJZMe8zIJy78TMCTT7L+FVNy3V+/GaeAurOT9ESbjbz0/hvXoRjNszqXX3u746da4l/98Prz45vj/7GP+YmVzhmHtt8l3ZF24Ccx9nlGz16E+P1xsy4UMSb3Wr5mmh3IHXo+0AkGjuujwxoNxVBR5psgBW9cjyytdvUc7Vfn/vBvcozDIpfob8zfEBOR8kwjaceeN5xB6fH77vCpFCAwL4lgA3IvuU/aet//Md/nC699NJJM0Dwy0Pg3C0vTCec8wb6y9v/0qZSj5rFSUmmqK5JlZX0t7zKe937td1PIC27oEL7uV7rqcdlu3V7Ptm08eYPOzjPPxKYEU89vquP+304J4Hu11A8pq+IVxRo4KJI46/lPD6xT9mZ2+FNhf+Oh5QWrz8pYfn/n73vAJCsqtK+M9M9gSwqGYERlawSXSWo6xJcFFBZBFSWoChBMIGCKElFEN1fgrtLXBSB3UUEFRAQkawiuJhAEQkGkqSBmek08598w3tV1d3T01Vddd6s9d6995zvfOe75Xruff3q0eKjoivz5vGp+R6Q4ZHF8KdX8qtX9v3LdUNZm+prfg3mC90TvcG88qwLf7/yuOl8JV8QlBuaMH8WN2/DF0DG6/E4HfvCNcBDFPZP77yQMfaX+SAfiYuO/P3T77G0hS8h0xeeAsCH8m1kn/srL81f8UhXxB0FnuqZ/fcE+cEXXXE1Tsxfeeb5Yb6EBxen7r5+2Nh/lhcE8aPdCvgCpN0z0MPxd95553Ddddf1sAKeeicp8LrtPxdmzVk5pyTFAv+PdxzCoiA7irYVN1QEyf/2kwMXH+PDixFjOOFRoYPFVhkXOxQj94vddsWGagYBCQ96rehRKDwTIbVoFlecYgLUUerp7wFhnfChenzwvJy3Qr5UcHYsDEp96/B09hrPr8wdnAzPvi54AZ41cano14CZPQIxJv/3hZsxvjKKdmph8dm9GheA1ZvxzFACpm0u2rWHzkUe1bzEumLH/ekdOOahiWqUvF3NJ7fDMHk+4m9meZv1hLxMYDMMK89aFL75If9ZXlXEz+1TwBcg7dO+pyNfccUV4d3vfndPa+DJd44Cm7x+17DsKm9rsrPINY7uYOpOKhc3WB3AlRQjVCxQE4ugfEfSijTcyQRD9S93NLWNCpGd2TfAa2GnPCQgWCtOPQ+MS/lg3Jod15Sf2VE+iiu8LY7JU+RT5sdx9c4GKoT5YyHOdz4Wy50Q/Jt2sIV+XayoHeua80h1T++gaB46D3EeoQcnkugAC9M/58vjgE7m1fmOuo8WT+wEb8HgEP1JGeZZl5fiK79WfNUe8Ti/XCcdT/HIrsxf5kXzTvVlnrlOGq5q3zwvxCW82vwpKo3HeQM8WnyAH505zdZxJU4x36ZnxiPGbaxTPe/R6s564fcvxRlN3FL31D/ifWDLl4d/ecM6mJ4frkDbFPAFSNuk7+3A66+/fnjwwQd7WwTPviMUmA6V7FZvO11qAy46jZgUodrGJhUHUNzQoeaFXRwu7OKAuCdFK/QoHBeHHCKNkxZV3G8ebEw8oOiAf1zEKEbJQ83Fzszq8HSQiznxTMhCj7nxRUOdFEr0QutYbOlgxMNM8P968T0g+ItX2dvOUZ5UN5IGFcR+PtlnaofD0o7jepX74/eGDsXTc9HP3y8ubhWJ/cxBmuX3S63zONXvq9gpbzOP32v+72Fhp/DaXfA2oYwmX2CYWrzR2mlc5avxC3+lozwaxi3xBAdP9f99sUDkGXETRx6hz/7pi8N3D92Krv3DFWiXAr4AaZfyPRz3lFNOCcccc0wPK+Cpd5ICr3n9fmHFl7+OirS6HU0r+uB/1XU87hRrcac7jXCmOwbcX9ppG6uIfEdb/EEYKhZxyxYfauCtW5KLd4JzO+WDBvm48hE8DphVWbl97l/Fw3Glg0Wg4vPZ7K1f8KQNJwbACwGi+A14Gx7kj3aNngHR/JER2TXQFfE0Lp2pmc6n8JV4uXmaL9hl86L5iL/w4GmLfpx2bBPv2u8J5zECP7k7AAsQzY/5NOBLfDAhtIJjNPpWdCr4E0yMh18c/r4UdoleGnd0+o4TL+MhX+cyXxCCvp96hvHKfGB+6XhNvpyP6GlxhXfFXnQRPUBe0Uvt+QwwOAAfmr+O5/ZgwHZMXJqSF+WT+2GC/N8nxRU8iZPG5fghbL/uMuFo/1le0tY/2qOAL0Dao3vPRp03b15YccUVezZ/T7yzFFhn3Q3CZ088H0hp9Sb8imar8cycGllPTNq67SKO4ZV044lqFTtDTwMXdNOigq5rPqhGQzP4p8VZZlbBLjqKZuaLDSqqKr0J5wYAjbob4WmIluNmCBdQlFHeTMdqQDWhc0GkaEZTGOD/K+ZHLMzPLqIrXlW6kw65xMXHpTf9Ljw7P/lp8mb5gl86r/q9ocAJfC2RVuPiVDFr1dFivFk6zLsCwEysGy9iplm3cM5PYmGG+Wj5/U3Rx/d9KQIl4SPrhEMrQRqNJ7gJGlw2HGAzwFt+dn/4/tFvy9285QpMogK+AJlEsT1UCAceeGC44IILXApXoCMUuOeee8JrX/vajuDiJFwBVOCkS24P3739Dy6GK7BUFfjqB98adths7aUaw8FdgWYK+AKkmTo+NqEK3HXXXWHrrf3XNyZUVAcbtwK4GD7nnHPG7e+OrsBEK3DNzx8Mn73olomGdTxXIFPg43tsFfZ9a/K+o2zUG67A5CjgC5DJ0dmjgAI77LBDuOUW/x9X/zJ0hgJDQ0NhxowZnUHGWfS8Ak8+Nz/s9aWrwnMvJn961fOquAATrcC/bL9BOHrPbSYa1vFcgTEr4AuQMUvmDuNR4OKLLw7vf//7x+PqPq7AhCvw9a9/PRx22GETjuuArsB4FTjqvJvCj3758Hjd3c8VaKnAGzdaM5zxEX/uo6VQbjApCvgCZFJk9iBrrrlm+Nvf/uZCuAJtV2C99dYLf/zjH9vOwwm4AqrA/9x8Xzjlf36qTT+7AhOuwDqrrBDO/9guYaXlZk84tgO6AuNRwBcg41HNfcakwOc+97lw8sknj8nHjV2BpaXAjTfeGN785jcvLXjHdQXGpMCDf3s27HXKVWERvm3RD1dgKSgwHX6q+QJYfGyy7suXArpDugLjU8AXIOPTzb1GqcDjjz8eVl999VFau5krsHQV2GOPPcLll1++dIM4uiswBgUOOfO68NP7/e7wGCRz0zEq8IX9tgs7bzl3jF5u7gosXQV8AbJ09e159H322SdceumlPa+DC9AZCjzxxBPhZS97WWeQcRY9r8D5190bzvrePT2vgwuw9BQ4ZNfXhwN32mzpBXBkV2CcCvgCZJzCuVtrBW6++Wb/U5fWMrnFJClwwgknhOOOO26SonkYV6C5Avc++ETY/2vXNDfyUVdgCRR4xxvWD8fv+6YlQHBXV2DpKeALkKWnbc8j4zs/8N0ffrgC7VZghRVWCM8++2y7aXh8V8AUeP9p3w+/feTv1vYLV2AiFdh8/VXDOUfsPJGQjuUKTKgCvgCZUDkdTBU499xzw4c+9CFt+tkVaKsC+NwHPv/hhyvQCQr8vyvvChfd8JtOoOIculCBVVZcJpz/8V3C6isv14XZeUrdooAvQLplJjssj5e85CXhueee6zBWTqcXFdh+++3DTTfd1Iupe84dqMBtv/lz+Oi//6gDmTmlblHg3w/bMWz1Gv/xl26Zz27Nwxcg3TqzbczrU5/6VDj99NPbyMBDuwJRgfvuuy+8+tWvjh1+5Qq0SYGFg8Nhb/jJ3UeenNcmBh622xU47r3/EHZ/k///u26f527Izxcg3TCLHZTDQw89FObO9Z/766Ap6WkqRxxxRPja177W0xp48p2jwMmX3B6uuP0PnUPImXSVAv/6T5uEw9+5RVfl5Ml0rwK+AOneuW1LZvh39ldeeWVbYntQV6BUYNGiRWWXt12Btihw7V0PhmP/65a2xPag3a/A216/TvjyAW/u/kQ9w65RwBcgXTOV7U/khz/8Ydhll13aT8QZuAKgwDnnnBMOPPBA18IVaLsCTz23ILz3lCvDMy8MtJ2LE+g+BTZc+6XhPHjT+az+Gd2XnGfUtQr4AqRrp3byE9tkk03Cb3/728kP7BFdgUIB/C7ee++9Ra83XYH2KHD0+TeFG+55uD3BPWpXK7DcnJnhAlh8zF19pa7O05PrPgV8AdJ9c9qWjL7+9a+HI488si2xPagrUCpwxx13hG222abs9rYrMOkK/O8t94cv/fedkx7XA/aGAl/70FvD9puu3RvJepZdpYAvQLpqOtuTzMjISFh22WXD4OBgewh4VFcgUeB973tfuOiii5Iev3QF2qPAnx57Luz1pSvDyKLF7SHgUbtagU+8a6uwz1s26uocPbnuVcAXIN07t5OW2WGHHRbOPvvsSYvngVyBZgrMmzePFsTNbHzMFZgMBQ496/pw531/nYxQHqPHFNhrhw3CUe/xu7w9Nu1dla4vQLpqOic/GXzmA//e3g9XoBMUOPXUU8MnP/nJTqDiHHpcgeMvuCNc/9NHw7Rp0wLe/6Dz4sV0DtgD/XzCce6HYbEfm91iw83jlHE1Dsal+A3ipnjMU/hpHoVfzKewE14aTvOL9nm+Om48izjaz3aEQnoF7UB+8I/s6MxpKm7juPW8AS6bDw1T6op2uU6CB4Y8/9wGYmzXMK+cB/Ll743Ak/u0MB2+O7Nn9Uk66fen8AfC06bDeMFD51fzyPTD7yv6wfllc6aFs/b2/33H6fVj4hXwBcjEa9pTiDvttFO4/vrreypnT7YzFVh99dXDX/7yl84k56x6ToGFA8Ph3Z/9fnj2hSEoheXARQdXodwRB6iNw1QUijkVtXqNZ/KHE1wuhg8stumQEzfgM7WjZmFgzdy/gtfEThcDFhMvJK72cfHNfKmvKV7FPXYYTSy2ubupTkKgkk9FLwZuqHvBt6FdTFiv6BzlsASMGV6MGi9xR01x8UG5WX9chEgAPkUC1M7mw3ITIqkj+OFPmC8cGgnbrN4fjtt903TUr12BCVHAFyATImNvglxxxRXh3e9+d28m71l3nAJXX3112HnnnTuOlxPqXQW+fcN94ezLfyVFc9xZRkWo+NRqGiyoOIQ29dN4aR/b7CZt2OHOVi0CbMUmtHVH2xYNFAf6s7hJuxI/5ZfYyU455mMJYXxqpnFxOLaRcMx3DHiZn6Rd5gulebwDUh+H+Kkd8ir4EjLh0gB8KI6cK/Z5fiWe6iyBRoVXqycAzJnVD3dANJ7IXsOn1l/mq+Rn+QnOInhmaWB4BBYhYLl4UThn7w3D6isvC6MrC7pAAABAAElEQVR+uAITp4AvQCZOy55DeuUrXxn+9Kc/9VzennDnKfD2t789fP/73+88Ys6o5xXY74s/DH989HnWwXad5cJOWgRT6UvFeSZc4Ye1cXaUHUUbi/3ssCZf4DAVpWCkxWlubw7UneGlQ5U4OAhFO/xjRz5B2Zy1cZzv6KTxlRGYWgy+KMNQsa3QZC56wjXno4N5XOstARu1zR0vALnWjvPVuJyFOUrIvM16siUZyDAnHhc9s/r7Qt8MHCz8i7Y2SzsJXvP9soBkMgB3PuyHE2Bojdkj4T/330rd/ewKTIgCvgCZEBl7D+SUU04JxxxzTO8l7hl3pAKPPPJIWGuttTqSm5PqbQV+99DT4eDTfhQWQYWtdyKseKUaFotlKTKLduVv8xvYRVysiWMcKmmzNsfB2pmL5/q4KR7ZlTvnGQ8t8qFSLe2sncdpmj89syA8kSgW+YUuAKvdcOa41IFpwb9Gd0AaxxV+JEvUD7+5pGeDfBvrlOer84t5MM/6ccKzO1qQVxJ3JrxksH/G9Nb+ON/CuzIfhpfnm37PBocXhWH4ZUvimej+4a1fFnbd4hWA7IcrMDEK+AJkYnTsKZQXXnghrLDCCj2VsyfbuQp85jOfCV/4whc6l6Az63kFjjvv9vDju+D5JCyWuTxkTbBJB1/QsHbhueyQNp6oyNStbsMRZ7WDphWjTeJGGAFqhJfEZVyJp6eCLxfvkIaNFxfFQOEe8xc7XlzEbkWr6EQRocjWyEUc7VZmUU9AJFsLKCG4ndnhSEm4aMdmPZ7ywNE4TxIywe+DhQe95VxglHf0l0VXDMggRdvmw3AkltgNweJjCBcfEVgMQpi1eChcfoj/6pYJ4hdLrIAvQJZYwt4DOOCAA8KFF17Ye4l7xh2nwKxZs8KCBQs6jpcTcgVSBV5cMBT2/NwPwnP4QDoVe1Bu4plOsXjUHXUtRrWNWFQ82h0FaQMA4bEDWCluvsOtOOlOPBejiR0UnTpOdxhoJ17wJA7feUjtJD4ThPBq34Cv8EeenE+eR+TJ/c3xKFvJP+aBVPCwOyGgc8mbZUryQHuy03xURxqAD+Ub4+T2uT941+Ipj9HgAQCYLQ4zcPExEx465ybhRn+JU/CD8DhA/nQu+DA/RGF/jIN/coUPnWNeNEL+AiN22601Mxy168bQ8sMVWHIFfAGy5Br2FMIvfvGLsNVW/regPTXpHZzsxRdfHPbee+8OZujUXAFW4JvX/S78x3d/LXJgkQeHnbAYToq9OEBm2lQHqhF5RMYFSPsKAy4qdRDOZs4XUmtStxWlibkWsdpleBkOeNbE1T+HIt/MPvKgYl6aMT5dccjMTxcJPESfZVzIRL0ZT20FaIx41bwEr4iruqZ3aphHXVzA0O5GONA/GxYf+LO7dGS8E38DkkUFW8f5MD+BUTyxGwGSA4PD6lXx03zCyHD45r9uGl6y3Oxo61euwDgV8AXIOIXrVbftt98+3Hrrrb2avufdQQpss8024Y477uggRk7FFWiuwPtPvjb86a8vgBFUfFgE0inZiS/ao7XTOwcYnYp52NG2oh7i6Lje4bDVDlywvfhZOynyiWeBZ3bsF3kWdhkPsJL8on0ZN2+jXT0/tCMUGhdgEt/ufOgiBO1axq3nbXpmPGJc1ZUDcyDWvZ43wDDxDC+d/5zHbHjuA++A1M2bCpDHy/0x8VbvAUHuC+Ano3ENMxqd1l12cTjzA1tQyv7hCiyJAr4AWRL1esz329/+dnjf+97XY1l7up2qwC9/+cuw2WabdSo95+UKVBS494GnwmH/dhP8vKkMQdHHB19YUW3dZiBmYgctfw8I1cyZLiqbnnExQofJWN9uqHvh19DOApoDh7XmGOOCNz103jdDkfncAM8WXUgwPYo2L1ZENzFdOAg/t4srDzzMXS6ydlzcfOxNq4Z/3HQN9vFPV2CcCvgCZJzC9aLbGmusER577LFeTN1z7jAFDj744PCNb3yjw1g5HVegtQLHnHNbuPmev/EGdu2OeP0OO98JiEWgte1XkyQ2Vck1dtCf7qTnO+dQeybjTCveOUFGHK+wwx12LXIlLiUGVNi+nse48TIeUSfa6Sf+WENLnnrGfkgozQ+VMjv1IzvNhxw0AFhr/o3yaZ5vqjvr0xyvv286LED6gHcaD1hIHpEPxlWa6XzRBKgDpls7Hwvhz65w8aH8UvwITO6Z/5zFA+G/P/IGHvBPV2CcCvgCZJzC9Zrb5z//+XDSSSf1Wtqeb4cqMDw8HKZPh5+k9MMVmGIKzJs/GP7l81eHeS/yn70gfS6G82IySyvbiWa7fNwMuBur0uSwRYL22TBfWBEL47r4UFM6N8MzLLAs7LgNRTT8Yxw+YcZpm/KHLuyN8ekqs1O/MkwZ1/Q0PIZRfw1vvSVgo7bRFqa1dpwv5yH5aEDxL3nw/HC+M+A9H7Nx8QHkEJ57LbBQztsVfRvESfMdhAfOh0b4Vlz1+2EARNX0hG7mE8I/rTc7fHSnDRXSz67AmBXwBciYJes9hyeeeCKsttpqvZe4Z9yRCpxxxhnh0EMP7UhuTsoVGI0CF17z23Du939L1Vy6M6870LojLVveBNnMTnfK0ZDsAIjtyzb3W3ULF2wvdtYWOwYEngWe2aGfFKV0UdiZXx5HEq/Pv4ffA4IS4pvOq/Mo86Grkkx/ueMDzvo9YDOcmGI+xG8I3nI+NJze+cjtGs9PYjc8FC496PVh2dnMl0j7hyswBgV8ATIGsXrVFH9l6LLLLuvV9D3vDlLgVa96Vbj//vs7iJFTcQXGp8D7Tro2PPQYPpCOBxSL+Mknuq7tEAM81e+Mi6vaQdOKUfFgXLErduYrO+lmFvlpXMZVAzkXCdgiSM0sP7ko2oV7FMTMsdiO3QpbIxwMQbFc5Kc6a7e2o54IjqgWEBtwcDuzo26xIxs0y9uxWY+XhQHjOfhzu/gndXKwfq3z4DsUvDhQXzpHAtKcFobhASR80zkeFT8LXfIlc0jPDKhj/eUXh6/tuzkP+qcrMEYFfAEyRsF6zfyWW24JO+ywQ6+l7fl2qAI//vGP/fvYoXPjtMamwN33PxGOOONmqJMb72DrjjYi852KZAcaisF4p4QM4APKcywSy51va0uRSmbRn4p6KEcVD8y5EKYLLDolbuknuGBgcbUIr+Vr9s3xiI/k0RiPsiVd0nyJC9Ip8yn0suKe+pE+5J/wo7hMBNCUr5wp3dQ+91f+JR7LmeoZ8WbP7A/4ovOm+Yr+kY/ELfgBCuNwQGlOg3d98OKDupM7TZpmyk/zp2kguJhvmt+xb1kj/MNrVqUY/uEKjEUBX4CMRa0etMV3fuC7P/xwBdqtwJ577ul34to9CR5/QhU4+j9uDbfd+5gUy1IzQoTKzr1tPPMFFoXZUXYUbSyus8OaEY+KSjDS4jK3NwfqNjzrxgvwLOJYkQ8ZsSOfMMO0zXbcG+MrI7As4lh8gzMDgcXFVIpnhnxh5njBiwC1oHORRzUvsa7YcT8vfiA+wDMPCZjFBVtp41vO8W3n1qHmcB6Nf/p90byJifJDHBjAd33A+wYtDNlgU+1iB18pDyBKbsZHDMFvuTAQLjnY35Cu0vl59Ar4AmT0WvWc5bnnnhs+9KEP9VzennBnKvDkk0+Gl770pZ1Jzlm5AuNQ4PkXB8Oex18dXpw/TEWg7kDrnQgqP6WKtWIe2qVd3GnnYlLbXDSmO9dSbGs1KcV3MzyuouNOfR2PyLOwA2C2R15cBHOxCwRGkRfikj+ZYxGctikqjYsgNAN25yMtmsU/8hSdDC/lGfVCwGq+Ma7qzIE5wap95A3hOG+LG0I/LD5mwq9esR71PDTv1J/tS365P+qi7wHBP7vCOyBRzyIPuiPCeKPVSXXf9VXLhIPf+mqSwT9cgdEq4AuQ0SrVg3YrrbRSeP7553swc0+50xQ48cQTw2c/+9lOo+V8XIElVuCcH/w6/NfV/FyT1OS6MS7FahICDeDAT38PCOvAgrAudJ18pHcGuFvszJwvGuo+WjuNKfNTbdbHxbses2Ym7/qo+BuBjL5lbrDJIkeD41nwBuGh82H6xStzICteLBla9cLC40WyuCHviB+GBsLlH94SFlJJLmrjZ1eggQK+AGkgTK93f+pTnwqnn356r8vg+XeAAiuvvHJ46qmnOoCJU3AFlo4C+5x4TXj0ifm6oSwb3TU78dkdBRnHh5ZpZ124UTWdFIvQ1p36dCe92U49b9RHPys+5U6C4iguRZa4WvTyTns9j3HjaRFMPCTtMl+68wFx9Uz5Yy0O+Yg/8s3GsU12zJeQCZcG4EPyqNMf7cgs6lXqZ3F5gPDwZ8TxT6+m60PnFE8Sq8UDFjScLAbEnGFjfORD8wAOQ/A3V0P40DnxbISv+bEOef6ElulTF2+jlUL48l6vY2P/dAVGoYAvQEYhUq+ZPPzww2G99dbrtbQ93w5V4Dvf+U7YfffdO5Sd03IFllyBn/328fDJb9xKBaYWdxkq17jQpcVuNirFZdInRbH2YHGdHdaMeBQXjOrjmwPBZHjpUCUODvJigB3pEz7EyU5QPMM1W2M6dsUOYqd+ZRgurhUbrXCxkeLpmAAZnsCXgI3a5o4XEKHWjvNlHUXPMl/wmwXv+phhi4+EH0ALOsFzHhZYDPM25kuHnLQ5PLI44Ps+tG0XaqdotXnoIHqJnuCnunK8CISL0RN3XDtsPvdl4ugnV6C5Ar4Aaa5PT45isXfVVVf1ZO6edGcp8Na3vjXccMMNnUXK2bgCS0GBT8EC5I5fP07Fd9wxj0UuFuXarzvhsc072EiL7MCA7cu22Gl1DIhsL3bWjnhgAFVngWd26CdFaZ2d+eVxyEMcK3nRswgaX/KnU5l/HpeIYP5ULIO/niGO6tU4bpGf8DY9G+Rbdweokg/GF384kWCz+qfDQ+czrJ+7a3Qu9FN/zKPZvCEe5rxgcCizG40f4o5WJxEWZaI4K01bGC76oD+QToL4R0sFfAHSUqLeMrjuuuvCzjvv3FtJe7Ydq8Dvf//7sP7663csPyfmCkyUAs++MBD+5fhrwoKF/I4GwqViMIkgbTxR0QpFNtslNnipdnBpxa14kKW4Ybmetis76Twa8ZK4jKsGci74cjFuUaoXBY/C3eJGmljMx26LXnWEIV6EkE0RR/GUELqzngiOHuJQ+GV2ZGYG2KoQi7QiXj88J4EPncd5Ydd6f1m8NOATu5NFDgDR4mNomJNCYKMZeXB37tfIDm3x4MUJX0tH0iCD8J4Nlg37be//PzsXxlt1CvgCpE6VHu7beOONw+9+97seVsBT7xQFPvaxj/lzSJ0yGc5jUhT496t+FS6+7vdWnKY77LzjXezUY5FtVTEWl1DWUruwq9lJ58VBYgfVp+7UYwFLL8SjC8bl+FyERjuJj+pIXDpTE/AsrvhJG3k2w7Pi3OLn/jzO9TXnH/NAKnjU3QFR3ixTki/aA3/lG3WkAfhQvjFObp/7K/8SD//kaja8bLA6Hv0b6wcswJHyNT7iZ23mtwB+bhdt03wZlwA4veROE/PJ8ck+mlNczYftU70i/+nDA+G7h2zD4UA5P1yBRgr4AqSRMj3Yf8YZZ4QjjjiiBzP3lDtRgUXwk5F+uAK9psB7T7gm/OXJBZy27lzrWbaosdbPjrKjaHPRmniYP1+gORWVYKLFZWKN1WXRlLZ144VUq4klFenQX72zkvuzHYRhFCp2IyPoLOJU8zEDis6LjxRPSeVx1aIVXjV/wSt0UZ4WH8KxrtPoYXNcfOBRjSd4EUDsoj93NLBL/PjndnHp0Vp3Q6vkketUzUc8K37c/7qVp4WT3vNahfezK1CrgC9AamXpvU4s9ubMmQO/ljHUe8l7xh2nwHnnnRf233//juPlhFyBpa3Abb/6W/j0f94OYbAIlKKeTsmOfaXNO9/IjYp5udNAxS8UiXHnWux4gPDZXvywaE3sEY+K7xLP7Ngv8hR/ckvjGowU35SAuDXOCw3q+QmexJFbA8gWVBM8Oo82bj1vwkM9Mh5Eu4VOOW+s02fP6qcZTfVVXCYORqXO1mY8oMEJ4QWC0inywwfOh+FXr8r5BhjTPepZ5EF3RKJdHX7EFTsGFvrAQ/iOjAyH096xXthorZVpzD9cgToFfAFSp0oP9h122GHh7LPP7sHMPeVOU+B1r3tduPvuuzuNlvNxBSZNgY+ffUv4+W+f4CIzjYpFJxz46e8BYR1YENaFrpMPXIzwuHbWt6WWV+uou8HyRUM7gzcHDitNvPOBP7urh+HIfGo/Ff3WQBo5XkKQrWQY8xwaGQmDw3zX2PDVwWDMgfxpMQJX5bD1ZAPJIk05VvihA9jBv5fNGAjnH7i1WvrZFago4AuQiiS914HPfOCzH364Ap2gwJ133hm23tr/h6sT5sI5tEeBZ+YNhL1OvDbMX8BvSEcW+c550oada94ZF65UfSbFIrR1Z9p23Iudc90h13EYzuJRUUk40o9FZoJLkSUuDEgzjTtBeBYX8SRtiRuLabkjAEWw5VPkiwTtTgn41+WbBADrPN+qfZ5fOj4LFh99MEf6RvKUt86LCAZhiKg0S/10WIp85C3meNcD7340zJcJUR7186P5cR6krBElOuBW8olttKiOh7DvxsuHvd44lwH80xUoFPAFSCFILzZ33HFH/6nTXpz4Dsx5v/32CxdccEEHMnNKrsDkKnDWd+8Nl/7oAQ7KNT1ca3FfcMFiMT2KNhaH2WHNiEc1KhhxrWoG7Fb4Z3ipaWHHxS4Ut8JbT5qHtmkxADgIFeMrI+i0GHxRhtGimsmiORTH4sZ4cYSuDI/7s3ywqwygbfHjfABZ+xlG2pwvxsU3g/fDL16VdtV4BgC29H+ig+ihAhhvIxIWweIDn/vAeHo0xUcjw2GPqn1iAJemJ1yTnjGQXgmQnth/xvDCcAU8kO6HK1CngC9A6lTpob7vfve74V3velcPZeypdrICL7zwQlhmmWU6maJzcwUmTQH8Wd6//Z0fSMcisdEOd7qTTnbyt/hULKKftXmn26pbuGB7KDIzfLHDTLHINv/STobJrMbO/PI4VMYSbg0ePYug8SGDRnZaDAs/skMe8I900jOMAw3Kr3Fc4Sd5qF7QJL9cdynCCVd5kmGi02J6zwe+6Zz51+MbrsSp6FzoV87bIhgfGFoEi5BFwlP4Fn5p/s3mW78vo9VJhEWZOH5N3K1XmR6O231TsvEPVyBVwBcgqRo9eD137tzw0EMP9WDmnnKnKXDaaaeFT3ziE51Gy/m4Am1T4Ce//Es47vyfUp1HJLDYhoNqbjzDPzrkxA0cEDu4zIrKin3u3xIPzAmPinsLY2E1rnbwogZ5ylFeFG2hrdYxgNilO/HRCK6qjtAJRb9GLuJotzKLeiIWIltAbMDB7cyOug2YrJQH/twu/umVjQo/bPN86NksMn9uQFTw08UU9Zk5X/AvXsFzH4If/eI81fkpMdYzXUQZAl9YPGkWccq42kY3zXMEftjmzHe9Oqy32goK7mdXgBTwBUgPfxG+/OUvh8985jM9rICn3ikKvOIVr/CFcKdMhvPoKAWOPPPm8Iv7n+Ji1HaYk+IUi0Kt9vCC2s133NlMiluwJ3eoSm1HHmHo2RLBg5FmO+ckmMS1IhRxS77SRsLN8IhPSzxNG/OP+erkpcU1DHM8iQunrK3xlC8hU3xAw7PxjXGYP7cxprVBt9n9+NA5+tEAfGi+rf05XoKHOgqM5oF4+MD50Ajf+Yj5a5w8PwPAC8mLn0lJ+QCq6IL4Zmdfr2bz2Zzvan0D4T/33wrV8MMVMAV8AWJS9NbFiy++GJZffvneStqz7VgFrrnmmrDTTjt1LD8n5gq0S4G/P78wvPfEH4aFg/iGdC5qqSZOCZUdRRuL4+ywZsSjIheM6FyxNweCMTzrxgspWpNAVJRDf6s7EWzH2cX4yggAizgWX2MVfHnxkeKZIV+MEU8XBYai/kVc5DkLFh99M+IvXpFPYVflb8gZP3RjFSSgnIZGFoehYfw+yFGD3+zOSdST/at88nimp/Gpj6u4qT1ZAr8DX7ti2G2rdcTRT64A/PcTVvz4/fajxxQ44IADwoUXXthjWXu6najAO9/5zoDPIvnhCrgC9Qp8/fJfhv/9yZ+gGK3f4Y479/A/6lDsaZuK16zN/lzVYpHZGo93wsUOPAi/8LPFB5QTPF7HA6yAEBe7dCFuuMNfz6MxP8Qhd8ZjYBKPi1/Ag3+c/2ji1vNGwGq+Ma7qzIGnwUPn0+Gh8xmmv/Zj4vW6cP+o7SChEcBaCG86Zx2JICXYDD/Vneyi/MwL+cEdm9QOBihRxhX+aIffJwqL4wIkbdWjbj5nwgPpl3/EH0inufYPUsAXID34RcB3LGy55ZY9mLmn3IkKPProo2HNNdfsRGrOyRXoGAX2/Pw14bFnFhIfWjrABxbZ1pEyxeIRDrLDs7SpUweokftX8GSYkRCIEazIr+CaA6Nrscpu5m8XGR705u6xo8aOimDDLR0jTyZihjogHeyHcWvxDLaFHaD1weJjFiw+6CgTKdoWr+gvBSjnDR86X5AuPiSLqp/mIwkUedg8Qvw8bwOUPNJ2sviwbgMWe2yDHfwjXBvmi21Xnx6O2nUT9fZzjyvgC5Ae/AJst9124bbbbuvBzD3lTlPgmGOOCSeffHKn0XI+rkDHKXDj3X8On7/wZ0lxhzvWUOzRsxpAV4s9qm6TYhGLTNu55n6sDvOd7aKNcIkfFZXULuwEl8SSuFoMp/5cjEYe48bD4tZ4SJEtcTkf4EfFL9jp2eyxKJb8Sa7YruNHeVgVrXHlXOiDD53Pntlv+FFv1gvvFMQ7DJG32o1GP7RZMDiEkZP5TPAxT8kPwrFOmm+SR/38aH6CB34xf2LHePY9Evxk/qvzDXkKD8oY+I0MLAzn7r1xWH3lZRnUP3taAV+A9Nj0X3LJJWHfffftsaw93U5UYNlllw3z5s3rRGrOyRXoSAU++vWfhHseeFpryMgRi/D0KNpYHGaHNfkCh6lGBSOuVc2A3Qr/DC81LeyYKBS38I8Os83btFiALuyN8ZURdBZ+ZZhSEF58pHgc3oAMj/uzfLCrDKBt8eN8gB/049AcWHwgRxyO/BmbPtVfuqrx1JZBIo7Oy7SwcGiY3vmxxPgYCgMkR5VPYkCUcHFD6fJZfYu8FJf1QQcxTOzWnjkYzvqA/wWGStjLZ1+A9Njsr7766uHxxx/vsaw93U5U4Nvf/nZ473vf24nUnJMr0JEKPPUsPJB+8g/DwKC+90F3rvmMpLGY1J11LVZjW+y0moRyku3Fz9oRjyrscufb7JKiFIvM0s7aeRwqq8m+jAttehZB4wPRRnYYTvKVrXaaM158gD/8K+8INI4r/Ar9EJD0aZLvnFn9ZCM02V7yZkKj0EXiNNJvABYfI/DCQc1X53PU+CQjrgbyeYj65PmPVqdMdxBAeUXcXD9MAOf3w5u/JOzy+rWIvn/0rgK+AOmhuT/++OPDiSee2EMZe6qdqsCb3vSmcMstt3QqPeflCnSsAl/733vCFbc8xMWobjFjbZkeWA3DwSUnF4FUVFbsxdFOdpGiIQDjwYmKYCrurTvaip12cPHOPBjARvhCwqlF4R4DGK24E69IjGtA0o1tXoTwuHQ3yB/jcl5gR1CCJ6eUn9mBKb7rY8Z0fNM54/POP1bZ5igD3MZP8ocLPtfbsRPCTIOf2x2hn9vFPrNugB/9NB/xiI5sYt1xkUYDDewirhkITn0bezVPMcxOs4fnh//+8Bu4zz97VgFfgPTI1D/55JNh1VVX7ZFsPc1OV+Dee+8Nm2ziDyN2+jw5v85U4N2fuzo8+dwgFHm8cx2rPSl+7c4DF7HlzjTaZzv7kGbljgE9WyJ4Egdgc7+anX4tvgm/AQ8sT3m8Hg/C0HjjHXYc1yIXL+IOvs5YJR9wSPWq5I/jlo/kzUQAUvnGOPxzuxCF/OrzIC5ItMY/1QfttE2JSRt/ancI3vehehC/5A6R9sf8lWfORwCIhwqX3mnSNCF94kHKIm9q08n4sW6RL7bxUP5xHPxq8HQV9da1+sORO29Ivv7Rmwr4AqRH5n3vvfcOl112WY9k62l2sgIf+chHwllnndXJFJ2bK9DRCtxw16PhxG/eFTlKEWgdRVuLxDiuV1o8SpEJ3VyMcr9aUdFqDS1SocPM8EKq1cKOin41zOyjvxWtjBKL4Fo/LrKTMEgob4If5WF4Oix2Zo4XrfFK/H74xauZ/fiLVwyE4fN4FoADl/yKtqapeNjGP7nCN53jMR780ejO5BC/AV/p5sVczsOIKQiea+zr7eCB9IULwjc/sFlYefnZKYJf95ACvgDpgcm+9dZbw/bbb98DmXqKU0GBRYsWTQWaztEV6GgFDv1/Pwn3PogPpKc791xM6k6+LiZiW4ptHoD86nfM1Z4EoOpX7KCDFwu5ny0+kjsRKS8NV7cjXodndyoa8kuKYeFHVTryg39afI8+bpGf5IH5l/zwJYOzcPFBRXuug/JuqZ/pxP4Yh/CknxYfcPdDcVg3WeQU8536NZpv9sfVQcq3wKM7K5xvnM8y/1wnucUh9OP3MOqQ+0P4TM+5swfD1/bdgvz9o/cU8AVID8w5vvMD3/3hhyvQbgXwzgfeAfHDFXAFlkyBJ55ZEPb+wnVhaAirugKLimPu1qI0szB727KmYSze5SI/F/1W5EscNobPos3Fe0KvSVzmaUgSP+cz6p14gankU+ShzJA2xdfwmkfBdzr0z545g3/6mGzZoKF/iae8NJ7GSe2AiP7ilekpPPBUP59iUOI3yNe6IX6etxHhC4PlyNX5NAOxFzsIwDyb4+EC5mP/8PLwlk3WUEM/95ACvgDp8sk+77zzwgc/+MEuz9LTmwoKbLjhhuE3v/nNVKDqHF2BKaHAaZfdHb53xyN59UzVcL5TbTvpUBZiEYnVYbmzn7Uhe2rLjjw6cLv0EzxUS+LSufDXoll5jBsv4yFpl/lS8Qu89AzjegdAd+aJbjpe8BWBNACMcp5452MG3AFpqZ/opnkjgdG+B2QAnvkYGYG7xHV6Wv7MJ8PHPG08nyfky/MCF4hLTdRFceRMw7yI4PhoSObQTO0FX/yreBwGhsmvkZ4Yf9mRBeGSg/0N6axyb336AqTL53vFFVf0dy10+RxPlfRuuukm/1PAqTJZznPKKPAueCD9qecHc75SZGonFo/ZYU2+wGGqUcGIzhV7cyCYDC8dqvWD4taqWGUhTnaC4hausRnjKyPoFDu9KMNoUR3RsRhP8eIIXRke92f5YFcZANq4+MA/v6LD/PkCzfN4ZiD2ebsaj80GYfExTIsPbmsGaD8R+Kpf1FPp5fyy/GFo1HeeBKYy3zV6aoZ43vkV/eGQf9og7fLrHlDAFyBdPMlHHXVU+MpXvtLFGXpqU0UBfN8HvvfDD1fAFZhYBa772SPh5IvhT2y1+MNi1Xa2oTtr8063VPlAJN/5jjvoYodUsXgs8TK/ZNFQ2lk7j0MehCv8UrzkV56a2iEtosf8tGi2Ox8gSMyH4zTGE36Cp/px+tNg4TENHjrvMzwJDMNpXpFP6l+rX6kLIOFdD3zoHO+UTDg+CMWLnpRvqk+e/2h1wu+F6V7zPePhGAfzyn99i+OOLJgfLj3g9WG5OTNRcj96RAFfgHTpRD/yyCNh3XXX7dLsPK2ppsBTTz0VVl555alG2/m6AlNCgY/8203hNw89G7licQ8HflqRzlfUr4sVthBDOrFfHGfzWGQKHhX3VnuKEQKIv7lh8WlRqhdmzheFe8QzWoJnfhZILvSEBlDcaiJmb0DqSGeMazzJJNr1wXs+ZsFzH3zE/ro2x8MqW+zES9vYy/OhZ7bDh84XDg6DWb1fNY0GdhIv5iN2Zp63bbGmcRvYxTTMgLvULxrQFVppnmKYnfiLkC56QnjNMkPh1Pduznb+2RMK+AKkS6d5t912C9/73ve6NDtPayopcNJJJ4Vjjz12KlF2rq7AlFLg8afnh32+eAO9M4KKXdthx1oYinZrc9GH1SH1wwWfsSSMO9W0c0078VpMi13pJ7gkFlW9al/GzdtYnjKvgofx5P7GO+w4rkUuXsQ8dOIq+aAOEhdO1fwTnQgZ2vjQ+Rx42SCYZ/YV/xKv1EXixnkQPLCD/wsLZPGh46meNj/KL7lDpLxi/vW6SgIAS0T5VMEhGSnPzC7RWflpXG0jX57POA9AV6YPLpK4tpjSfPCMFiMj4TM7rB7e+Bp/Xxnq2QuHL0C6cJavv/76sNNOO3VhZp7SVFNglVVWCY899thUo+18XYEpp8Apl/wiXP3TR5k3Vn/JgcVhdliTL3CYikow0uIytzcH6jY868YL8CzicPEMRalVnYoqjnoCv2p87QGfIo7FNzgzoB5efLAb52OGfGHmeMFFs1rQGfhgKrNh8YGxqvHUmoHQVtlyPO5XqzpdcAwXRAsH4ed2zVAuzH38+LTYUuEKPO3WsNX8xMFOMj/Q1jzJFxNPjxr7ervcT2FWGJkfvvlBfyA9lbSbr30B0oWzu9FGG4X77ruvCzPzlKaaAldccUXAu3F+uAKuwNJXYI/jrg5PvzAEO8/pTjQUj9aWYpurZCAkdtDGIlTvEKg9MabqusAr/KgsrbOzuLw2wd1+LnbpQtzSuDmPxvwEDwgSHgMzXaiutfjWNFvHLfIDhzmz+sN0uEtAukA71QcCMIFCh1HrJ3j4Z1fw11fMF/W3OJJXhk9yZXwazo/h5POb61ng0R2RGBcCkUGad4UfxCE7mYc4nsdVXVC3DE9kZBiet3euNzsc9JZXUWr+0d0K+AKky+b3zDPPDB/96Ee7LCtPZyoqsOOOO4Zrr712KlJ3zq7AlFTgmp8+HL50yT2xKIQsuFbOd5zjDrhtWVO+eOdALvJz0Y92VlSypdjncbjYBDpqU15YOMQz2modO2rsyF4tsViuOSr5KBMz5wuptXWUHjjvg7ed42jOSxxb+GtRbpQKftjEB87x2Y+meahfEpb5GAEOoXYSEJuMmzjSWN4e7fzwDOoiLJ3POh5gB/9a65bgGQz4LXgh/M+HtuKXPZqAftGNCvgCpItmFXcfZs2aFYaHh7soK09lqirwhz/8Ibzyla+cqvSdtyswJRU4+Ks/Dr975DnZacYaHoq6Ykccq8NsJ7psQ+apH5az3C79uJ+EoqqXgKSZxp0gvIyHLg6gerX8IA4Vv1oE1/NGgmaH+mBbdJrZNyP04+KD+hv4l3pV2uInuMTP7jCEoD+3G+clxse4dOCZbw1IE3kqnxr8FnwhIcBpND+KyzzMjoRROs3mM+dPbkY/iasDDfLQ/DZebjh8cc/XcWD/7FoFfAHSRVN7+OGHB3zTtB+uQLsV+PjHP+4/Ad3uSfD4PanAY3+fH/b9EjyQPoLVHh9W1FpHfkG1LnRJqUjFt1rQmYrX2JPhoZMehZ0Wva3uRNBiAHDy+Gn1awHoogzDcdQGcWRRAV1W87InG6WcoUfzwZcM4vs+KnhlQPPnCxxWthzPDCRebON7PnABQod0c3xFQEI8zBfJYgO6W+Gjp+ajKDkeGtgIXVTtEwO4ND3hOmGJgQogblbmu2KX+8Vh7h8ZGgwn/tPaYfO5L8/xvdVVCvgCpEumE5/5wGc//HAF2q1AX19fGBwsXozWblIe3xXoIQW+cPFd4bq7/mLFatxp52JWBkCRfOdbd6DVniSj6jopgqEd7bgGtaI4vROBdtbO41AZS7joX+Alv87U1E6LYcIBBniGg4tliAf/cp44LnZ0SscX0xvOZ8G7PvC5j8hb+BV5IAzHS/MidM5H7JEP2Ul7eBG+6wMXH6lfzqMX3wMC8rBuogvq+9LF88P5B25NEvpHdyrgC5AumVf8e/sbbrihS7LxNKayAueff37413/916mcgnN3Baa8ArvDA+nP4APpkEnzHXY04HQrO9eqghb3WvRTcc+1tZrQWey0jxcXBl+9kLg6ULjHAAk/q/01CJ6rjtDJixAyK+Jovmlc/MUrXHywPZ/xM4+n42ym/orH+oFHyQfauKhZCM994Lnqp3EE3+DzeDZag68ueMZhjpL7V+PGxQ/5xwAMZ21ptoireaNba91kEQa2ETbn+57154T3b+d/xsvqd9+nL0C6YE6vvPLKsMcee3RBJp7CVFdgyy23DD/72c+mehrO3xWY8gp8/46Hwqn//X9Q3KU7+lz0YXWY3XmAbCt3DLAY561pGG2yY6/VI57NXvChbYuQhEcrPC5eW+EhCsfBuBoHuuio5IPxJQ90TPOfCX921Qd/fiWA4K949XmX/px2xNc7KEyE8xgYHgnD8GdxGNfwE97ER9qpn+Zl4zV3aGL+jflCYIpLZ8y/ggOsRBcSAu2pTSfWqwlf40c6o771eLZYQ7tWeAvmhSs+sg29j4U08Y+uUsAXIF0wneutt154+OGHuyATT2GqK4CLD1yE+OEKuALtV+CDp/843P/n56l4zNhgLUoHX0itSbUh1Jw19ubAXuiAh3XjhVSrNMAfXDxDUayGmX30tyKbUSQ+MREgPnFALeK1D87KR7p48aHW6XCV90x44Lwfn/tIjxKvaGs6HIHxlW2dfgPwzMcIPPtR+mkb888Oa/IFDjfDr+QPDrTYsgCKLsCGz/3V+Lmd6ZnwIM8GvFP7erucQITJ46Jgr19xJBz/rs00AT93kQK+AJnik3nqqaeGT3/601M8C6ffDQrsv//+4bzzzuuGVDwHV6ArFPjrUy+G951yI+y8L6KiPr0DwEVr/Y657kyTCFT9ih102KICi1yoirl4pQva8uZxsct2uOt3xOvwjCeU0TQucbSf40pRLvw4HyxZY/FNRTsWzRWezG/GjGlhFr7pXHhivhyvyNfy4H5eDWCx3Iif2IHFED10PsI6KaEWfmxW4sd8U76Ut/Er+ef8cr4FHt0RYX8aIV0Fz/gKnugkwkKreVydN9Qtm2/yg2hFP9pRXnAxvHAgfGXXuWHDtV+CYfzoIgV8ATKFJ3P+/PlhueWWm8IZOPVuUgC/j7Nnz+6mlDwXV2DKK3DSt34ebrj7b3kestEMVR7328kusv46OysqU2QsWpODi03zrl5YOFw0wHDuHjtq7MheY1UceQAXI3QYbmzPgIJ79sx+GKbql+30U/DQOucV/dmU22hex4d/8WoETMfmpzRMkMSd+UiHGhb5Rz6JI9nm7dHOD/NPFh8N4uqioXIHpDb/BM/SyfmpbquEF8M5+/sD6Sp7t5x9ATKFZ/LAAw8MF1xwwRTOwKl3iwKnn356+NjHPtYt6XgerkBXKfDOz14dnps/DEUyF31YLWc70WUbsqdxuzMgxWJpZ+PkoFvZpF3qD24Tgyf8ecdcFwdQtAoPigPFLuWpZ6jG2V76oY1lLr7pHA/kSUhatcPCJOLV591SPwiIbzjHN52nOqMfdFC85vqInSZKzchf74CorqPhq3H5nM+Hfi9Up0wPpKvxwYDzyf3rx0lGss/xmuQv81un7z4bLBP2+of1iIt/dIcCvgCZovN4zz33hC222GKKsnfa3aTA3LlzwwMPPNBNKXkurkBXKXDVbX8Kp1/+q5iTFJVQRlKf1t5cGnJxGY3hiorm2MNFu7QNq2rHflC0Shw9aVxt04454OTxeTlBUSwGXxR0qvwASb2t5k+AZs/qC3gHxI4SsGhn+aKTuUY+aTws5BcO8QuBuV8cCj/FYXxFKPGToh+GyKrg13R+avhqXBzCo5qfEaVc0zsaCcuK7opbme+WfJmHCZuEV37T588L3znkDWro5y5QwBcgU3QSt91223D77bdPUfZOu5sUuPbaawP+DLQfroAr0LkKHPiVG8Mf/jqPi02uYoFs/Q6/7rBTNlg8ljvfmV9SFJd21s7jkAfhcvGb7cDTswhs39QOaQFBKp6x4pcil4tl8Id/GS6NL6ZnPmZMxzedR/80X8TTtuLHtvCq1Y/xsIheOMg/f8y0Ig8h3Fx3ugNDiRV29Xw5EdFX9Cj5Kg9E4PxK3XN/iiQCkb35FXap7plu9XEw//zXtxrb8XzqOJ+3esmicOxum0KWfnSDAr4AmYKzeOmll4Z99tlnCjJ3yt2mwG677RauuOKKbkvL83EFuk6Bvzz5Ynj/qTfCrzFhFajpyYWd7EIN+IzFKBxSk0pxz202kE+x0z4uXqvhrEfCabtwjwGMltzZML/6uIwHRasmKvb9fTMC/gebtoZAiDKwtCt2BZ7yjt2w+IA7HyP491cZrBCQU9VP+ZgB+RuvinsDO/bK5om6zDwHShdpzewEFnANiLsatNEq0zcKJFBsYd8Pg5WLBu0heM7wzHe/OsxddUWl5OcprIAvQKbg5K222mrhiSeemILMnXK3KfDnP/85rLHGGt2WlufjCnSlAid88+fhxl/CA+m4BoHi0e4QQLZpMUob2/IsBBfBuhNd+IGhFaVYjDbcERc/s2+Ox8VrKzwtctlOi1mduDIfXHjgT+6qHZ0TPpSnVc3CDxRiuzzvin6i54AsPpS/3okQwUUerK4VV+OU+uCE5HkZ3+QOkcaJd6gUt8qX8Jg406ngQLfkoXwTc9GhMV/jR98ro09+KZ6tRdBO9Nc8tI1zSHimU2yvMW1B+MZ+/lPvqNFUP3wBMsVm8IQTTgj4Hz9cgXYrcOyxx4aTTjqp3TQ8vivgCoxBgXfAA+nPL+DnE6CsI0+qdeGKS2Mu9jJINEgOLA7psG7x1H6xtSLSqk4Fyf3ZroxPZWltHItvcEaEenjxEfFmwEsGZ+O7PogfF9Hqyg65P9tFi2o8HWM/hB2Ed30MjeAvXmHceKeGsxB8C5O3R4Ovamixrgw4oAFLUxaXLXRXjGr8gl8lH/Es5juGi/nX8avqa0z4wtLBi2TRA61FixaFAzddIey21Trq5OcpqoAvQKbQxD311FNhlVVWmUKMnWq3KrDiiiuGZ555plvT87xcga5V4IpbHwz/9p1fZ8W47nzbHRG7MwAyYJFZ7lRrUQjVMBevdFG1y/xouLBn/xg3b1vxKXFyOxyV+JwAzZnd+ZCieTrwnzVzBjx0Pj3ZcU+KWhiv7LxnvOO4xpfAEI9x+F0f8KJB8xP8gnfpx7RlsZDwsLwEX9PT/pRv7fw04KF8a/Hojkg5n/l8aFzlgflSfJmHON44f/y+qI6MQ7LR90L7qzrl89U3//nwvx/xB9LpCz+FP3wBMoUmD5/7wOc//HAF2q3AJZdcEvbaa6920/D4roArMA4F9j/txvDgYy+AZ3Wnm+B0B1rPNXZWLKbxobhMDy42LUr1wsJjUWq1bIRQvBo7sldLtdO2nHExoosP6hI7hON4clX6V+wU2IhYhEXwvIf+4pUW42Yt5pZ40cYwTfNQXknYyFujwFntlJXhJo40lrdHOz/MP1kEaOgiLvMAO/jHPM2QLyR8BS/rB9MG7dg9LbzxZYvDUf+8sQbw8xRUwBcgU2TSbrvttrDddttNEbZOs5sV2H777cNNN93UzSl6bq5AVyvw6BMvhP1OuwkelpY3pEO1WN2ZhiJSdtLznfNkB9vGQS6qpgmItCM8GdeieYnxoKxlXAlHYaEsTeNQ8ctFcD8884HPfuDRig/zB0N59iXTo9AHq2scH1m8KAwMLTKdNL8yX1us8QAE0TzkXPCDZr2eDfxi/oor+Yo98qX88EIWDbkeuR8ti2g+0Q/JCF6qM4xrvvXjNC2kU46HgBqvyD/h20x/jDv04ovh3L03DmusvCyG92MKKuALkCkyafjOD3z3hx+uQLsV+NWvfhU23th3nto9Dx7fFVgSBY6/6Ofhx//3GEGktaYWzxm2FK3ah8WhHcmlFrdxTIpNq2J1RJzsBMUsXLM1F7tUtDbwS8MTYtGBO/B98NzHTHzuQw+KxQELcwyoVnwu2lm+aCHmCwdH4IWDqJgc5AdFNfzTmp/O6mBh5EJP4mfAmV1SpEOYMc8PUsvw0jYOYvpmoB18pkF0L/OR4YqfuGtAha3Y6YDYW1MurK3jEh+aaf5rz1gQznifvw+NVZp6n74AmQJzdv7554eDDjpoCjB1it2uwCGHHBLOPPPMbk/T83MFekKBfz726vDiwAhuoFMRqjv16c42FeflzrfsVLNfUhSWdtbWHW8tdikgOVZ2upNfZxKDejsoUq0YVSIwa1gsTweM2TP7wEDiYD8UwZoX+0V/7cdJr9qlfpwHBtaHzq14xyK7Qb6qqxCGKLkeOk486A4MESns6vnWzk8DHk3joj6SP0WifEQP45sshiRfii9+qmPMJ/fHAEvyHhDlp3FGhobCoVu+NOz8urWAgR9TTQFfgEyBGVthhRXCCy/g3+v64Qq0VwH8BRI/XAFXoDsUuPzmP4avX/lbqAo5Hyze6ZCTZYnFJhxSk1KRz8WgWfCF2GkvLy4MvnphcSK++tJZ8cQu3YmvtYNOfOgcFx/kov5qLG0cy/iP1k70wYfOh4bhF68a+BXhoGkJyFDejnykvwTIzUcVl/JrGRcXHbKowpgWvgzIhGyxVfIr2uid6avAGX66mDEAvsjsoKukk+g+a+Hz4bKD/YF0VXAqnX0B0uGzdfTRR4fTTjutw1k6vV5Q4Oyzzw4f/vCHeyFVz9EV6BkF9oOXEz70xItQ48VilG4cyLMQXGQ32bHXYhDPTe84xDsJWJ7ynQaspdO4aVHaCk+LXLbTxc4cXHwAJv5nLHzAQQFh7pVHlSe+yHEAFh8UT+404JclbXPxneeL+CwPxFF88a/aEyDxJ9wUP7lDpH5jufOieeZ3IpA/haM8kJ/ZmSwxH42rdyKAHvlpm8fr8WwxQXqozrm/4ZlOMm7t3O/Nq4Zw5E4bopsfU0gBX4B08GQ9+uijYZ111ulghk6tVxTYdNNNw//93//1SrqepyvQMwo88jg8kP6Vm+hZBi6NudjLBMDqNDmouMe2dYtnjR3tsKthZh/9rciGLi1u5QqjVOJYfB5FwnQ1Cx44x3d+xDByFTvAjotXdaVzwVvx1Ebj4UP7+NyHmduFWFo4XFQxLToro4wHGrCf4guK9esFhmGcVB+z5kBZE+NDnhZABzWgtvlcjZ/bpXeelAd5jiL/ejvBFxoRJo/L+SeLDbBnXXP/oRfmhW9+YLOw8vJzBNFPU0EBX4B08Cztvvvu4aqrrupghk6tVxS4+eabw7bbbtsr6XqerkBPKfC5//pZuPlXT3DRCtWg7mSTCFT9JkUgjmNxS3ZY+2IxCGVhnV22ww9WZJbas3+Jp23ETeNoP+MkxSh0zOzrowfPiQYwIl5qKG3Ny3CKfmhKvCJfwMHCd+Egv8BRi2DFQ788/3reBCJ61eeVx83zj/k2jlvyz3k0xaM7K6Kbzafg2TwU/FrpK/OtejNs8v2JsrHuEgftSM8GcevynztzYfjq3pvjTPgxRRTwBUiHTtQNN9wQdtxxxw5l57R6SYG99947XHzxxb2UsufqCvScAm+HB9LnD8gzXrrBrOdiJz39c61MKCquYw8V2dAsYaxHBtId9uiNjmZA3akd1ahi3DdjBixAZpi5Yai/dkgbUXURQVct7NAdFx/ok8atBCxwYjPPQ/PH8VHhJe6RN7KSIwaijoibOPIIO2g3GObxBU9nTOyYb7L4MDMzEFxsgx38Y55mKONpO8EzGLlo0I7ddiW408LwwED4xBtXCW/ZeA0N4ucOV8AXIB06QRtuuGG4//77O5Sd0+olBZ5++umw0kor9VLKnqsr0HMKXPaTP4azv/dbqKm1eIQz7HDTnQQsKrEfqkoe17aOg1xU9ZIBacf2YkfDE4CX8eDivQ/ecD4Lfm63eTzhLflwcZzzYf5AVJ59SfPUn9tVPar+zfHTOwAUx/JopE8DPRv44cSkfMt5AjeeH7zAeaJmzF/5qR8pS/OJhmTO+BYnz7eKx2Hq8RBQ+JZ40s80gZ/ZSTxra77cr/kvM/B8uPiD2zBh/+x4BXwB0oFTdNZZZ4XDDz+8A5k5pV5T4Atf+EL4zGc+02tpe76uQE8q8P4v/yg88uR8KjYzAaRo1T4sdu1ILrW4jWNSbFoVqyPiZCcoNuGaraWoxCq0gZ+GRx6z+/vol6+0xmYvQVJDDEux6KNCs9KR+A3CA+fD8OA5HewOUDX4FIP70zsAkY9yIEOCs/QoHlvSgMRRRXhxoS04J/zY3hykmbc1johgJybRAg+gqvmIZ4UH97M+cK00KnY6IPbWlAtr6zguRhiOzk3wdlxzejjkH1/Djv7Z0Qr4AqQDp6e/vz+MjMBP/PnhCrRRgTXXXDPgDyH44Qq4Ar2hwEOPzQsHfPVme0M6ZY3FXoOdat7h5jsRVBSXdtbWHW8tdqGMJFxuZzvdya88pTvxXISnOCHMkuc+Mn/A1bbcspE0oN/4WHgq5rUfDSmO2OniQ/GgW2lndlWdUp4pHwoAH/XjxIPuwNTZRZ1TvkxI8MgtzTOP0zQu6cb5N9Y9j9NY3zyu6oeriPzXtxrbUV6mUx63Wf4j854L395/87D8MjNBDT86WQFfgHTY7Hz0ox/1F7112Jz0Kp0rr7wyvOMd7+jV9D1vV6AnFfjshT8Lt/7miTx3XCzAIWuGbEc8MxQ77eNFA/hZR3FRDBTuHBBdxC7diZ8Jz3309U0XwMhPI9C5BJQ2WvNOurobEe4AuxF41wf+3K500AndyU96uUjWBpyLeLEp+BYmb2OL+ZgBgypAbl6JUxeXeVYcBVdPyeIIuyx86Sf2yoebDXmgd6avAmf46aLCACVQfTu625XY5+1Xz14YTv2X1yuInztUAV+AdNDE4DMf+OyHH65AuxXYeeedw9VXX91uGh7fFXAF2qDALvBA+oIhKCF1yx/KSb4zgDVnLFrrdqK1GE7vJGhxHe2b46l9jC9x5c5EH/zULj73wfSqfFr563jKh3jzQMAXri7ExYe08aJ5Pjm/RvjKdzR4zCct0uXORnKHSOOgEPm85POU5qF55nci0F6nG4t5QKYOOzG+xRF8aeNXtKpPPZ6tRfB71ArPdBd8a2u+3F/mPzh/QTj2LWuFN756lTb8t8dDjlYBX4CMVqlJsNtpp53C9ddfPwmRPIQr0FyBBx54IMydO7e5kY+6Aq5AVypwyU0PhP/4wX0xNyxGkwOLTTqsOylaCzv68xurOnUw9+fiGYpJGLaimq/YIYnTBwX4LHjugw6DwUUIFqPiz6PcgdeJP1oY/9IO2lATh4VD8ItXCKiH5itta9qFDvA5vVNDvJRAxgNslX8DHDXAYcaRc8XegIkA6wl5WgDhV2kL30Z4yg/8KH7CQwIpsADpKdrX25V8FcYCSge2k8UGtXBac3+aeIWAMw6vMDgv/NeBWye9ftlpCvgCpENmBN/3ge/98MMVaLcCn/jEJ8Jpp53Wbhoe3xVwBdqowPtO+VH4898XcDVX7lRrUQhVKReDdEHVOxe/3J/vcNNwYS92BZ49M1D0Y2E5Z2Y/qKLx6vxplOPgKkKKVeJleSRFLYwrT5R7YAgfOl8kPJvjp34Up8QXfSwfaDMfiV+MKx6bJcU32cW81A755nGFbwMeiMA6iBu5S/50Z4X9G+ub60artGb6FvnxtOHiJMWBaDV2uU6pfT5f1fwj3j+vPSMc9OZXkUz+0XkK+AKkQ+Zk3XXXDY888kiHsHEavarA7Nmzw/z583s1fc/bFXAFRIEH/zYvHPRvN9Mb0qEs5V47xSIyE0yKUe2zxYh1FBcZHhfFakFnxQM73M2fPRN/8QpHzFHMua3m0lkFFAO0Tot8LnZDGJTFh7Y1jMZDd/LTAGXAoh2bjfmOCi9xj7yVBJxjIOrEJuMmjjzCTtoNhnl8HtZ88/yTRYCZCVDWBjv4xzxtgC/MHC8SvKwfhhq0Y7ddCW7e1vwXz3s+XHbQFvS9YUP/7CQFfAHSAbOBu81HH310BzBxCr2uwAUXXBD222+/XpfBqAVRgQAAFS9JREFU83cFXAFQ4JgLfhpu/91TcCXFIlSVvKjQNp9JLKr6yECacaeai9HYHg8eLz6gtMU4LfhU4wlvuzOQtxFvCH5qF3/1SvGpqGegJF5aNKf55HhlfN3xhzBoOCo8jg8OZC/4lnfOA28h5POS26dxM7wGfqgHx0e+8B88AQ+981LmVz8OKATD+Ua8JvlLfhwe4klbcWJb82VelfyRLy2CFoeNlxkMX3j3a5GiHx2mgC9A2jwhuNu83HLLtZmFh3cFQth6663DnXfe6VK4Aq6AK0AKYOG3y3HXwFvA5Q3pogsX6dpIxJJi2Xq02LYqVke0quU2FYvQJaUqFbtUBIsfvuW8Hx48Vxi7MBgsVqEX2nRWpJQP2bJD2o0MhhfB4gPufthRGmg7iWdFujnBBdlBcQz/qnxwXI0NiDps0aMGmV1SbIM145oBAyo/gc/mB/vMPI8r5qK3ttDeHMi3mo/YpnbYZfB2wYYVuwQf3axZ+LE38eN5HUv+7DHw4gvh5B3XDZvPfZmg+alTFPAFSJtn4qCDDgrnn39+m1l4eFcghJ///Odhiy22cClcAVfAFTAFLr7xD+Gca+6PRSBUi3EnmotHK4ptRx37wc7aUkSDoRXbWHVKO8NLfuUJDfrh53b7YQFC5qPxT/jJFjzlkvOJvOEHr2CBNZTnJ7zRkfyAB/tHvxRPAgBdXSyk9lEvzJcSyfDiOOmFf2NWa6fdUddqXOHbgAcixDyKuKQb+1Ok2vnR/MQO4nA+zePq/GJe+a9v1fOp5p/H1e9Vff7AnmjF/F4yNC+cv/9WZO4fnaOAL0DaOBf33HOPF3xt1N9DRwUOOOCAcO6558YOv3IFXAFXQBTYFx5I/8vTC6nWpNoYtrrpbDvXYohFa3Jw8Q5Fp/aVF0W7cA8z6Od2+8btr8Wxhtc2hkX++J+Fg8M0zHnBJXESYjX8zA69SsJFOzbr8TQxHCXc6IDoEb/ibsRyO25l80RdZp4D6Z8p4Tw1sxNYwDUgsa9vYy/nY55in7bTRUXaD9cGKxf5KepibuZAPUiT54n7F8Mq812vnBU+sO0r1cPPHaCAL0DaOAnbbbdduO2229rIwEO7AqzAggULwqxZs1wOV8AVcAUqCvzhL8+Hg8+4Fd6PoUWj7lzzmRyo6oOyT4pU3mlXe+xOd+7VX/qhXEzHsXicMZ3f9TEd/aCdjmN5ye3G/jje6g7IggH4uV3ArsOHADpAFmn8qn3OrzoOPZQ/20X+jfShhIk/xU3zT+4QaZyx3HnRvPI7EUTP7hxQ4pJ/lCHOn8ZN70RU9SH6NE8pni4uqvYRH9IlP71zUt7R0LjKY1T5v/hcuPxDW4fp/CsGGMKPNivgC5A2TcBll10W9t577zZF97CuQFTgq1/9ajjyyCNjh1+5Aq6AK1Ao8OnzfxruvA8fSNciGi+oKRdcZGsPnrl4hiJbDTN7cTM7htOicja8aHA6LELwKN2sRwZaPqOQAXDRv3BwJIzg318hPlbZ6dGibcN2Ic4N+dhAaUjtanwlw34YhnSBbtVHLQSgaOKirbXu6lSNn/Ntqa8B8UVqTz0VnQRf/OJwHle/Efw90lbr+WqE99rlBsPxu2+mbP3cZgV8AdKmCVh11VXDk08+2aboHtYVYAVe9apXhfvvv9/lcAVcAVegqQJ492OXz10LD2tjaSs797TmwKKRLuAk/dBDRWPWpmEp9tVe7Aq8mX3T6bmPfKd7tP7EhuPw1jnllfIZgF+7GoFfvYp51PNGRy5+03wjvvKTAESwai+LAVtFsF7Mp8TPeWCkaDeauKXuqX8Zt8CjOyvsTyPCN8+n4NdA36hrnh9/TaIevJiCaPI9Uj+0g8ThQ/nncRvrzm6N8AbgZ3m/suv6YaO1X0JT5h/tVcAXIG3Q/4QTTgj4Hz9cgXYrcN1114W3ve1t7abh8V0BV2AKKHDRj34fzr/uD3RHw4rFlHfceqZeLl6hKFSb8kLa6Y55Py4+4MFzPEbrrxGK8FyNamwGhJcMjsDP7eqvejEBqbUTnkZMvFvYaYyCQGwuIV7izrW5dDSJS3aakZknQOA7Nn2TRUCDuLZogLi2hiDbPC7PV4LXgJ/OazUNc2AmUWiOBsON8n/ZyLxwzn5bagZ+bqMCvgCZZPH//ve/h5e//OWTHNXDuQJVBfbYY49w+eWXVwe8xxVwBVyBBgrsAw+k//UZfCAdikzYasYzHXhuuCMuxa7ZS/EJVSIXwdyeAbvws/r7BC7iczEb23FnPPdXPlV7thuCN5zjuz7w4EVPWgTn+FRMMxBYK99G9sJD8ivj22JtDHgcHxxE31SnMs9450l5Ch/hHVcDBZ7xzf2ofKf5JKFQLp4ns8/b9eP6dcDvh8RtlX/CN883z6dl/siXFkGcV5r/ouHhsM8Gy4a93rAe0vajjQr4AmSSxd93333DJZdcMslRPZwrUFXgr3/9a1httdWqA97jCrgCrkADBe579NlwyFm301qDTGT9wddpA3qoeIYiEP7ltnkbx6fPgDed9/HiQ82xjMRDanBtYg/1xxMsHsSOzjQgRS9b0hvd8bkPOsRdhqi41mserxjwsIXFixw/+nG+VT5gYbAGJG6CpwaZnSwOxJ1xzYD8o0DaLMe53wiUwyaw2KVtsOViHs5wTfENrgSS+GUeKR6aFO3YFLwSFgw07ujzVw+Mx7z4YnGYjg+kH7yNdvq5TQr4AmQShb/99tvDtttuO4kRPZQrUK/Acccd538GWC+N97oCrkALBY4+787wsz88bTc8rChssEOudwBgWIp9upAaHqpD+L85M/nndnnnm+3ynW4wb+Bf4mtbCSLOwNAiWITAn15htSs4apfHSe+ECA9wIF6RtrS5n+QiXF0spPZYPIsd+FP8DC+OEw/8laZaO+3O+XE+GrfULeeBCDGPIq4W+ZgHEhiFTqov5s+4yqM+DsHSsyat7Si+8VX7PA7GZZ7pOLAn+ml+7BfzXxy2XHE4HPuOTQjCP9qjgC9AJlH3LbfcMtx9992TGNFDuQJVBV760pf6DyBUZfEeV8AVGKUCw/CnTP/8+R/CnzNhpZwcVLzGti0mtAtrWzrkQk6z4c+u8M+vuOhUGyk2oVm6WU8xUIQ3vAF4yzn/4pU41PhRzY+haWwUdmRrQNiyeNxIm/V4mhiOUvwyAW1X3FvH5XwqjkzNumORTgMGawaaCg8rH+1t0EZvzscM+SLDzxcNmUFmByMlnQZxLRrYt8p/4XPPhbPe9Zowd7UV1c3Pk6yAL0AmSfALLrggHHjggZMUzcO4Ao0VwJ+A3nPPPRsb+Igr4Aq4Ai0UuPD6+8OFNzxAO99kikUhbz1LM+7Ua3GtdxqwPNSd+Flw56NPFx/j8OdFjuKlRS3zGYTF0hA8dJ7aYXWatuv4gUFSRdfjx3wED/gzbt4mIMDTnfmYfyN7kFD0rOBldxA4DgJn+RT5xdUADTCdCg50i5/yZZ2oxfgWp8wvb7Oe9Xi2mCA9lHfuj1+gZvmo7hyH57mZfaP8Vx15Pnzj/f5AOv0Xtg0fvgCZJNGXX3758OKLL05SNA/jCtQr8OY3vznceOON9YPe6wq4Aq7AGBTY+0s/Co89NwAeUARqtZr4W1FoVacOon0I/fCuj5n4rg8sttNDm9KvTYXheOAgA42eUeCHznHxoeDmoB10Rp7Z0aJtw3Yh3gaPdxY4LTpHoqUhtavxxUz8MAzjxMWAWghA0ZQ7Gy3iqlM1viXC8ICT5yOeo8ifAZrrG2HyuDzBySIFwJjHePFy3iMDA2H/TVcKe2z1Chnw02Qq4AuQSVD705/+dDj11FMnIZKHcAWaK/DrX/86bLTRRs2NfNQVcAVcgVEo8JuHnwmH//udsHMOZSFVyUmxCO18pxqKRzLD4nFx6OuDxQf83C4tUmRnHfu5DXCj3qGXYpvixaJ/BN5bgn96JbQIl8pX6kC71K+eN0qQ20X8nDcZUoJV+xjHqvg0zyY8Mj1ANi2+VVfkpwlyXOFrdyoSPTHvLG6BR3qzP42MQieZUKGRznceN30GJtMn0s90rurUeH6q+QN7+Z6lccnO8o94/fBA+n/DG9L9mHwFfAGylDV/9NFHwzrrrLOUozi8K9BagUMPPTScccYZrQ3dwhVwBVyBUSrwqXPvDHc98DRbU5EbHa0o1i7ZuMY3nOObzunXsaiPi2MuEtVYimloilv1ohjQ8Lj4WDg0zPgIV9iVbam1k25xKPwa2illJSDt2FxCvMRdFyEaks4xkDXJTjMq8rBu8GM7JayoSUBGhM9YtEc4u2JH4gF28I95jhLPYOriAkal2xySuBoLzGF4dPmzzz+sNBI+9XbfmIsKTs6VL0CWss74roUrr7xyKUdxeFeguQJYCIzAC7j8cAVcAVdgIhXA5yv++fgfBrjZoFvPBE+LD9uJx6KQd8inw047PnSOZ96pFjZUNULZiGc41J7ORduKYTLHYleKYwSEanXB4DBCJP2CJ3Y4xkVyUlQLP4xH5SvxQUNuN+cj+DX5Mn+OA+FHjUdxE4FSHL0DwnBYbWseqoPw0XyTuPX65n55/sCZaPP8MY883/pxokXzmOM10TPhm+eb59Myf+QL//R7kepel//C554N5+21cVh95WUxFT8mSQFfgCxFoW+44Yaw4447LsUIDu0KjE6Bb3zjG+Hggw8enbFbuQKugCswBgXOu+6+8K0bH8QqMffS4h2KQTrghC8a7MPnPtKj4qeD7GfDBh/x0FJ33DHMQlh8YN1ONTeMWe1NkLkfdaG/BZCeRm1zxwtArrWDYh7+aVzmYY4agM/aTThsSQPSj5lhHCv6qdWabzUfDsd4cG343F+1TwzgspqP4FXyFzwNoDAVOx3Q+IJX+lkY0RParGvuX84D5zM2PdcKL4Sv77O5EvHzJCjgC5ClKDL+rf199923FCM4tCvQWoHNNtss/PKXv2xt6BaugCvgCoxTgffCA+mPwwPpVixD0Rl3qrmIngnPffTDcx+xn4tpbWfFduaPdjAKNaUVl9Qh/lKk4+ID/voKWroIkOK9hZ/Gp5I1iYtScD4pTiyC1Y8kE4JV+/qdeLITXrpTT3hwZ0iqbIAda1zh2+COSI4XeWkemj8RqNG3YscTIulX51vnS/PDvPJne9L8Ip9q/mKn8yH5VXXH/IF9RVfWJeZfxRuGB9IP3XzlsPPr1iJY/1j6CvgCZClpfNZZZ4XDDz98KaE7rCswegVuueWW8KY3vWn0Dm7pCrgCrsAYFbj3T0+HI8/5KRV/6srFOBR/0NHXN50eOsextJ9s0QAPrB6To6FdZad8GvzU7kgYWgQvGqQDcaDIrLGz4eRCam22JgrCw+jwRWaH/gXfsh2H6/FSerH4J2L8oQAVdyOW24lr5FlxFHs9JUU/dhls6Sf2yoebDfNHb87HDAUgbaeLgLQfrhvwiN12Jbh5e/T5A09w1e/JzPnPhUsP2krJ+HkpK+ALkKUkcF9fX1hk/89wKQVxWFeghQL77LNP+Na3vtXCyoddAVfAFVhyBT5x7h3h7j8+S0C8w89FJr5kcDa87yPbmYayLytSqWqkreuKvxbnugMfd7KxBobFBzzfhj+5i3Z68J8NSZFLsEmxXbTr8GkxwQMAqThp0Qx4yU58mm8jPM1/NHgcvyYePTuT96OwvFiTc5FfFJoGMHxxJwJ1hG7xYwPskH5QoHl+deP1eLq4GBWe6S741tZ8uX/J8xc8uH22w8sXhyN33EC/Rn5eigr4AmQpiHvEEUf4rw0tBV0dcuwKPPPMM2HFFf1Nr2NXzj1cAVdgrArgz96+44TrYTEAlSscWGRiYTtnZn8Ghf3ZUWnLqPSbdXkB7RGINVD8wAYvPiA+wCCTCC8AhsNxWvPJHQzPLpSv4CWLK4pvVbfYFe1q/NwOwzCO5pPzSRIkR8TTP0PjjhxPw1tvJQ/Bt1NcLCoPCaQQfK6xr7fL+cfwBiC42E4WG9SSRYdY0CkCFM0ST5zEntFzvAF4IP2ifTcNL11hThrBr5eCAr4AmWBRf//734cNNvDV8wTL6nDjUOCLX/xiwHfQ+OEKuAKuwGQpcM6194Vv/+RPtPjA4nE2LD7wsQZbFEDxp3cOeHEQ21ZswkD+rAAWiTCK/VQ80gX8lQEsPuBPrxBPi3C78wERobfWDwesSG/Kp7QTPMJNecdAOW7ub4Tgguxa8Mj0wPxbxpV4De6INMWjOyvsT5FI8Jx/OW8yIcCqedzsGRDUW/MnP4hW6CCJwqjqlCxCkvnCuDrBrLs1s/kdFV6S/7rTXghffe/rCd4/lp4CvgCZYG132mmncP31108wqsO5AmNTYO211w4PP/zw2Jzc2hVwBVyBCVBgL3gg/YnnB+nPrvDPr6AszFCtWMReGsIPqkIb25ktX2ARi3dcFiWLj8wZGrgYocPC17el1lZrrmLRsfBraMdRop+00Z6PMcY1t9wPW7oIURM6x0DWJDtNoAGPbB7Qs4EdDySLAIqC9ubAPdQGO/jHPM1QxtN2gmcwctGgHbvtKomr2ExrdPmrTx53aP6C8PE3rBLesvHqauDnpaCAL0AmUNTvfe97YbfddptARIdyBcanwFVXXRV23XXX8Tm7lyvgCrgCS6DAPQ/8PXz6ol+EvhnTqRiNO9lYHCY74FAlWg2LF8liguxsJ1/8pI14A0OLwvDiRYSHfrGYFnwqgqWf4sS4mJrdKSE+VXwiZlW04iRx0M/45P7sFsd1xz9W5a3xOH4UKNct5xHzV1zhAwHRL41LuJh/wl/5QTpsjw7mx1+E3D73Jz0zPHGvxcNiX3nmeSgPDh/nS3npuOoO8MzX5j/BS+Z/PPkvs+C58K0D/IF0nv2l8+kLkAnUdb311vNd5wnU06HGp8Auu+wSfvCDH4zP2b1cAVfAFZgABX710DOGIvvL1o4XXIxSsRs7W15988bfhJvufZTtGoM3xKneGWloWj9QiVnpqPfT3hbmdgcB7KnIHqWfmlXPErBF3Kqf9FT88o68VYOypAYt/cuY4pCcVEc9lx5ZW/z2fctG4ZB/fE025I2JU8AXIBOk5Ve+8pVw1FFHTRCaw7gC41fgwQcfDOuuu+74AdzTFXAFXIEOVeCC634Vzvze3R3Kzml1kwIrLjsrfPdz7worLDOzm9LqmFx8ATIBU7Fw4cKwzDLLTACSQ7gCS6bAJz/5yXDqqacuGYh7uwKugCvQgQpc8/MHw2cvuqUDmTmlblVgrx02CEe9Z5tuTa+tef1/AAAA//8Ee9yQAABAAElEQVTsvQegXlWVNrzvvSlIS+g1NEFKUD86SDGjNFH6OEMABQUURwIoEhAcC3FmAJ0ZUMHvG4fi4KgI/y+o/yio+KmUcYBQQgs1oSQkIYUUktyWf5W91i7nvO/t921rR+4+e++1nrXWs0/MWvvc875t66A5a0Ni4LzzznM33XTTkDBM2RgYKgMbbLCBW7FixVBhTN8YMAaMgbpj4PGXFrhzrvtN3fllDjU/A7d84SPufbts2fyBjnKEbVaADI3xJ554wu2zzz5DAzFtY2AYGLj11lvdJz/5yWFAMghjwBgwBuqHgTeXrHLnXvdrN3/pqvpxyjxpGQYO2n0bd+MFR7dMvKMVqBUgQ2T6gx/8oPvzn/88RBRTNwaGxsBBBx3kHnrooaGBmLYxYAwYA3XIABYfj720sA49M5dahYGvTv2AO/EDu7VKuKMSpxUgQ6D5Zz/7mTvttNOGgGCqxsDwMPDII4+4fffdd3jADMUYMAaMgTph4Cv/8Wf364dfrhNvzI1WZWDLCeu7n3/1ZLfeuDGtSsGwx20FyBAo3Xrrrd3ChXYqMwQKTXUYGDjnnHPcD37wg2FAMghjwBgwBuqHge/9cqa75d5Z9eOQedLSDJz54cnuCyft39IcDGfwVoAMks0ZM2a4r33ta4PUNjVjYPgYWL16tRs/fvzwARqSMWAMGAM1ZuD/uX+2+8fb/7vGXph5YyBl4EeXfsztucNm6aSNBsWAFSCDoG3p0qVus83sBhwEdaYyzAz8y7/8i7v44ouHGdXgjAFjwBioLQN3/nm2+6efWQFS210w6zkDh03ezl1//pH5tI0HwYAVIIMg7cc//rE788wzB6FpKsbA8DIwe/Zst9tu9mLc8LJqaMaAMVAPDPzrzx92P7rvmXpwxXwwBpSBGZ843B134C46tovBMWAFyOB4cx/4wAfcf/+3nc4Mkj5TGyYGjj76aPeb39hn4w8TnQZjDBgDdcbAJT+4z/3fJ1+rM6/MnVZlYPftN3U/vuz4Vg1/WOO2AmSQdD766KPugAMOGKS2qRkDw8fA3Xff7Y4/3v4PcfgYNSRjwBioFwZWrelyn/6X/3Ivzl9WLy6ZHy3MwHWf+ZA7/L2TWpiB4QvdCpAhcPmpT33K/fCHPxwCgqkaA0NnYIcddnBz5swZOpAhGAPGgDFQhwzMfm2J+9S//pdb29VTh96ZS63CwLH77+z+4awjWiXcEY/TCpAhULxy5Uq38cYbDwHBVI2B4WHgmmuucZdeeunwgBmKMWAMGAN1xsDvH5vjpt/8xzrzytxpJQbu/uopbvstNmqlkEc0VitAhkgvJn5f/vKXh4hi6sbA0BnAgnj99dcfOpAhGAPGgDFQhwzc+ttZ7ru/mFmHnplLzc7A331sH3fOMe9r9jBHNT4rQIaB7kmTJrk33nhjGJAMwhgYPAP4K4E33XTT4AFM0xgwBoyBOmfgmz950P38wRfq3Etzr5kY2GXrCe6OK09qppDqIhYrQIZhG+666y53yimnDAOSQRgDQ2PgkUcecfvuu+/QQEzbGDAGjIE6ZuD8797jHn7+zTr20FxrJga+dc4U96H/tWMzhVQXsVgBMkzbcOSRR7r77rtvmNAMxhgYHAOHHHKIe+CBBwanbFrGgDFgDDQAAwuXrYJPxvq1m790VQN4ay42MgMfhsLjWihArA0/A1aADBOnzz77rJs8efIwoRmMMTB4Bn70ox+5008/ffAApmkMGAPGQJ0zMPOFN91537mnzr009xqdgTuuONHtss3ERg+jLv23AmQYt+Xzn/+8+/73vz+MiAZlDAycgU022cQtXrx44IqmYQwYA8bAMDGwYPkvXRtgrRM8vEgmZKF6X03t2VcXu/sen1sOQIpgcF2MIA60gV/rwB3sB9k8LMIL6iCRSK3gh8ev7qBYjuOJFXF9YK3gx8DUecPB7FB54Sg4LmKYABF4YA71W5wNJvi7b3eYO/fYKQMzaNL9ZsAKkH5T1bdgT0+PGzt2bN+CJmEMjDADX/nKV9xVV101wlYM3hgwBoyBIgPz3r7XLVr+U9fuOmDRJ8ltkEz2QtKPPfyh5D9OKrOkNawDBCWHoAfypB/1Xd29rrO7J5sHq4DXi3LwR3NLuMB5Nst44h4uED7J5/6xYsE+xEOAnoKwHuwoO4Kf9ZFDpfbjeCke0hf8YnwYTxxfrI/+gaYQyvb65Y/XYuBsP1J7feGLP5X45nWOT+hN4lHvZf804PJ4SuNlfOID4pcbhOx4/L88vae76syL4+2FFWvDyYAVIMPJJmB997vfdRdddNEwoxqcMTBwBubNm+e23nrrgSuahjFgDBgDQ2Dgsdc+C8XGGtfR1uHa4T9OShkwToFpJpvIhgUv4mRUFvELCrt7ULPvhvqak5aI8zIWLR6PJnySCvJaPJXo4hT7x32ZSKl5SoLjFbQvTeb9WIbQBxmRLfbl/kRFCKBIkUbaqsBYkbkScPZB0IJAmGE4Xywo8bguTSz4eGRYIbjCNMkDHhqCRkOwE+R4Rq3BUOmWyahH6ZfemOh23+Yz7tj93x2t2OVwM2AFyHAzCni77767e+EF+5jAEaDWIAfAwKmnnuruuOOOAWiYqDFgDBgDQ2Ng9qLvu1XvPARJHiedY9rHASCmuJgUhicLsq4n4SQfksOQwvrk0uOJXtzjk4G1nT2up7dX7YYqA/2IcCVXFQOC2y//wP9Mnux4A2V2QFxyY06ORT/rkQdxlJ6kZP4U1kk/xBV2jXlXP0vsKD44nMsV7CR+RPbU3cyel0deyE5mX+ypnVI5umWkmmBaYIpLiRQXcUrt9MuPyI7iO/fEC4e7K/72TJixNpIMWAEyAuzee++97thjjx0BZIM0BgbGAH4y25QpUwamZNLGgDFgDAyCgTVdb7hn519JhYYk05g1jmkfC+kgZvyQLOa4nFVydglr2TBIxwua1CMmL2ARsqazm8wGpXAVq9MsTpS0dFqzbDDDCAWcHMMLkHi+Fo1TO7IQ4tFiTZYyw9lQpLRH+5CbZ3wEfOGNn/TEcSoEXVS0ky3gsNiCvbhIwPsgbxmcuMc9CBfWSwG4GGF80UgFy3kJMg8/u7Wb+sGL3O7bbxom7WpEGLACZERode6EE05wv/rVr0YI3WCNgf4xgJ/MNmvWrP4Jm5QxYAwYA0Ng4Ik3rnS9Pa9D0htO1jkLdm5s+/hkPj0JB6OUA/snJDT0yaTmsOUn3XGy2d3D74Mk9n3RQzCQk0pSHuyDMcpVPT7Jez/ibFVO2mXdj9k+kxbsBjsYV4ovwzQePckXfOwjHtHf6u+AsDzaY7eL+ogX85Xj03ogiO2TP15L+UAYwU/tDRWf94XgKY5CPEKn5yfa0AJf/Y+XaVm2fLxbueoE99njjoQJayPNgBUgI8Tw3Llz3c477zxC6AZrDPSfgRtvvNGdf/75/VcwSWPAGDAGBsjA/OW/c28u+48o+RUATnrb2trdmLaxkIuHIoMk4pwYJrKhgGgfJ9c6iVmqb13wQnonvJhe1hC7LwPeW/KTMGgCs3pGLPjP0/pTc3Qvrwv+gvEVjmcl6YcRr0Nyr4qiUQ4Q5FQhuajMF+MW4tEAGEasq514Qosd8FsFUA/3w0+QPMYDF+tkHvtiIw2ShzUaVJCJp0neO+LV5Nf9gh/BnoZXgv/QU7u5r079ghs3Ft9bsjbSDFgBMoIMX3rppe6f//mfR9CCQRsDfTPQ0dHhurq6+hY0CWPAGDAGBsnAY6+dDy+evwMH0nIyzn18Qt22DooQ+HWscPIOxnzuKDm49rDEuWjACXrhCYvYQyBJptd2dScvpcdJp+Brjiz+RvqxnXDSn8aVJLneQJmdYC/TF7u+L9jJ/Il5DP5B1CH31p1L/UjtxjwJXwEPGM/8kjip5w2RjYmKzWg/vN9kBxyR/cl7XBegSn74G8DbAWl0D/HTAGmc44vf1f3g+w/tzJk/we2w2afd8QfvoTzaxcgyYAXIyPLr1l9/fbdmzZoRtmLwxkB1Bi688EJ33XXXVReyVWPAGDAGBsHA84v+t1u1+kHQhOSwkDWmgPipWO1tY8JknNTCLA6rNU5CRS4ksZLMSo/vg/Tg57j6pmb0AhZEXYSgDxo4KQLQo2GKD+crtzg3rizl7Uj1IH1kT5PyHMQ7GIeRi+C4uh8hrr72q6KdbMG7lbkS2UkcCvOikMExQSKG8cB/0VDUQk8ORPefagQRvPLbWAB87PlD3FdOOzsVttGIMmAFyIjS69xNN93kzjvvvBG2YvDGQN8MzJ492+222259C5qEMWAMGAP9ZGBt9zz3zLwvk3R8ki4n0npELyfrkEZiAYIf0RtOskEdskvKUeGSk0056ZYJHguu9CEtTddxfnVnF2Fq8goXkuurvmS1kX+a/MdJs6zHvXxRBUWP/suJf7Djl2girItc4hDrg9+xffET++rvgDB/ymPsp/qlTIBbKV9iJyIo8gelOT5eR3XRZ7uqz5IV8VVO9NEP+CNPNnid4CFe7nkbvD30g9B5XPBXcH3vPc/8EVw2MHP2lu7kgy90e++0BchZGy0GrAAZBab32Wcf98QTT4yCJTNhDFRm4Oijj3a/+c1vKgvYijFgDBgDA2TgiTe+Ai+evwZamBbGySgNcQb+w/SVm4w64H0QfC9El1k9H4qa9nEyqpMJvk9mYbEXMlh8EhI31Cdxby9ew2te5qSY1mgCqyOW1GSZh4Wf7B+IV8VXONaHZJkVKM2HObQvjRyQASt6sSATlvOrcn9iO4Ev0lUFRhLrpbZgsnxd8DksLTqUeFyXJgiMVQFQhCNe/BSpA54nnNEq86fhoSC0Fe+MdUuWfsz93fH2yaXMyOj9tAJkFLi+//773RFHHDEKlsyEMVCdgbvvvtsdf/zx1YVs1RgwBoyBfjDw5or73PylP4SkMD/BhrGcQEfJtcqRPHxPOhUhkCxCVhiffFOSCPY5R/TJpccT3LznpL3oB/4a1hr4jhBxQ/qQC3v7lPQX9VEx+Cd+ejnyMPYPvAhDyolljHRyrlyOFyuSvcyfwjr5FeyF7SrHF740HsRX3kNcBTuJH5E9jTPD8fK0HyX4sR9EUKkfEA3gJ/TqMLWn8eT71C8/nHto1rvd5X/7BbfhemMDhXY1KgxYATIqNDt32mmnuZ/97GejZM3MGAPlDOywww5uzpw55Ys2awwYA8bAABh47LXPQZK4KtKA5DDJGjFLjZbhkpJw37c7LkI02czWE81Y0Se/SZaqyKyFRYzgdvmP55WcliQyv8RWOu0NaRWB8SmsqKS9FyD76UoySu3IknjIPPKL1H4tM5wNBUB7tK9u62zAl50YyH4pDF5kDuCw2IK9uNhhBlPpDK4UX9BSTT8iAC5Owg6hRtpiXl5bsJHbauOz3MmHvjcVstGoMGAFyKjQ7NyiRYvcVlttNUrWzIwxUJmBa665xuEntFkzBowBY2CwDLzw1r+5le/cD+qSFnLyJyfc0msWLCfUdDLttSAbbG+H90EcvJQOMOHkH4c+mVT4Cvio6LPhOMkV+9w7+GjeHtcFH88rSbmsB3WPj3bhT7BPjoFD2bofcyTMYrBP4nLA790TfRn6seDk+OgH8CN+Yl/9HRCWx3g4yS7qIx77y32OT+tgxwOwfeLDazGwBOD9E3FvHx2osh/RBpTiy36JG4V4FF3izfwVHn1fLd5Hnz3A/f3p5/Lm2c9RZ8AKkFGk/Otf/7q76qqrRtGimTIGyhlYtWqVe9e73lW+aLPGgDFgDFRhYG33m/CN55dRAsliknTGyagASNLLYxlhTw0uOqAIgWchMtQU1kskXZxchwW0z02LhzChOah+MlZwV6S0Z/8guaUkGqZpApNcFingq6ZfBzlNnrM1HDK+wrFEpMDraF+aaPixDL1AkBP5tK/MFwMV4omLDIDKzKUTSAsIRO574xHBBOD5rKPvAXn8hS3csftOc/vuagfD6R0zeiMrQEaPa7K0+eabuyVLloyyVTNnDKQMfOpTn6JPaEtnbWQMGAPGQN8MPPnGV+EF77m+AOHkUp4YxCf2FU/UIWvNT7o74PtB4POxNJmVFFZwcaHsxF7sYZWhybTiix3OkvGl9LVdPfRyulY5gltBv6JdL0/Vjc/C42RcknLpK+J4+4X1zB9cl2w/8FCW/KuYF095S3gCxoRf5dH7I2NaVzm4N8LGlOKLPNkp2QfBjYHK9o3jZXsJr8hLMpHGJ/jV/FiztsO9vuA4d+GJH+v7ZjeJEWPACpARo7Yc+Cc/+Yk744wzyhdt1hgYRQYeeeQRt++++46iRTNlDBgDjc7AghX/181benMWRshKMZmk5FKTxFTUr5JUsgIL+CWFDoqQao1gQQBx4iSWZyI/QEBydhL1P3p6e90aKELEzdwRxhWNgEfZNhUFslbea9gpUEGYlsVB6aPsXpPyXNPjYife5SI4ru6HaHLRNtj9ih0oDzeykzgU5sX3QjzZRDYUtdCTA1E8usFBBK/QjYdm7eguOfWLbpMN10sXbTSqDFgBMqp0s7FDDz3UPfTQQzWwbCaNgcDAIYcc4h544IEwYVfGgDFgDPTBwOOv/x184/lKSO79SbRmoeUn0VoFeHk+mfbJsyalYNTnpGPax5MHJEfrMKTsswK+KEIfngykTz4kF6V1kMOX0vF9ED5Jz/ARB/4E++CY97OAL19UQR6jmNiFcLyaX6KJsC5yEJgIJvwE+8Iz9tXfAWE3wXHvbgU+UMAT0n9//PYk+yX4qT0vCTZkvbzHuMk+ykV8c7xMi9DLZkVevOdxgT/B9X3uz7y3NnIbr3eG+9sj7PBN780aXVgBUgPiZ86c6fbff/8aWDaTxkDKwG233WZP5FJKbGQMGAMVGHjhrX+HF8//pDlfEJOkNk5GZZWqBxn41JeTSJqUZeyh4a9h4ZMQP+TJ6GecjIZptM9Nk9kwEXJQmYNeXkqPpuiS3eGkOExgVs+SBfwMQHP0CgEwvsKxNiTLVDXExYHiioafkCH0eNlXK/dH9itK/gVIFXgiMicSofc+CFpYCDPpfsk89tLEgo9HhtiXtMI0yQMeGoJGQypqRJlnZPTwM/u6r53xWRlaX0MGrACpEfmf/vSn3a233loj62bWGGAGJk6caO8k2c1gDBgDfTLQ2b0AvvF8OiXz8ck5TmhSDklgfGKPcqFaieRAg58wJMt6co9rY+A7Qjil9MlldrJdsNMvPyBMgYNLeikdjFQ+iWf/43jVrrcXACG+KFypKaRHgjEe1c/iUZ5kPounsE5yEX9ogBr6UdwHsYs4Gm+JXMFO4kdkT3gUPOkjXvrygwhD+YIfEAjgM2G4P/Ewldd4xL70JX7MemkzN2XvC9xBe2zLVNnPmjJgBUiN6F+5cqXbeOONa2TdzBoDgYErr7zSzZgxI0zYlTFgDBgDGQOz5n3N9fS8wjljthaGkBwmWSNmqWEVrygJ932yki20t3W49jb4eF5p8bpPfuO0NCCzAiatmsQKRtTjMrY1a7vpV5t4lLurWTYsMGAfsOoGiQtoSS/206WQdWtRJwKZ4WwoUtpT0q48yXTAF0eHa7/6jAcc0iKINkZ84r4QTzaRDVNlHJEAFydh4zFebvDqj3vh1WPdF04+WaasrzEDVoDUcAOuvfZad/nll9fQAzNtDDAD8+fPt++psZvBGDAGShlYuPJP8OL5Tf6kmnPxNJnk9LB4kg3zcCLNR9j+5JpOpn2KqFkymJWTaxXHX8bCIgQ+njdKLsWu9HGyWWaf5RAf3fBPXnhIbmECvhqKELVP/skTmkr+lyfTwT7BET7l2rH/YJuHFU7yM/sSJ/bV3wHxyXfEX/An95c8YD6Ud9FXgBK+hI/y/UJ7fe1HX/eD7JfcNrxvyKfcP54/5EnvH/arWrwPztrBXXjCF92WE9cHH63VAwNWgNR4F/CbqV9//fUae2HmW52BU0891d1xxx2tToPFbwwYAyUMPP765yHrW0GZX5xiBlFIWimthp+UC2JyKKuiwWMZFZb9RL6Ov4rV1hY+GSvgKwIAo31ufT05CHJy5eDJDn48LxQh0Ng++O/j4QlMylm+gM/T+jPOiXUyusjjoyXNtmP7oiQafixD9UfkyvvKfDFQIR4NgPEyc+Kg9iru/WGtcD8If8Rnjb4HZMGSDdy4ttPcGR86qJwkm60JA1aA1IT2YPTuu+92J9sjwUCIXdWMgfvuu89NmTKlZvbNsDFgDNQfAy8uvsmtWPXH6ODan0T7E2lM/jWJhWxUT6plXZJrP5ZPl6p80g25LSSzksKiXIfjIqTshFvs9cePBBeo1uQaLrrhk7HWwrelp/6hI2m8Yo/kBMFn4b7zRZiPA2sXMlQBx+MX7GS8RhsAeMIzucf40a2T+pHaTXgC//uMN/EDjOjGSHwpfsxL8FP8DX0MVHb/cLxsL4kH/UkmMvuyX95vtPM/z7zPff0MKKKt1RUDVoDUwXYcddRR7ve//30deGIutDIDkydPdrNmzWplCix2Y8AYiBjo7F4I33g+HdJU+AV6n61j7ldsISulk27MUjVJTKU9DMElK9lCbEY+GQvlCRZ7Ug521UHvqJqPgUiHf2TmSJ0+GQsKkdAifAockt2wWHrVl11RIhxIlgNPsUdoxxcHoiC9dyCWlqW4r+5HiGsk9iv4EdlJHArzIluIJ5vIhqIWehSIig65H56ds6k7aLfPu8P23j7I2lVdMGAFSB1sw3PPPef22muvOvDEXGh1Bm688UZ3/vnntzoNFr8xYAwAA7PmfR1+PellnyPLSbPkzDxOTrIhydQnBNHJviTZdCJOSaLX0qQUjGW5uOAIPr2U7sYU8VFRi45K9gU/JPWkBUlrqAH4HQv8pnT8skJ5MhAJQBgZvnxRBcBjC+sBl1fgp5zMZ30Bn/jxfmb2qr8DwvsSeJT9SnvhE/vgb4ir3B+vleyX6A/sftB9FR5K4yW64J0X7tmst4c8I53e/4K/guv7Z18+Gr508K91G+yifhiwAqRO9uKCCy5wmPxZMwZqyUBHR4fr6uqqpQtm2xgwBuqAgUUr73dvLP03yfbYI8j8KPnzxUJwU4qAOBmVVU4X8xHOUpNlP5ENRYp6/FQsfDFdk1hdRfvcCk8OKgB6c6KmfS9kvViEYLJPjfQxYBmGIkaVogvN0SsYIDiQT5YhWaYiDZJqXoFkWzFFw0/IEPogo8KFi3J/YjtZPKrAUJG5AjY6UL4u+BxW2C+Zx16aIPh4ZIh9SStMkzzg+f1idebvwVnbuvOP+6LbfvONSpBsqtYMWAFS6x3w9ru7u924cePqxBtzo5UZuPDCC911113XyhRY7MZAyzPw+OvTnOt9m46+NSeF7E6SSelRQJN+EJR56fWEOpYDDT7BRjyfO/pe9ORdgvykuwO+pBB/JUvl/El3//yAbRU7cBnHhfOcTbfBUx94HwSKEHxCgA6WPSkQ/wIgypF4aY83FCXHFfCUCFkHh2JeC+skF+whPrcK/npcjQfxq+1XqR+RPeFR5KT3fiMvZfiybxpPqRxEovvh9wmmiL9MXuMR+75fuvxdrrvzb9xZRx3qebGu3hiwAqSOduR73/uew+TPmjFQawZmz57tdtttt1q7YfaNAWOgBgy8tPgWt+KdP6SWOfuj5DpdiEecNFP2qNl4vC5JJPfJisenLBMWcFhsnJV2tI2DNBSvoyzVp6eig+Z1WSajvrCcTXRBEdLZje++wAIktRw4xlcVlh0X8chefok4xRbi0eJDhDLD2VCktE/c1tmAL46iHYpIFVSYLirayRZwWGzBXlyMMIOpdAYn7nEPooX1VN0LcNGD+H95erL7xpmWT+U01dPYCpB62g3wZY899nDPP/98nXll7rQaA0cffbT7zW9+02phW7zGQMsz0NmzCL7x/FJI4Xol506SO8nF9SRbs/zyE29N3uWEGuQ1mYyTXln3yXs1fAQY0wG/MYBAfdhnHBajJDixD9qRPX7HAmABF/U64aN5u+AjeqUICfrhSQ/b59smJNkBN7jn+QFRdFvikx4dSfDRT3BE1rGv/g4Iy6M98T/XxzH7y33peiAk8sdrMbAE4P1L7Q0Vn+NFfhi3EI/w5/lRQeEP+tlzN3Hv2/Fz7kP/a0eQtlavDFgBUmc789vf/tYdc8wxdeaVudOKDOBHRB9//PGtGLrFbAy0LANPzf+G6+5+qTx+yFvjFDYIQbbI1UCU/MqqaPBYRthTyyayoRcq4uMTkA74jhBuuM6trycHQU6usj5zYA29lA6TOA+tgM/T+lNzdC+vC/4ig+dZzbaFXygmVFE0ygGCnCokF3ExEhaET7Tjfx1OFjUAnhDraieeABgVVwHUE3y4JHm240bpe0CeevGv3PSPT+UA7GfdMmAFSB1uzYknnuh++ctf1qFn5lIrMYBfkjlnzpxWCtliNQZamoG3Vj7o3lj2f+hkm4jwyWacZMYn8nKirkksCBbWJbmWE2p/cl35pNsnteAAm5eTfe5jfPl43v76QXEoruCzPc2ZxU/pYWF1Zxd9IlPyxADj8B5KFp7y5OPwSTqe1Cf62biw7vHzd2BSuehJQXTnpn6kdrE40P2CK8EXXlN8KU5EDoxIbaHFR4pPeJ6XqvFGQOpPdP+gHxm9TDP6nwaY8PqXp7d1Zx/5Bbfz1hMiRuyyHhmwAqQOd2Xu3Llu5513rkPPzKVWY+Dqq69206dPb7WwLV5joCUZePwN+J353mXlsUfFSFEgZKV5Uk5JZKTgYfJpTTZlAeVKW+QHJs34NYUd8OlYKQAmqeXJuWAW/Mgm4iFire6Eb0qHHuertb7sii7hUJINV9KXJeWiIL13ADthXZbivrofosnFCCGpQoySspqsZA54txKR4GFWNKjn6Ae3DK5guLAuitKDwIrV49yKFX/tzjlmisxaX8cMWAFSp5uDSd+3v/3tOvXO3GolBt555x233nrrtVLIFqsx0HIMvLzkh275qt9BaohJqU8d/QXnppxESq6sJ+ZRMll24q3JNSjSeoIPBgiQDWoOTNM+ae0DH/3Aj+bFj+itbF/w5UQ/xBfHk78DEvxdB98Nss6tgSJE4qZevqjC3y3Bvg8L+ZMm8Wd9OT/yxAH6SL76OyCQs5ful+xb//gs90f4ivdLcNmu+OklIWpZL+/RTswv3XcQAOMwf0Jvcv8BMofJ+rG/Dz21h7vqzC8I49bXOQNWgNTxBm2wwQZu9erVdeyhudYKDJx99tnu5ptvboVQLUZjoCUZ6OpZDC+efwlih4+ezRnwSS1NwzUN4eCakl2VlRP1OBmVxRhAkkfuBVNrDJgQaexLm3cAk9c42cX3Qdrb2kE/FBmkH4tFgNXxQRAEggzH1+0/nleKtAhOLzlZBt2grGt4gdOBLb8EybhWD14iqIuGl5Uh9EHGr5V05f6IB5DEw58kHlVgsMhcEd37IGhBIMwwnC8WNHJclyYWfDwyxL6kFaZJvs29/MYEt+tWn3XH7P/uEi2bqkcGrACpx13xPmHSd+6559axh+ZaqzDw8MMPu/32269VwrU4jYGWYuCpN69yPd0vUg4cUkegwCeDmpPCWE66pcd0WpNYEJR56fWEOpaTpJfwQu4dJ6ucFPvkOHUA/CzaaYPio4O+KR2KkJJ19gNiggAJDsPL7HO8nCyL/+KHKHZCEdLV3QMwHLfMI36MJzWF9HhDEZ0kV/RfeZL1mK8MOMQH1n08iM8t81/wfM9+Bl41zmhdAiE7iR+RPeExw495CX5WiRfxIb7UD4hEbkSxA1PEXyYv8Tz54hHu8o+f6TmwrhEYsAKkzndp3333dY8//nide2nuNTsDBx98sHvwwQebPUyLzxhoOQYWr/pv9/rSGznnhOgxySttnP2RXOk6TRaT8hzQw+TTkl2qA+V+hKw0TlolW6UiBJ6EUBJc0RB7X1jOJrKhD5ntr+3scd34+0FlzStizVCtlS9H8QFDnMx7FI8rxGXDgqm4ZgmLAV8IH9l3doK94n4Fr/CqEE82kQ0T5Yef3dqddvjF7j3bb5rM26C+GbACpL73xz3wwAPu8MMPr3Mvzb1WYOC2225zZ5xxRiuEajEaAy3DwBNvXOzW9S7xJ+kh6aXUMc769KQbkkWYlxNrSf6xj5NMXQc9r8DrKAfsMj4B+exT9EWcx33hix3s8R2JjjZ4H4SehAge9myQ/EvsA7q6J9+zkdqXE30uathfxMGP5+3thS8qpEj4dgnxB1wOFMW8P3BJ7sjY92Ed5OCP2Mvj47Hgx/vF+Ggv3p9YH/1jf7kP/gJO5MdI7ldEeOn9kMbH7ibxCH8QKPq/tnuMW7joFPeZ446EFWuNxIAVIA2wW1OnTnW33357A3hqLjYzAxMnTnRLlixp5hAtNmOgpRh4Zcl/0IvnkiRjWlq1gUCcwgZZKidoGJJFWRUNHssIe2rZRDb0QmX4sSSuS1tHL6TjS+nUYjERgR6nS1smz3LBPhPQBi+l98JL6T0FCI6fi4DCIkxk8CwCyT8l/bqORYg00fBjGXqBICfyaR/2I5aUeKJiR9Q0AJ7IzKUBeLcj9z2K4MOQANjOSHwPyEOz3uO+MvULbtyYDonA+gZhwAqQBtiohQsXuq233roBPDUXm52BK6+80s2YMaPZw7T4jIGmZ6CrZ4l7Gl48b2vr5pNofwJe9ms/mpNCMikn5dLjiXqlE3s6cZfsNMYHwMon3ZyLSworTwLw5LzsxD72Q7JjlBvTjr+K1a7+sn58/i/SbE+KsEp2SNMTIX7IS+lUPJB/yI/3P+sr4ar/eXwZrzGw2I/3Jb5h43nBlz7ZL9g54VfXq/oBVsLG+LCzffF+kx1wRHDzPgYqu384XraXxIP4fuK1BRu6bSec5z528B5x+HbdIAxYAdIgG/WNb3zD4X/WjIFaM/Dmm2+6LbfcstZumH1jwBgYAgNPL/im6+56nrNwwCmcdOfYXgBzv2ILWenIvlMAliM/JKmNk1nxDcXG0Psg7TKV9B6G4Gghm0iHIT5xQIqATnghvasbfxWLW5wsy1xZj/hxUUHZfJTda1KeK5OieMF9LoLj6n6EeEZ2vyI7iUNhXnxP+cYA4D8RKw5J7bHZH3BX/O3ZdG0/Go8BK0AaaM+22GILt3jx4gby2FxtRgZOPfVUd8cddzRjaBaTMdASDCx553/cG0tucD3rev0JteTC/kQcWKDczyeBnDvKSbckt/4kWrNEWU/7OMmmpB3kNbfUpJQN6hAEyooLSfrLerQT8OVk37mx7eMYHAIK6yG+8MSi/++ASHYvfqyF7wfBl9JlHMehN5T4l/Xl/Ij/6RME+x4Q5IVrk8dmb+VOOOgit/dOmyvFdtFYDFgB0kD79dOf/tSdfvrpDeSxudqsDNx3331uypQpzRqexWUMNDUDT7wBX9a2zh9maTXAIeMwabKOk3BNQ0rmYylJC2EdBLh4kPUYwOszFAvIMvbQsiFPxj9JgIsNX0bAKtqXJgiC1Qa/jgVFiMePpeQ66UUd+qAi8cU9aJEMFwmr13bTS/ClxUdkIIIPs1IFaXrNRRoLiIYXlyHZDhCVrsr9CXEUnrSoQmodzRaa90HQwnqYCfdD5HiV/errBkCUdeva3Jw3TnJ/97GPBJN21XAMWAHSYFt22GGH2cehNtieNaO7kydPdrNmzWrG0CwmY6CpGXhl6Y/c8pX3YJWAmRz1yck9RI9JHjWfM2pOSuL+SYM/ycfkX5NYEJQnF9KrnVgONPjdg+AG5qRxssrvoogc+1n0N9hDP9jz1D/0w+HnYsE7IZLckh2UjmCDeqYPC/mvKQW+gn2kCosQbDGu0Ezz8EN4yXvlyfPav/gj/tAAtcx/wfM92iH/MS5wdGB+RPby/YpxPdFl+GJP4y31AwIJ28l8whRyjLw8OGsXd9nHv+g2WA/21FrDMmAFSINt3cyZM93+++/fYF6bu83IwI033ujOP//8ZgzNYjIGmpKBrp6l7un58OK565JsjnuIlpM7HRbj9wKYXFduxWSdgCOFinayhXIzISuNk9skW/W2FM5f4NcUdsgnY4GMrotv2UQ29FLBvlQZMR898GtY+OtYmDzH82Ii7hG/2AK+FnUilDmUDUVKe7QPNUHmR8AXBvLiavT2S12li0I82YQM31yyvpsw/hx38qHvTQFs1HAMWAHScFvm3DnnnONuueWWBvTcXG4mBjo6OlxXFyQy1owBY6AhGHhmwT+6nq7n6FeF2iE7xXcK+ERcklX/xAGioVRVsj7q5cSck1o9yWZJ0oiLAl2XLDg5IRd8ts/VwODwxQ729I4E+KPJO8TH6xxfmy9CNCwxT33/3wEpi1P86O6BIgS+I0TCDvT4+IApsi98+J73Qfj3vfrPcVR/B4Tx0R5vq/CZ9p75mu2XEiPx036F+yHeL4wjj+fR5w5yXzntHFiw1ugMWAHSgDu4YsUKN2HChAb03FxuNgYuvPBCd9111zVbWBaPMdB0DCx95xH3+pLvuF5Of0N8PsnDabys2ryMnKMH2TATkl9ZFQM8lpHayiayoQcpw48lcV2azPNYklgJrgM+Gau9rV2GohR6UcceGnfBPk1gdeFbKEZkxrn8k7HCii8+YMLD8xLikaOyDkWDKuFVsMf2A0CQU4XkIuxHLCnxoB0perwaK6iDYl214wnvduS+BxF8GJI82xnq94DMemlzd+T7L3L77LpVEqMNGpMBK0Aac9/ctdde6y6//PIG9d7cbiYGnn/+ebfrrrs2U0gWizHQdAw8Oe8St65nISTf4cmHPyqHjk/Yqfcn0kSATzY1J4WxnPRLj8mxJrExDthBvNITb5ULy+Gkm3NxSWH5XRHGSfz0+LEfkr6XybEf7D9+U7oUIWTHx6nJsvoXeME4S/kq8QP56Ozqdfg9IbBManhR5pf6n69nvCpQIhfxF92xKe2pXYxD9wuuhN/++QFGwsZ4OlJ8eXeF7JTwqHYiIPUnkpf9QjGJ54W5x7tpJxwfRWqXjcyAFSANvHs77rije+211xo4AnO9GRg46qij3D33wEut1owBY6AuGZiz9Mfu7VW/xq/lC09A4qQbvM6GxTi8ACaDxRayUkwmKUuVrDGT96skleBkC5laEPVyDM/Jb5IVe8kMjgP0a5gE45MQTpbLFVL9EJ8wFYqJ4Fp8hetr4FexeuG9kLJGs+CHZtdEbLCjSXmu7OFS/3KhDLawnNoZuf2K7Oj9EHuO69ziWZrJJh6YtZO75OQvuokbricq1jc4A1aANPAG/uIXv3AnnXRSA0dgrjcLA3fddZc74YQTmiUci8MYaBoGunuXuafgG887XGfy7gc+CemBpJBPpCEFhVyQkmpIyzX38xecO8pJtyS3xeQ/JOWCCwBRkl3El3Wgm+zH4v3D1xN1sBPw85N9wWV7GE9HWwd+NlbkXv/fAZGioTReDMS3nt5eeB8EfunNJ9+l8qX85P4zn9XfAeF9CTzKfqU9Ee13uP/+eC0fB6sL7sDuh4HsF9ZuSM+S5eu5sevOdh8/Yl+h1vomYMAKkAbfxKOPPtr97ne/a/AozP1GZ2DSpElu7ty5jR6G+W8MNB0Dzyy8xvV0Ph2efGh54UOFJI9yZuyh+Y4HMiE5NSySOIwxFw0NBXiCc1RMTmWVNGSg1gvLfkKkdV01/QUJcPIbHBcHUUYQvEcyLAFsxyIk+mQsshDJBxWJL+7ZFD2poOKHtAs/8New8KV0aRG8THGWTYQF/GBbNLy4DKEPMgEqv+L9ANlEOLbjix1RVAWeiMyJROi9D4IWFsIMww1tvx5+dj/391M/G+DtqikYsAKkwbfx2WefdfidDNaMgVozcPXVV7vp06fX2g2zbwwYA56BZasfgxfP/5WedNCvX0E2WP0dkJDSE4TPPjUnhbGcYEuPGvrrQiAo89LrI4ZYDjT43YM0946TVXmXgOXIMGfR8qQj64PnnOyKfenZD4gKcmOyA5cY3hgoQPDTsXCeJjJc8SMoluOrHQBSPticvpROdOb4fqw8yXqMk24A+C88g1c+HjDlWx/+xfiKI3glPCd+RPaER8GT3ssjX8HPgK88qeNlchCK34/Zr27qDnnPRe7APbaRAK1vEgasAGmCjZw2bZq74YYbmiASC6HRGVi9erUbP358o4dh/hsDTcHAk/CrV229CyAWfveD3wHxoVE2DNfY+05ycJ7Jfnp5zIUrN06+KXvUpDmVzsyGxWyh3Ix4mCatmq1S1sqQCqcXwRRexdNj6H2Q9gCTrQfNYJ+rGPQjrJZdyXInPAXBpyHSZF7G3Af8uIihtdhhmMiGKQyug4Dm+Loa8AUB7dRmv9QpuijE4ydmv/IRd9FJJ6fCNmoKBqwAaYJt7O7uduPGjWuCSCyERmfg7LPPdjfffHOjh2H+GwMNz8DcpT9xy1b9l754nj8BiZ+EhGTVP5mA6ClVjbNCOeGGBZbnIiBk7WlRUDjpFn1AVlg1jAZFf2D4Ygf7vr4HJKyTOY4DTKM/Y9vHwRied2TxyROQ+ElM1ZP9uAiC+Ng/tNcG35TeRT5S/Bqv51HGxI/fB9VnnOrvgAhOyl/MD/pd6/2KCAa+8/st5su5B56c5C44/hK35cT1wW9rzcaAFSBNsqP4BASfhFgzBmrNwCOPPOL23ddeFqz1Ppj91mWgu3c5vHh+Cfxi0RpPApYTDt4DwSZJKA3CEKZxpWrzMlScJIJhBnNcSbpZBFHZPo5lhD21bCIbeqEy/Fgy4AcLHj4W82hxJ8vo4xgoQnIHcT0k7XBJCsFeKEZIsPBD8LFHbtbAN6WjDo61SdUDEyzPRRqv84zKytAD+E6X84uwH7Gk8Il2QhFAuqzAjsBEZi6dABgVj+Fpv/0EAbCdgXwPyMp3xrqutZ90U6cclIdk4yZhwAqQJtlIDGPPPfd0s2fPbqKILJRGZODggw92Dz74YCO6bj4bA03BwLMLv+W6u2Zpdogn5/kTkMJJdHIC72nw2WecZJadqGsSC4KFdUmuY3yVw2KF3cScNbEDLrB5OdnnPseXcSgSyuXYEICKnQwfcXARi5BQVIR4gmI5fuyH8sHmkrhwL1ZDESLy0qN/iV3wRXESYmI58Er4A1vSUvFYnhlVXCk+QKF/foAFpCm5L1J8eWKEgkk8WXwxkPoT+fE/z+zjvnr630lI1jchA1aANNGm4qdh4adiWTMGas3Abbfd5s4444xau2H2jYGWY+Dt1U+415b8MyV/cZKH34DO74BI9gjUSDIJl36W+lLSRA37QhMgSDoFSbPgVLiinWyh1AxCeTmG5yQ3BIJ+cMvgWE8WoS+s+7V2eG7UAS+mp+shPtEMyXUEWnKZ4rDhbvp4XvhkLKkepNcNYR45mc9AERBaAZen9afS7+V1gS5CPCO7X5GdxKEwL37F8bwyb4J776SL3GF7by/L1jchA1aANNmm4veC4PeDWDMGasnAxIkT3ZIlS2rpgtk2BlqSgSfnTYcXz+dTcqtPPiBdzZ+AtPr3gNCJP3zRBOX+cKfE73hQEdIORQgkzXKiH6/DAvEbipDoCQIVEXzrhfVQa0iN0QUvpHd2p0VImT15MoF99XdAoCjxWTy7V/4EAiOV8iX4F/kvxRD0wR+v5ePm6kfw2a742Re+yiX4nmfAx/WnXjrKXXLKx1vy728rBW0FSJPt9pw5c9wuu+zSZFFZOI3IwJVXXulmzJjRiK6bz8ZAQzLw6rLb3dsrfxVluxIGfwpWnBzKSn6UXjgwl6NpVIBrGkIOS8mugkhSGyejshgDeH2GYgFZxh5aNuTJ+CcJcPJbGo8iMJYOPX4MhdcFex4fn4K0QdnGTeKLe1amXx+iZNqLZl05Puvi94Pg0xB9EhIXB4ojCH5ChtDjZV9Na4ZEOMShv/4kQKrAE5E5kQi990HQwkKYYbj+79dfnt7GnXv0l9x2m28U4OyqKRmwAqQJt/Wyyy5z3/rWt5owMgup0RhYsGCB22KLLRrNbfPXGGg4Bnp6V7hZ8OL5mLY1dHIdJ7X661eQDcaffkVVhJxE+yQ6pI5Agc8+NSeFsZxgS49FgCaxICjz0sd+qBxo8BOFNPeOk9XBPXlghyuf7ENMECDZ0fDkJN8nyREfHfDxvO3wB/0Oiqm8xCl9wgdrCc3UKx/eDhYh+I3p+Xz/4g9qYMq3PvyT+HDfqu1XLNef/crkiYcSfOUJ5D0h6sfarna37O0z3Sc/fJgEY30TM2AFSJNu7oYbbujeeeedJo3OwmoUBk499VR3xx13NIq75qcx0LAMPLfwn+HF88c5p9MopJyw7wGhGkJ50doqn04X2tqhoBsbaQU+iWhKuqPlkkssXaj5GiY3iL9WtQaKECwGMGkXB0KxxuqkJ8sqxdJeIukQTnN8XRGA0OfFVe5f7JXC4EW2gMNii+xExQjHmUqj/l+e3tt97fQL0wUbNS0DVoA06dbecsst7pxzzmnS6CysRmLgvvvuc1OmTGkkl81XY6ChGFi++kn36pJvcxIrWSf0fb0DguuYpYZk1T+ZgOgpdYyTTJLDJxyQe5Ian6B7SdLo/4m64LN9TmblRH5g+HKijj29I4En+/BH3tngdQozWucxxQGec5g+nhAg8dnexi+lCx7zhTyIv2nPkfHtE/hAe4IvBr0eeIpfULi2h4uQ/MmH6GFP8RGO+B/vV8CP9yfWLxQ5IFhYB3y5Ich/4pOjIn1ax+2WuEXc2wd5YTTEH+ygXhn+G4s2crtscZH7q/fvwOTZz6ZnwAqQJt7i/fbbzz322GNNHKGF1ggMTJ482c2aBR8Jas0YMAZGhIEn518OL56/wdiUTfskT61hUmjfA6J0RBdcfHDKTNMZfzjE90GwEEnWeURFCifxfiLryvFBCBd8h0VHFxQg+FI6y0Myz8sqURhG+rpWchEXI2E5KhLAEhc9fpUVMv90yBdBXWoJ6ov4MEMBYTxwAV/0GACCNF49+eJfuUtPnZpO2qipGbACpIm394EHHnCHH354E0dooTUKAzfeeKM7//zzG8Vd89MYaBgGXlt2p1u28u6qJ9n6JASSy+rvgOTJKNAAOaPmpJBDFk7MQaD4xKGPE28AlKRdDsQLdsA05a6I7x0oO1EXf/wZPTlcJscn71E8Gb7i6Mk+25V5eR8EccrwRQ79UD7YXMJfIU7Bg4W1Xd2uG2Il/Bgn3YDIPu4H7w+Y0paKp/6m/vn9BgX1X/yRPvEDTEQ1BNtJ8eUJDtmJcAVf+hho5uwt3dQjLnU7bT1BY7CL5mfACpAm3+PTTz/d/fSnP23yKC28emegvb3ddXd317ub5p8x0FAM9PSudLPmf8mNcasoydXkUKMI2aK+iO7TeumoB3lO9rlX9fjCC2DSWWzBDp10oyOcnRYAK9rJFkrNoGEvFye/cTIrvmVwg/SDiwnBx/dB2uC9kDS5FovlfV9+iJbEyy+lI4u+OBAB6b1gAVfWfa/0C3CyPlr7FdlJHIrmwa/5C053nzp6SuKhDZqfAStAmnyP8VOIttlmmyaP0sJrBAamTZvmrr/++kZw1Xw0BhqCgecW/avr7pzpc/30JBqPxvXJBySz9j0gWBNBNk4n+9gBXxW+B0SKp7InEWM6xrk2/FUieUKQ9VicSAtPSkicYLVIFD2Y0GID/YO2Gp6E4GXQ5ycU1d8BQXlQBvMcZno/lD15yPFxjHF5ALZP/nFUYR3tCL6I89hLkiNl+OqH1/+fp/eEbzz/IshbazUGrABpgR3/xje+4fA/a8ZArRl44YUX3Lvf/e5au2H2jYGGZ2DFmqfd3MXX+OQVkkCJiJJQn0TKHCSR+AQkTg51KZ6GScURAVnHMVzTMIfHrNdrhuS3DMDrq7S/COqMH68LjPTeAUqG1S4CSAsO41VfgCJNsiofAuR1LhKQP7Q0pn0c/EQZ/J/8+hIqF1s5Psh5g4V1WMJP5V2DRQjBiYTHliH0vO7nK3RxTRFEMAoG0uJHFlWBJyJzIhF674OghYUwE+6HGAnXnVu4dH231UbT3NH72b8JgbvWubICpEX2esstt3RvvfVWi0RrYdYrA0cddZS755576tU988sYaBgGZs2/AjLV1yglLjtp1pNskNBfv4JssPo7IKFEISJ8zqg5KYzlBFt61NAkFgRlXvrYD5UDDXpXgPAgFU7s+JP1DFdx9OTdy/lx8DydT/2AqCD3pXjgks2m8minjM/43Qa8xiKkTC7hg82xPW+3YhxZvD3wdGYN/Noq8xQRlfgH1gSXNgx/VPBfeBL9CnIKGMv1Z78y+f748fjsw91lH/+Eem4XrcWAFSAtst+33367mzrVPmGiRba7rsO866673AknnFDXPppzxkA9M/D62/8vvHj+88TFuEgIC3jSzGm2FiGy6JN+WlYplhaRpPfyVCwkC/EAkl9vL2Td8bp4U2KnxJ9UE0chnjj5j+dFR+H0Qla4rzCdORjFI3H5Hr+gsKN9LIWZIqcjtEOtgsF0OsSHwF3w8byd8F+ZfqrHIvHPvu4HCbRW+/XUy5u54w+81L1nu01jt+26hRiwAqSFNhs/EQs/GcuaMVBLBiZNmuTmzp1bSxfMtjHQsAz09K6KXjzHJw6QSkI2mp7000Sf74DgOwUIEJJV/2QC2KFUOM5y5YQ7t1ehKCjzh4oGPHlXfLbPE+hHSTx94Isd7OkdCcKXJyyIF+IL6xQ2xw2+sD9sPyLU+yN+QQ9PJeJ1KEGgCBmTyDFzfHuFIgnVBF8MetzM3xgf9bEA6YaP59X4onhSPgM+76fH93bVfh985vb5yQ9HhfZ4HTdQ8LP7r5/4r87/G3fesUcxUfazJRmwAqSFtn3mzJlu//33b6GILdR6ZeDqq69206dPr1f3zC9joG4ZmL3oO66r82H1j5NnTqJpkiZ8laBSWE7Y94AoHdFFX/zxOiTboWwCbeYTYeQ7QjA3L2vl+CDp5VN8QUB8XsGkfy0UIPgrWdR4OtEXrbI+LkbCeoQPdqTIYHwwAMVF6p8OxS3ttSbx7rENwYcR+ev5898D8vAzu8KvXl3qxo7BTxSz1qoMWAHSYjt/7rnnuptvvrnForZw65GBtWvXurFjx9aja+aTMVCXDKxa+6x7ZfHVkNTxr+VwLion0Wkfn2TjyX/+KVjxOp2ky4k2pKOaS7IBflKAOSmM5SRdekzG9d0OEJB56Qt2UF7lfK5bZgd2gKdZHnGCXokdwBWNMjn2A0QkDpVOcSva8XFSvOo/+0HfEQIfz4t2Ez7YnOeN+VP74ofEFeGLgsTRS++DwJcU4tvpIk89DUkcTGlDN2DZw2TxeTtcdPjiI4onxffrsBP8LgqYCDSX4gsuCor/cb9s5Xpug7Gfdx87cA/11y5akwErQFps35cvX+4mTpzYYlFbuPXIwNlnn23FcD1ujPlUtwzMmn8lfOP5q6X++dyXc3CVCNlieAdEsn0QkmW49LPUq3p8IWrYF5oAQdIpSJoFp8IV7WQLpWYQyssxPCe5IRD0g1sGl/GiMMV4E8UoHjGc9eIHfkcI+yEe9M8PkS7ES35APH5je6D4WANPQsThxE0BiXqlvwCMQqO1X5Ed79DM5w5xX/6bT0We2mWrMmAFSAvu/Le+9S132WWXtWDkFnK9MfDoo4+6ffbZp97cMn+Mgbpj4I3ld7ulK+6M/JITZs5R5YmD9HiSrU8+IGvNn4Dgp2H1QFLI8pCSUq4rJ94+RfVZLueO5faSZFbxBBcAwlE8n4jjyThEQampT0plQoekxvb6wo/jpZN2wpcTe/FD3GB/NB54skDukT/eXqm/Aa8QD8ij3fY2eB+kbYyPjLcpnPyLfQkce9aTJwb8hKGEL5GDvgsKEHwnJPDk/RJYT6zGBxfCj/R98VmIr+J+ef/pvsFwPH+8s+RRiJ/9eG7uJu7D77vUTd5xc1i31uoMWAHSonfATjvt5F59tfwkrUUpsbBrwMDBBx/sHnzwwRpYo8md8wAAQABJREFUNpPGQOMw0LtutZs17xJ45XlFwWmfc8rBuD/a91mhStv3gASClBS66Is/XofkWqok7RknJNkuKkKCjXJ8WMcF31ExxkP/U2YkyUf73DqhCOnGT8aCCZlLVLNBKFbihQgfULgI8uuqwGO0IdIxAl17H4rrYSYuhl55/RR3/kc/UoCxidZkwAqQ1tx394tf/MKddNJJLRq9hV1PDNx2223ujDPOqCeXzBdjoK4YeP6t78GL53+JTr7ZPU4OoyQ1OvHWk2xIH/XXr2DdvgcEEncgTlJkefKgJ/jRE4dQXEiS7tNxzqrpyYfoSY8fzdtGz5u4aCA7aA8uUE0vcjugFb9Lg3KJ/Wi8prObnl55NxhX79jKeoinuGgPxuK39AX/Er+C+zBNdkVPey8Pkgn+o8/t5C4+abpbf7y996db1eIXVoC08A1wzDHHuN/+9rctzICFXg8M4DtJS5YsqQdXzAdjoO4YeGftbPfyW/8EfsHv/1dplZJRPiePihDB8Lm0HKNnQ5EKvRdAO5UbJJ0EqNkpm48UKtrJFsrNUDoPaGlyi2OJU0wpnF7ICvcVpgMMORDFI3FlfRnv8slYaIlg5ELcZBfoZ+qHCECfAHs/sIrxbTUUIfixwIovC75P1HUtwvdxjMZ+rVoNRVnP59xJH3ivemIXxoAVIC18DzzzzDNu7733bmEGLPR6YeDKK690M2bMqBd3zA9joG4YeOrNv4faY44/mJZ0Fd2TJFxyVR7HJ9h9vQOC6ygfklU56fcpvZijvoK9KPnv/4m64LN9zoUHh68n7xAHxpO/U8HrFGa0zmOKG5jkMIv8FeLBj8LFIkB5K3mCQHw4+qZ0BA72BV8M+nhxH+GPPInpE9/bRxfegSIklBQBn93z+LS/wU/wSBxInlAIjwX75J/X8nEzYYIvdHj7JfiPPrc/vHj+GbBrzRgIDFgBErhoyasLL7zQfe9732vJ2C3o+mJg0aJFbrPNNqsvp8wbY6CGDMxb/iu3ZMXtmhOWucLJMyfRtE4TPklWBUw67XtAlI7ooi/+eB2Sa866QVM0GERzcpxOWhsUIfzJWJLy07Koe3keCr4AiIYk+bjumxiEYQ+8C7Kmqz9PxhhHIJIiBJAH9A5I7L+/zaQmK+I798q8Ce6g3S51/+vdW4VluzIGgAErQFr8Nujq6nLrrbcenYS0OBUWfo0ZOOWUU9ydd8af8lNjh8y8MVBDBnrXraEXz8e0LZcD96RH1zR5haRUTrCl16oFskN9EgJy1d8ByZNRMJIlmYIvPQrEJ/gyL33sBz1RQHn1F7Q9fsFOFh8KBr2SeBHAM1Imx4aieFQ6xa1ox8dJ8ar/JX5EAWFiP6Z9XLpvlfiM8EWhLA55wiPEdcFTmc6sCAH3ZBn6LD5vR3Coj+IpxB/LlxYfKb7gCk8vvnqC+/zxxwPb1oyBlAErQFI+WnJ04403ugsuuKAlY7eg64uBP/zhD+6DH/xgfTll3hgDNWDghcXfd51r4RPifNKHSWW1RuuSg6ugTMTvgAggCMkyXPpZ6lU9vhC1Uj8ECJJRQdIsOAapYidzoNQMQkV+SHIdAkE/uGVwrCeL0BfWZS1ZiOJJNKJ4QV5rDsGI+jb4gkL8jhCEpaYXMlFhmvwAO35jiVc0VNLWQgFCn4wVrSn9pfYi/yUuVYhA4JLc8H2yki2UmZk5e3t3/nGXu4kbjE9UbWAMIANWgNh9QAzstdde7rnnnjM2jIGaMoD34VNPPVVTH8y4MVBrBlZ3vuheeusfIPvr8ifYZUmunDxzjirJuPSYFeuTD0gj7XtAkCdIk+mJAHbA3zB+D4jyTlUd30HyBKMdPkC5o32M1BI+q/f7lzxhYP+qPQFB/3Ud/W9HHOewCMFfyULzHKbcH2lPAr6sEP/iPsEHIH6i4bU8f6wuuKk9we/q7nCrV33G/fXh+9b6r5PZr1MGrACp040Zbbfw07DwU7GsGQO1ZuCGG25wn/vc52rthtk3BmrGwFNvfg2+8fxlsq85X9kRM0jgtJxnswJO+CyUJvAHPwEJkqjhWwZQMCPrKA7XNMzhIw9C8psb4LHAYU8tm8iGIhV6EuDktzQeZYR91aEaDFB4VbDn8SmL13Wwl0gG/kLynuLKSPDb4UsK8csKExjF976KkvIpST7a901uCBlCj970QjGC74OgP3ET8XQaNdgz/fU5UVIFnhD/U1QvDJPl621u5uz3u8s//nlBtd4YKDBgBUiBktadOPnkk93dd9/dugRY5HXBQHt7u+vu7q4LX8wJY2C0GZi//Nfw4vl/QlYZJZ+QFPIJO01LbuyTvzI5SAu1CIl+/Qpwqr8DwsmsJps+u9SclGBTe6ihSaz6Kf6mfqgcaPC7B4mb6cl9hqvxlPLiHfWMhKIg9wN20xdPIQXP4qmAH7/b4B2lZF+efOQ980LmRBy+KR0+jpaKEOYl8bMk3mQ98wv5oCc4+ATEPwnhl9Lxm9JD3AW/BAftlcgVeE78qrJfEe5rCzdwe0+a7g7cfZvR/utj9hqIAStAGmizRtrVV155xb373e8eaTOGbwz0ycC0adPc9ddf36ecCRgDzcRA77q1btb8L7kxblnhaBlT7GotLhKCXEiz9csIZTHO2WEuG4pU6L0A2qncIKkVJHUola5oJ1soNxPiiZNnn+aDIVznpnB6ISvZejqdERHFI3FlvYZZ7rCis1wbFyFlfpJkiE+rFiLc+wFJfqUmfnR19zr8tnQZk7oqRfg+jpHYr9mvfMRNO/EUtWoXxkAZA1aAlLHSwnOXX365u/baa1uYAQu9Xhh46aWX3M4771wv7pgfxsCIM/DC4v8DL57fD0kwZLNyokw9DenEOiTZcoIt4jyOT7D7egcE19lOwE9/5x9C1py1gr0gQP6Vnbgn8YC81gSaJaOdweHH9jAeeVJBPY4j/sK6xBuFh36pP8KL6PsenjTE/MZFkPjBiHyrpHCM3w4vpeOTEI2X+PB+pwp98+mffKiaH/NL6VBawIL4JX0ccek68DWU/Xryxa3dWR/+sttiwvoj/vfFDDQ2A1aANPb+jYj3G220kVu1atWIYBuoMdBfBo466ih3zz339Ffc5IyBhmZgTefL7vm3ZsDryl0QB2b93DS5xKy9pGkyL2s04ZNImfN48IoyNNHwizKEHi+rNi8jNUmQDTPsLybbsooXUTx+VFj2EyKt6wRThh9LBvw8PvIjqItT2scoNEkToOAD4HWIR3kTDYbgeFVcceVCpLGnBhf4Lgh+Wzo2Xhd8moIf4jAXLVQ8yJIYlLHvY3xUX9sJL6X34q9jAZov7oJKhA8eSNFJ64LvAdk/9pPX4WdQl1pF6HKLl5zrpk45KJiyK2OgAgNWgFQgppWnb731VvfpT3+6lSmw2OuEAXwn6Xj7DPk62Q1zYyQZeHrBN+Cb5V4AE5Dd+SRQc0FKInVakz1ODqMkFRQ02YxOsvVJCKxXfwckT0YTd7xbqT30F5Pz9IlDuR904o7y6icmxxxXFDbbAdNxfCgY9AK+xosAXqNMjg1F8ah0ilvRDvpdBV/9iALS5L1k//BTseAXssCctx/he6LL4xU5sYP6+ZMQNAxtNXxTOt5DMR/JfkE8+b4V4vf2WA5AA83ezcDfzOf2cpd9/GKybT+Mgb4YsAKkL4ZadH3//fd3M2fObNHoLex6YWDSpElu7ty59eKO+WEMjAgDb6641y1ecVuKrdkrTEuSnkokI0w0NTnUlZAthndAvGAmnw0VQS9EDftCC3YkSffZKdcEkXxFO9lCqRnE8XIYryTvIXD0g1sGN0g/QtGhhsUBLUbQD1it6HDwh64iuQ74pvR2+IMtmqYxwwuw9wMNVWjMR+oH/sbYGipCcnTEwbkoPgVIDbBUJf88DHQLl67vdtr8Unfo5O1TABsZAxUYsAKkAjGtPn3//fe7I444otVpsPjrgIGrr77aTZ8+vQ48MReMgeFnYB1818eT8y9xY91SOqnWbBZPtiEp5CS7LMmVdU46JRmXHnH0yQckm/Y9IMgTpNPEK3bAHz45wBwftlWeBPCEyPknBCBRcZ3wZJ8kXef7pHT/NPfn/RsL35TO1nlcsJ/jk8Pev/zJRzLm/aeP54UiRO8LrVLl/kn7gn0qUtDDwB8TJnp8/z37yofdRSeexoHbT2OgHwxYAdIPklpV5IwzznA/+clPWjV8i7uOGOjs7HRjxvDvTNeRW+aKMTBkBl5c/AN48fxPlNOVgenBNOa2JU1SXl2mCcyqdQa07HtAKhHcF3+8Dsk2Z93ApWjwZsRFRsn2qLTuhqjrRJsbQ0VIrK1VSihCZVluCD8uwBUmnOuCLyjshO8ICS3CBw+puJJFwff+lcCJJFGB60+/srn728OudNtutmFYsytjoA8GrADpg6BWXn7zzTfdtttu28oUWOx1wsDZZ5/tbr755jrxxtwwBoaHgTVdc9zzi66CNwE6fRLo0z2fBIbkVk7YoZSIaguWlpPotA+C9j0g8uRDqgGiF7awjD/krci7JOl97Y/sE8t5aaoFZd/0SURkBx0Z2z4eOm+n4v5H+KgvTzykBxyxw48s8D4FOfiDH8/bBR/Pq/HhPNgRf6RXAPHP68s7IDE+u9nm3lx4lvvEhw8dnr8UhtIyDFgB0jJbPbhAr7rqKvf1r399cMqmZQwMIwOPPfaYe//73z+MiAZlDNSWgacXznCuezakeJwkYrKoTbNXnsFhteZzVkp2g1w46Q7vgPjVEnyRDvrRlZdHO5VbFIc6lEpnZsNitlBuRjxMk2fmTQAYUkbkr6gFa5CSB61oWqoS7pN9iTUEEP2gnD7jPUGkQSU/RBJfSMd3QtSBBNjzitl/hZaIl8ig9/jxvPhlhSHyoe/X47Pf4y7960tLLNqUMVCdAStAqvNjq8DAVltt5RYtWmRcGAM1ZeDggw92Dz74YE19MOPGwHAxsHDl792i5bdo8VH9HQNJciUJRi8kCYeUlZJgHscn2H29A4LrfCIe8OXXcSjFFnPUV7BHRRML9v9EHb1Hv9k+VwODw5eTe+wxHinmhE9e5/jCusTr/SA2i/wV4oEnDTG/hXWMhyKDDpqGR2qCjwvwX8kThjZ4U4eKEK9Yii+PIFA/f/IRjdENghFzMNG7rpc+npf2HcZ94gNAej9I/Oz/0hXj3JYbTHdT3r8DTFgzBgbGgBUgA+OrJaVvv/12N3Xq1JaM3YKuLwZuu+02h+8mWTMGGpmBdeu64cXzL8GL54shFw1JHsdUOYkti1mksadGEz77lDnMRqHh2bfPfukqGYKeYoTV9MrLUPGQrIQZzp0xuRUBvGD7OCOjwrKfKKwTTBl+LBnwgwVSZD+COk9GP2MUmqYJUPAB8DrEk3ge7HG8Kh4h82U5PqzhgjbBd/T9IO30HSGsqUWCyIpBGfte4QoGgyAu8Uvp+D6Ix4deigySFHwPWICLJp5++Qh38UmfCAbsyhgYAANWgAyArFYWxU/Ewk/GsmYM1JKBCRMmuKVLl9bSBbNtDAyZgZeW3OzWrv1DegINaaAmuT4J1FwQkr7o4FtyY59CYrIPSaScqPs+VsAT7/xTsOL1RJ/88CH6ZDP1I7WHxYUWUX34QXZQXuVCXDBNcWmc4AKbZ3n0N+iVxIsAXqNMjuMFEbGj0iluRTvodxV84V95JXkyl8bl7asfEpfHx2IACxD8ssKyOLhYSG+IwpMQv2/kboQrePguSCe8E1K2b4X4E33mD3Gff20T99H9r3Q7bTUBJq0ZAwNnwAqQgXPWkhqPPvqoO+CAA1oydgu6vhi44oor3De/+c36csq8MQb6ycDa7tfc7IVfd2PcWtDApNYnqbl+vCBJay4TjbFIADjOwXVeJqIX0cViJp8NFUEvvADZ0Um5CHYkSQ9Zt8hwX9FOtoDD0hb5oUm/Bo5+cMvgMl6kVClMZwuh6EgXonjBkBRNYrus13j0IpWKp7HI6GgbC7jwHSF+Y4lXNFShoVg1PxBfvEYIfimdixBaUYDUQK4nq2+8OdWdfdSHZGi9MTBgBqwAGTBlratw3nnnuZtuuql1CbDI64aBt956y2266aZ14485Ygz0l4FnFv4DvHj+LGWLdCINaWF8Eq1ZpJyMU1+WXIIeJI2SdEoyLj0u6JMPsJA/AcFvRO8hfcQR/PDrOJSs+uyT18vtUfLqixo5YY/7yEH2l+L1WmoY2AODOiR/2F5f+HG8ZXzyOqAQPgeq8eA7EzhP5r09FiSFMrxCPCCfxEtpPt8NYV7sc5xs0Otl+y/xYPHBRUiGH/sXvfNB08lY3olJ4wv4bfQlhT2gE/xkfmQjQvx+F/wGPfnCLu6SU77MQdpPY2CQDFgBMkjiWlHt7bffdptsskkrhm4x1xkDp5xyirvzzjvrzCtzxxiozsDCVX90b739gyQb1eKjgmqclJeJcPLMSSat04TP5lWBn4D4NBJmYV1aBoDDpMk6TsI1DXN4wmNNTe55yEqRPdL3swjps38NoLBOQtEPEvDFgtqN4lFAD9kHYGHZ41MSru6BPcUVDfYpJO+Rj9GlSGNPLZvIhl4I48GisYN+HYuKBr8ixYEO4YKl/Uw5IC2qD6IBE2s6e6hQ1TW94Rgvh3tnzRj3rvZL3NH77eoNWmcMDI4BK0AGx1vLan3729+2b6Vu2d2vr8D/+Mc/usMPP7y+nDJvjIEKDKxzPe7JefDiedtbyYmznkhDUqhJrk8CQ3Ir7zxEtQvY4eQwPSEXPD2pB1z9CF7AxScf9ClI8Uk6zLNeeTKrOSkYFHzpUUOLKMURPFIAR9lTlQMNepchXfa5tY8nw9V4wO8iL4wvjJSuU7xAmi+eJGlnP1J/y/T13QsFKPcj5cXzGcWp63kcFeJtb4f3QaAQET3pkQ999yN58qF0Mx0ZbqyPhCNzq9d2012LcRd4TvTxSwcPdhefeA7J2w9jYCgMWAEyFPZaVHfnnXd2c+fObdHoLex6YWCvvfZyTz31VL24Y34YA1UZeHnJD92atb/j7JCSYU6a46Sc01UPw8s+idSuoo04dwxCIc3WIkQWS/BFWkSS3stTLZEsxANIiimlBSR1KF7nOErtlPiTauJINNPkP54XHYXTC1nhvsJ05mAUj8SV9RomAlZpxJu4XyLH/kT2ImD8aF78iF4qDkp0cSoSL5UoxEsTvE/4a1hrOqEIkSItQoj15syf4KZMvtLttp39JkREkV0OkgErQAZJXCur3X333e7kk09uZQos9jph4IYbbnCf+9zn6sQbc8MYKGegs3uee27hV+HF8zU+yYO0Tk7AkxNmnpdsMpzEi5qkg2hHknBJPnkcn2D39Q6IPAkJyat/MkHojBty/gr2ggC4HZ4k5CftabzoPeJLvGhwcPhiB3uMR55UpE82mL+wzmMyj35QvEX+CvFAoh7zW1hHQIoMOmgaHqkJPi7AfxIvyGsRmiokfI5tH4dKqf38yUc0RtGy+GK+hH/ssQhZq0UIx0nxkX8c1dx5p7pzjjkW/LBmDAydAStAhs5hSyIce+yx7t57723J2C3o+mGgvb3ddXfzrw/Uj1fmiTGQMvDMon+CF8+f5kmffFJ2GCefqkICYcS5IIvrbLgQaeyp0YTPPmUOs1Fo9j0gSohe9MUfr3ORwGm4aDBEXDMoaHQh0thTK0zgrOCzSGJHDTg3hooQFOf9FGnsq+OzJMmQ/bw64TF+NC9+RC8XWUEHrc16aZKbdvxX3JgOeBJjzRgYBgasABkGElsR4plnnnF77713K4ZuMdcZA9OmTXPXX399nXll7hgDzMCiVfe7RW//b8jp5AScexlrr0moJIco53PBkh7RKZdEPRBUnMiOAOiTEJCr/g6IPEHwu8cGBMb3qT1MluMT/Gp+6Im6+hviA5jUThYfJsVlcYo99EMYKZPTpFrsqHSKW9GOj5PiVf+r8E7y3quy/RM/JC6PL09u2F9WlHjcujYoAOBJCNhP1qMnHwBHy0pHhqt8iaDY931nFxQhPT0A73kB/a5uuO76gjvuwD39jWGdMTB0BqwAGTqHLYtw0UUXue9+97stG78FXj8MvPzyy26nnXaqH4fME2OAGOiFbzy/FH71aoHnI88OIbGDFZgNJ9heMlkQNVkr6TEnLQIJcvQiugBn8tmwaMELkJ3CarAzsu+AgOHID0mSQ+DoB7dCPDgRtcK6rCULuD/xRIhTHIlrAYEo69W8XqRShWkyC/b8xkqRRx/PC++E5K0vPwgOlNROBXy0Q5+MBUUNNvz59Mv7wYvn59PYfhgDw8WAFSDDxWQL4nR2drr111/f9fbyg/0WpMBCrhMGjjrqKHfPPffUiTfmhjHADLy89Da3ds29ycl9cnINWWP+zkJhnU6iw4F34NafUPscVZJx6RFHn3xAGmnfA4K5PKTTyifwh08OkD8gteKTB1iR5F/0qSggnJInIFQF8i7Jk4ukONAaxu9fhh/vX9CP7KCn8C3pHfDpWPopWBxWNpZ3YtL4BF965iPF74F/09d28cfzzntrI3fALle6vXbcPNx6dmUMDAMDVoAMA4mtDHHjjTe6Cy64oJUpsNjrhIFf/vKX7qMf/WideGNutDoDnT1vuucW/L0b07YaU0ZKYokTynaLJ9s4XdaS5LVEgJNnTjJpOcEXBX4CUvakwGffClDwQwwgFFyXwkN8AsD+YnIttmMAr6/S/iKo5+4ISOi9A1QMqF0EkBbskQsypIHIhL6wTBOyP+Kv7J84GuyFIiFgxlfl+CDh/Smsk3Jkx98AOZ8dbfDxvO0dRb7KAQnVm4Rrjy8TVIWxohRb3T1chMx542Pu3GNPJH37YQwMJwNWgAwnmy2KNXnyZPfss/DNvtaMgRoyMGnSJPt46Bryb6ZTBl5YfJ1b/M4sSPVKkldNKqOT5+xEXZNESRY9jpzU8wk2SEEuSclplLOWJbdhGYsDSDZFMbMrJ+Olfvt0NyTduf/AgRiK6ODUlv0UsyonE9LHcYK9Uj/6zV/kBFyW+RGZ9QKBUEnGC301/jL/AyFIDDf1A4ZCl/QiE/csz/um+wOObzp+O/euMRvSfgpP3MfacO0NZm7TfaPxqwrfr4gzd8E6N2XvaW798WN01S6MgeFiwAqQ4WKyhXHw07DwU7GsGQO1ZuDqq6+2L8qs9SaYfWXggfl3uBeXP6pjuzAGhpOBcR3vch/Z4Xw3cdxWwwlrWMbAqDBgBcio0Nz8Rk455RR31113NX+gFmHdM9DV1eU6Ojrq3k9zsPkZ6Oxd434x5zq3qmtZ8wdrEdaEgU3Hb0tFiH5Eb028MKPGwMAZsAJk4JyZRgkD+ClEu+66a8mKTRkDo8vAWWed5W655ZbRNWrWjIEKDLy64mn3h3m3VVi1aWNg6AzssOFk91fbfWLoQIZgDIwiA1aAjCLZzW7qy1/+srvmmmuaPUyLrwEYePzxx9373ve+BvDUXGwFBv6y4G733LKHWiFUi7FGDOy1yWHugC0/ViPrZtYYGDgDVoAMnDPTqMLAxhtv7FauXFlFwpaMgZFn4KCDDnIPPWQJ38gzbRb6w8C6db3ubvhVrLc7F/ZH3GSMgUExcOCWx7s9Nzl0ULqmZAyMNgNWgIw2401uD3/15ZxzzmnyKC28RmDgP//zP93UqVMbwVXzsQUYmLfqBffb129qgUgtxFoy8KFtP+kmbbRXLV0w28ZAvxiwAqRfNJnQQBg44IAD3KOP2ie/DIQzkx1+BiZMmOCWLl06/MCGaAwMkoFHF/3aPbXkj4PUNjVjoG8GxraPh5fSP+c2Gb9138ImYQzUkAErQGpIfrOa/vOf/+w++MEPNmt4FlcDMXDFFVe4b37zmw3ksbna7Az8au733OI1rzd7mBZfDRnA4gOLECxGrBkD9cqAFSD1ujMN7teZZ57pfvzjHzd4FOZ+MzCwePFit8kmmzRDKBZDEzCwcPVc9+tXv98EkVgI9czApA32dB/a/qx6dtF8a3EGrABp8RtgpMKfP3++22677UYK3nCNgX4zgN9Rc+edd/Zb3gSNgZFm4Im3fu8eX/zbkTZj+C3OwJ4TP+AO3OqEFmfBwq9XBqwAqdedaQK/ZsyY4b72ta81QSQWQqMz8Kc//ckddthhjR6G+d9EDNzz6r+5N1e/3EQRWSj1yMABW3zM7bWp/X9fPe5Nq/tkBUir3wEjHP/WW2/tFi60j54cYZoNvg8G9tprL/fUU0/1IWXLxsDoMbBk7Tz3yznfGT2DZqllGfirbT/hdthocsvGb4HXJwNWgNTnvjSNVz/96U/d6aef3jTxWCCNy8D3v/9999nPfrZxAzDPm46Bp5f82T2y6P9rurgsoPpiYEz7OHgp/Xy36fht68sx86alGbACpKW3f3SCx0/Ewk/GsmYM1JKB9vZ2193dXUsXzLYxUGDg96/f6l5f9Vxh3iaMgeFkYOK4ragIGdfxruGENSxjYNAMWAEyaOpMsb8MPPLII+7AAw/sr7jJGQMjxsC0adPc9ddfP2L4BmwMDJSB5V1vuV+8cp3rWWfF8UC5M/mBMbD9Bnu4D29/9sCUTNoYGCEGrAAZIWINNmXgM5/5jPv3f//3dNJGxkANGHjllVfcjjvuWAPLZtIYKGdg9rK/uP9e8PPyRZs1BoaRgT0mHuIO2urEYUQ0KGNgcAxYATI43kxrgAwsW7bMbbrppgPUMnFjYPgZOPLII9299947/MCGaAwMgYE/zvtPN2fFrCEgmKox0D8G9t/iODd50yP6J2xSxsAIMWAFyAgRa7BFBr797W+76dOnFxdsxhgYZQZ+9atfueOOO26UrZo5Y6AyA+90L3e/mHOdW9vzTmUhWzEGhomBKduc4Xbc+L3DhGYwxsDAGbACZOCcmcYQGNhll13cnDlzhoBgqsbA0BnYfvvt3auvvjp0IEMwBoaRgZfffsz9+c3bhxHRoIyBcgY62sbQS+mbrbd9uYDNGgMjzIAVICNMsMGnDNx1110Ov5namjFQawauueYad+mll9baDbNvDCQMPDD/Dvfi8keTORsYAyPBwIRxW1ARMr5jg5GAN0xjoCoDVoBUpccWR4KBj3zkI+6ee+4ZCWjDNAYGxMCSVTNce1tbotMLo3b4r3cd/MC1dXQBA+nhMmoyi33SKiwU5BIlGHg9NKvmHfoYA8ZjBtBVvciB03FFMVwoaeXTkR+Jw23grVgoASuZSmguWZepcj/8qhIW/KoqL6DYe3fJj3i+wrVEp/h6ESvEfqyDXYx5EQQv7/V7XY9b8M4c19PbBQuonzbRUnOFiT7kZTnWEzdL/csFGSDZbsGs0scoJFaYSJV5uYyvWBEc90PyByBw2J+W3G8af2XNFBftwkyF+60fcGooxdXpihcqjxcl9oUQ/PvH91sFKNAfDx/Je+gu/+DGtK9fQcimjYGRY8AKkJHj1pArMPD000+7977Xfve0Aj02PYoMfOKsE92/3LAR5BLwjzX8Yx56+bed/pX3Hsm65B481iRA9H0SR//4x0mKrGd9nGSm9gUfzPtkg9Yz/Njv3kIckoT4Xv0BzCyHEpxAv8Sb9nG8aK8dgHrBQeoL+MKr8BnQ0QGON+VTknTyB6tA4CtJ9vIxBsIElewfx5nyJ9LCb8AP/Ivfsv/ch3VxS+R4TO6qN+XxYTwBx+8LOBjfL73reuhjeYOc2OsHfx4f7ZTtDxbcNA99j94vgi/+wBjj8OHztorfsh2ev1L+hZd0/ygekFdWC/eL+IF9//BVzsvr/YN2SuJj/j0+bBioeX+8PZpgv4O/6f4QMWIv65k53qeifZjX29X7R3wE/EI8GX4cX/j7jvHgvgjvPj7kV1vMB8ttuvGhbvI2n1YJuzAGRpMBK0BGk22zpQxcfPHF7jvf+Y6O7cIYqBUDDzz8RfeePReqec2J4n+7dVWSFe5pmrIp+tc/DH1SEWUbihAnCToZXRAcjMl8BR8Ql58weEHOPmCg2Q0hlqonBkriIc3wg/nwyZlOox1uWnzIxKDwwY/EWYlDQGUMvW6QrKV9Zr4QYGGd1AVf4DFewRUNGXNfWNaJIEdTuTqNfRwgysu4n775+Hp6u6Gw6wnhqoAIcs/6jEMzNBHwWYqLxPz+CPJw5fELZsQACsM1DXN4ve9gHQQ4iSZ0D4z8chM47KllE9lQpEJPAnI/Iq5oiEgY45Uu00BkQi/SukwTIUBex/2JJaN4IOA03oCNV7EWrWQT2dArR3H5+wE7bqIh47QnOVFPl2jE2ljGdLjDdv+3EgmbMgZGhwErQEaHZ7OSMbB27Vq34YYbup6enmzFhsbA6DJw0EH7u1/+bnefREgyIT344nMR+TddTqr7dVLpkwfJIkPxIfjQwx9JbjLxKJmDtCEqMvTXK0Ah9qPUDuIrcBSPxCU9LHGOw/KCm/exH1p8AH58so4nsyinZnHo8alHQ2KX5EIcYi/RSIBUERwWO8Kj1+JpWo4Ns7iPD3mBP7Kf7G/RjzJ/wj6CPe+O2sniVH0RzOOt4kdXTycYAC/BccaJ7Kmd8v2KHSvbJ11P/PH8ATa1ZJ+E7tQeasQ8SrzSq51YTnmP4tFt9fixfLb/gQ/hxTsKuOSP8hWtE/+0zLcNXLJ0Fk/CR9CP/54m910FeeYFfwpv0rM95CWJYzDxel4CTuCTwsUAM1zZl523OtNN2uRDKGDNGKgJA1aA1IR2M4oM3HDDDQ6/mdqaMVBrBm75jwvcR09eFnKlKg7Rv+m4ztkL9yoPSQX8SZIVEdQkioUVR3XTCxTn7CWdlxEvsz0SLMGn5EcU8t7jk518LRqrnySfZ9t4su7fmREdj0thyxz0ihPN0aWXJ/cLchJB1FfAF9jCcgXDhWlSDPHhPvIGCHLaK90FIJYTbV1OJkI8wY4IeDsw7MVnIPQuSBX+RBzkQ9IpvgY7WoTIkpjDHlo25Mn4pxeofr9Uvh8FqqKdbAGHxRbiCUl3rIjr3HRWL2QlW0+nMyKieBKGYj/KeM9BAbaCHyLJy5G95Abjef7/FdFI+0Q8XUpGaGfs2M3dIbtcm8zbwBgYbQasABltxs1ewsDee+/tnnnmmWTOBsbAaDMwYcIE9+Ibx0cnkpJUSNaAHkESAP/KS5InJ4nRBK9nJ46F9ezkE3GlhaQK7af2EIfWM/wgx7/bH4+DPFvBMeNQB3hxz/jiC2oEf8JJcBxP2TsGvE50RfreDlYrmrsJPidn6rePjwTFQUn+ZBz3BMheB3+9Pdk+6oU/yTF9vGFDI39DvHExWcQXObZX/g6IxBnsBRzQ9/FSH8fl9xt/Daunt8fTLgFhvIKb8tfX/lR/UiX+EPt0fxC9MX+wf+ymjycIlPIX+0NxU7yCD8DEP4ZTHo/wgxoJbyof5umdCML3cYCjfF+xmbDuzaJ5MM2s+njIH/arYC97J6mwjsQQInTQ0u0UfFyA/8T/zF/mo4J9jKdEPthJ4yV30BFqgad9dvq623D8JFmw3hioCQNWgNSEdjMqDOCnYeGnYlkzBmrNwGVf/oT70pVwHi05BPYlrbBMEz4rA3leh3/s/ZXMEBQs4rwkRSXwSdJCuUzBIGoJPlyKfZzGa57AC2o0JQPsM7xsGEvSNSc3PnnS1ZC2jczJuuCLQRz7ptmWTKR9IZ5sIht65WAvjVfmg/2CfmGi6I/OoCy1gEv3A+2nX8riQ5WedV3w4jhWb8VWME8TgI842th/RhANvyhD6GMNVY0vvIx4H5bCTOBPVsUAj2WktrKJbOhByvBjSY4vteBHsZhHi7vCMk0AnueP1+Xvm/gR7Ol2oWBJK8cHwURe8AUgsqMGREUQRTbtyW1RT5dotP679nT77WAfP15CjU2NMgNWgIwy4WauyMCpp57qfv7znxcXbMYYGGUGXpl3sdtw47cg94B/5OkkFByAf8xpCJfyTz8v+6RcTjKl98VB+UmlFB9RHyWfalbMU5/ZifFBQZ4cFE5OYznx3BsIJ7c+zMgeFTcRruBLj3bKnnzIyXrqR4Sf8QfueUI5PsGXnojP/OaNkA0JPcUTx6v+8/6lMN5eJo9+B14Cr7E/xfUQn8YjYWGf7Z/4n+D0w4/eXnwO0iXq1AO8D6vc73gfdL/AofJ9iuIlfxAdGviPcXEc0qf2UECLKOU94MV+6D6pXMpfYkfNs73+7I84nPDr95X9iOLJ8HWfK90HPk6KV/0Pccb6vEHIC9GX8cc8Bl49nxmPBd7Er8iPYrwpn+RAhIveHL77D7xX0FkzBmrIgBUgNSTfTDMDL730ktttt92MDmOg5gycdPIx7t/+Y4uqfmBSQU2zC5nAnpMxn3bQWJIEyUIoyYIVxUG1khYnYyXLPrmJ7CUKPM9FUJk2J0GQ03CuVC5CsxomOQwKIa2Caxxz0/N5VYB5EYfLivF6+XJeBCDqUVCBg332IrKTi3kH4mnRoZ4WAM/jhydYiZQOErp1NlwU7GQTPIz2T3n1GF6e3IGp3nXd8CSk8od2JLSoG4G38KRKgEFIluEyc08R9ELUsC80AYriUYJS4Yp2soVSMwjl5Rge7CWBox/cMrjoxqiwXqoYxSOGs17DrOhwsEdXFeQK0xQAxOPj0yJP/Mz6/vixxcQj3R5bnZ5p2tAYqA0DVoDUhnezmjFwxRVXuKuvvjqbtaExMPoM3POHL7h99l/kDyApC/BOcLIjSXvhxDM7oaTkP84KZD3r4yQ+nNzCrJfTJFH0YEKTEcAXOezpd9xFTvpMngODkHxuA2KU4whOYFziTXtPDDpY+iQkxRf/SJxzKTUguKl9fXKE/me/c+8dFQVNzuCCAkr5y5e9PZBkaR7H8QR98Vv2vxK+yHF85e+AsB/Kr+yL9KX7A/ZknXrGx0/F4sIISazAn9ertD/yBAR7+x4Q3L8+7od+7Y/cB3K/4P7gvss87x/+3wH+veMbUO5H6OGP/P9FxfvE76v+/QCN8Pdd8GN7/v5GR6C1d6znDt31Rh7YT2OgDhiwAqQONsFcYAbwReAVK1YYHcZATRnYc6893J/+Z/8sWQ4uxTkEzdKEz+Jhgtc5qYiyDQWIkxKdjC4SfByUNsGHxcS+ZjekVaqeGBB/uS8zxTVUmsxwXCwdTta99qDwwX7irMQhHsnY8yxZoyxHfWa+EGBhnXQFn/3gJFBARUPG3Ku7sqwTQY6mZF2maezjgDlexv30jQnnBV3nISaq3b3w0bxRE/igD4vEj87gBHyeViyJ8foWT8NUrEUSso4DuKZhcJ9Ewn0O6yBQjT+Bw55aNpENRSr0JCD3o+xbFI/G6WPpA7Cw7PHlhuR1+ftWtDegv88YRWYwG/o4Izv+fgh/P0QjUBJfkZyoRwu7bH2u227CB6IZuzQGasuAFSC15d+sRwzcfPPN7txzz41m7NIYqA0D37nhfDf1rJWcg8A/5pQDgCuajMBEv04qSVEAOGkSPe0hOeRTbVwPuaPkkCIXkkqWLzsxFYCQFIWTVdaHIII7Ip7EhwKJvpy8+j72Q4sPcDw+WceTWZRL4lH+mM/gR7k9clSytQSoGAD5Szx6rYhHtJPCeHskn/JTNe4IKMhRmBSnLgdzPn62p7xlfMYn2ojLvIX7S/afe/xoXvxUrG6wImFV4A/siGNl+1TuT2A9MpDuY+Y/apSd4IvfaieWAw2+f1P+OPzK+yOOBP4DT8HzanxAVHL7VOCvIv/e/wBQbkfjJnnvVXQ/6nrGY9l90Ge8hfsF7El8sv3gx5hxW7lDdv5H2lL7YQzUCwNWgNTLTpgfxMCBBx7oHnnkEWPDGKgpA5gkLFxxDvz7v6bgB+QS3PAC/pGn5NZP4YQmY7QgAnFWENRVreQCc4sifhDkZbZHgj4ZEX/6UJfslXKcgFq8QhxqBChZTYgL3/1oh/9K3wFhTVWPhuHSO0ruw6zaI4lgJzgMCzIdUPTKwwWcFDCR0wFekGKIT4rCRCYaKN1V8BM3E8dkJdo/diBY+P/bexOoW6+yzvNNQhKmhJAQIGQGAgQhgGLCJBCIE6hIQK0uCCDFJJCEWDYQsTRAOTDUwNSWAnZpC6zVXQbKtkWtWiquVQ6EtpcC1d1MdpcI2EwBZUpyv9vP9H/2eM733STnntx7/+9d+fa7n/3sZ/jt94Nn7/Odc0LfnoMitbvZp2LN4yl+chMCW008Sbdwgx7aNfFABc//7HmETucW4iEA1Ruvkk+9CSkPhI77lX7yBiPdeCvu4pitT21QxqWLor83VfdtHRF+PRD3brXy1xh2uW9SJpNF1Kg3KkctD7/3Ly13OHb9e9uaKeyQwEEgwA3IQYBMF3sn8Cd/8ifL4x//+L1PoCYJbIjAi1/yo8s1v3SsWEdRo8WGnrji/+y9Xwl8vN6E1FWBTKyLpjwJTftqFye6WtRA3/2pHxvv7Be9+m/CYUda048SLeLpwhK7xV/BCf9tW+ebn64kZevR4gevfKCWbvORPHSXgiIM+XQ8cRJsigi0GNRAsQAAkyEP/ppaEfxkmoXh/dpemd/z8xllHGFAz/vz94CM/IodrE+0yDfaolf8yZ09BzfJR/P6OHCM+czWZ/0rVYhHvVR4LX3k0fkrCxrxQG+Mx+LV+PEYZL4qwLzWfv08FB7g3raaL/St1b7ZdX5l3PvmXvO0eFbEm3HJePeepFk8Tk4MypXpiQP8nhZcka/xiLjbCVOefX7ODfm0+aq5O9/pIcvDzrjSA+JPErgNEeAG5Da0GAzFCVx22WXLu971LuIgga0T+PDHrlrucdrnmziyeILUBFEUi8zHpbgoZZZItZyTSwbtFZIoilzY/qxrkFKs+NyiCfshF3t2qfP0W4n8tgisupx2a02793i8WCqDMODvLbDNBwYdgIchsq4LrdKGgvopF+xDEvlpNwFhrG0Hf52g68bk4q/NF/Lif5g/CMZ4UqK6dhW75RWzGOryM/Oi3vLRT8WSP8WST8Ya3E8nePz+KhVmwJ+0EY6OrL1EAbNbXeSD5dHnBZYww/voDcMhGMZt2sx+ren5tR6iV6u5qPk5DJtA7EUCPo7fN8RR/OVyqeLkmtsXxUYf9mGg8pMOMAUWodu2FnZMP+qoo5fH3O8drQJ7JHAbIcANyG1kIRhGIfCZz3xmOeOMM4qAdySwJQJPvOSxy3ved5bXvBID/q/fa4IoyusTUhloTihlBk5iywmvz8OJqOt7gllriCPdU0z9iMUsWtVf+K8myLwxDqsyw0E5ua39uD/VK+PFfu1n3cl6G0dlv+MnbgLo3J/FC+IRdwABmGyHfJOL+Eg/UA9/HUeNe23eUy4lv/SDtLS1dXS7LZeK6wHFIUbT7iJvSJdXQfRf5lvs1v5yvUQPr4DU4818i8f9zPG3nBTw7HmsnxesW65Txtvyc17BTfOU/3b9/cHzL5qY0eSDcWmbfFK7y2fVcxB5Wr4Zf+E95Gv6qh35qPvq91oHvB/+w36dLyY0+YReWDZCZVykYVft3+OuT1rud+rTRYcXCdz2CHADcttbE0YkBF7zmtcs11xzDVmQwNYJ/If/eOXy2Cd8MePQosgur468qIFsUhy4QlYbXlOIftrJue1NU6y0Q9Zz9178WTHSTKiKwslcFTXqK3RMT35I9KZfFz2ZV8ydvgfEJrrCynyDo8WjfsKeNzBQtaroEUXbTCjze7UwXIubmTYgfsK+FtXup9HKzm78MFtbuzqBd6v16/2FvoUDG12rKv6pWLoJkQ4wpR4E9StVMNzqT6enHbnBNG2Hq/hJbgmoVV7ppxuYulFToefmvXgviWscfnXm+gcLZqzFHGubibP1qRXUv3gXt8a/MdR2dJZdeQPBCrG5gWGPoz6saGe7/zqOo4+5s3zs7pt7NfZJ4DZDgBuQ28xSMJCewGmnnbb8/d//fS9mnwQOKgF9Ne4v/8/Hi08vdvB/8sOJpwzkCa+UNbueZIa+F0+eUnuS6fayqFxhH3Foa3/jDj20GvcQj6XTFE+w45HoT+TbtllthT//86s9vgekKb5gF8VT9BGvxt/9zX0XcFR9VfErVaDnURWFOQz7Ms2y836dT+EPO66JGWUc9qHn/fl7QNr81F+xE8/JsD7it9Er/uQulsjt7Je3/+srIVg/tDo/X/kQ+3iPDl4B0ZbfA6Lrh9Vd8TzgeYzfB5/Qrw+eAzwvvkRlnbF+9uCFw3gOOvv1+pX5xb5vQvy5Kb/vsA+9ZTnvXi9Z7nnCd8SzwoYEbnsEuAG57a0JIwoC73nPe5ZnPOMZ5EECWyfw87/4z5bnv/RbFgdKDG2LQKsYl/i4FBdR5qK8SfWqSIasbhv76aTW0HvYl1ubAP9anMKC36l2c2E4bHfdRlU7mlYWRTmqfvy6pZ+u5PbdD2xqfm306EubE4p2fTfk0wm6bkyFfZjX4hBWMQN9b4fhFBQ9E/XTrR95iKoP63rG1eWH6TkOvUpdtiDlW9JtQrHvav4KSOGq+cbVORj8YFzV5d66vflqvTz81fxgTlu7OkHXhVZpTUHt15pVPkFUJ6hGdq2jgvaqrdiICUqCPq7rU2sWf2WT0NpFr55V7MudDkSj1qJrsmad4nmwdG0UFkO1a1TvuOPPWi4655puhF0SuG0R4AbktrUejKYjoJ+IpZ+MxYsEtk3gC/94uRR5X5ZSy4ufLMqbk2qcQPoJpRVJdsQqVcE6vShuotYoNbZNi2ILdtS//JvFgYmlKCp61VEv1NpWAGtpo8VPM7+LO0+ARS83HxJ4fbKuJ7OerzXuJ+xbsaWOosYDx741heDSBpoTJWD4iTzdLMTWqp/WTOSneco/cFy5PpF/HU/hU/JLP8VdxOH+klvHsz7RxvNS7Et8jb4Yry5PX+3LFiQ/FavzJ4HN1mkeT8nS3DTrBNxuH3HpjJoj5GjTT62X3Ft+JR+sZ7s+WNgZnxJ5G18bh2SFx0duPb1WX+Od2cc6FQMr9KrnJfAh7Gh93uCn5hPPNSbO4pnHIVLxf9F93rQcK3+CxYsEbssEuAG5La8OY1uuu+665aKLLiIJEtg6gcue9ZTlX73tBCtaLJisLurQpLhAcRXlDcocFBMwoNPXXVqDaLEE/V7Xh91fXYxAf5fpTVi97bqfcZrBqN4yMC1u+T0gNS/cD/wbARa2Wr98XsJC6NtzAKOTFmZ3ZBOi3w/S6hc/uQmBDUzUVq6u68L6Zyi09msFva/yUUUphvE8QnOln25Au+NV8qmL8vKLouN+pbm8wUg33oo7EFU+DaE6jkhzHnBaN26YltJy42FW/pKfj5T/XSlz6juo3/lOD18eevqL6yHek8BtkgA3ILfJZWFQNYEXvvCFy9vf/vZaxHsS2AqB//Khq5bz7v/54SQTmwsrim7OSWZkU4oqLWqkGJGqwmo4q0Gi39kverIZMH3Mq/WjRIsqBcVK27p+AdvZiXgyIOnP3mOQRacUW20+0uf3gFi1Wrjs9aQfRa4Xo1ijfv30vSA7uiWMgdn6rH+lCvHgeRFPKJq75xHPXaVQrbc+t/E8SYt4LG97fmFf8rFx9YPnDerRj+ddZzTcUr/I7fkPfbyy5XG4mzIebtW9uHaqbsfj8bgGf917koZx5W4WpZGrXx/VLw7b/BDvWv8yH6/E1PrwsyzHyMfu8v8rnT5/3tYJcANyW18hxrd8+ctfXk455RSSIIGtE7jwou9Y/tf/fH7WEBaQ1RxRZInASxApLoYTUx+0k0wrnubpoJjQNh2hSsopsO82rWjRMZ2TfvU+RH7rP2u7MT6Yr/Q9nijOUo4Z1Z/3YOwA7SNcyxc2MnEI1F9cCQiCtu3cFxzGZujGZOQj46KXxXPGUfzvZr+NpuMfMdQLO5xsd/mZP3Hf8ileUj1s66di7bd00pkoe/z+SWVmsTIQwyKuZxSF6i50zHwlLvnU/KDQ+kMvfXWCrhtGisfd1sez8Hx1snEr0xFUtoM/E8iEAO7j+H2Doda+7aFUcXLN7Ytiow/7MFD5yQXGFFiEbmnvcfJTl/Pu9oNFwDsSuA0T4AbkNrw4DK0QeMMb3rC84hWvKALekcCWCPyP/9Ply5OeIu8FiRNYLf6bk1Ap9kpRGSeWUUQ0ephn+p5M1hpSY6CoGfzU9mVCPW5FU2O3nJhakTjEUftBzdXlA3vRamDrTtarwBGOt5IiSicNw2pia+f+KgUPTPy2BkvfuE651H4wPfx1+hr3dH2Qt+pXvJ174Zf5dHmuXB/4O6A4xLjanzwf8KPPnn00b8Ur10sm4hWQdp3Kc+Qn7O4HC7bOn65TPu8DnyZQ59dwbPk1fjRP+a896a/iBL9qfTBjXCfEYQadX2cf/FY+B5Gn5TvJs55vDkxftfv18r4OeL6rn8dQkKbKu4qjzvfoY++6PPre/1q88SKBQ4MANyCHxjoxSiFwn/vcZ/mbv/kbsiCBrRK4y13usnzs03LK6NWRtxmRF2NRdojUyg9vo7qyRiQ6fd0V6l7LTBTdfeWvmVAVhZO5KmrUV+iYnvxAEdXkkwB8sp+uy33NBemH2DW7n6E/5wIDVauKNdeJORP1atqXqxa7JH7agPgJ+1pUu59GKzu78cNsbe3qBN6t1q/3F/oWDmxM2jSbN4t9ItaOfEt6zam8BwSGq2G5raZPvBSFeTxlfZJbAmrNrfTTDWh3eoWemxd+FlDxjzmdOU8Qg9IO4xhrBmbrUyuof6GMxwY2Jq3OsitvIFghNjcw7HE0m8N2+nL/e/3z5dQ7f1snZZcEbrsEuAG57a4NI+sIvO9971suvfTSTsouCRx8Aq/86WctP3m1lFp19YET2TihrE9uUaU0J5nNya3nUMa1qIniKmsr73sREq9siH/oaWt/44440E7jEX9R24hahBf+Emf4g51os9qSfp6sSzmH75nwcdhHfLMiDfZb/5mf+uv+5h4cm7bajLT83G4ZDn8SmtV2ymW2fn2+xYDpO2/k0+a3je8BkXADR5uPfirWPnnTTf89LXgFRFt+D4iu3y7Pgz4n8u+W/z6veh5b+/h91sDK84znLOKIePD7fuzx914uOvtn8jeXNyRwKBDgBuRQWCXGmASe9KQnLb/3e7+Xfd6QwLYI/M1nXrbc8YQvRPUSVaAEk8Vt3EGCOEtRAUnb+nyfZSba4eh50WKd7qS09qdDw9U4KNpTXZnsNboXQ8WW5BtXOVkPwc2y735g03ZHTfLqLwznpqFo13ed+5wGc8O4TYb9Ol9YxQz0vVWpXRhOAQbcNcJOqenPnpfQ6PJbY97diwI2IenDimb9gsIbQuTv1Slcy/plfBF/NMUUAlCJ3Fu3hJ/2I9vqeYGJ2kDMd1OugGFt5eq6Lqx/mgKeR6xblU9aiIh2MTgMh31LJOPB79vo74B+nzWPzmHXjUwrP/E8aOMXZqC/LI867+3yp3XHFAHvSOAQIMANyCGwSAyxEPjIRz6yXHDBBUXAOxLYEoEffur3LL/y63e36q8UId1JZRaTUjTscqKpxWGnXhVzPt+LIi+GcCJbn5jCQBOP2cV8gSW1zdSPDGlp43FUeXRxl2rXi1q88lGfrOvJrOdrjfsL+1ZaqaOMw4tJ5IHWFFCtTQNOA2IfJ8MxC+mGn9ZM+FMu8g8cV65P5F/HU/iKNMLQfMxPl2fmA8WOZ77io/Ekt1X8xXh1ufpqfvvkz7B29u/j94Dk8yPw8NjIrT8eLb+Vz4GuT8zAL1B5Dsb1Ukf5+FXPY/08NPPDfv08rvODRE448dHLQ057XvVU8JYEDg0C3IAcGuvEKCsCL3vZy5Y3v/nNlYS3JLAdAn/wR1ctD/mOz1fOvUhBUWlFAsqQugiSGVqcrLtUXYulVYo+PBZF0N9lOqovq3HWxoFBM9hX27oJ4feAAFHdDvwbARa2Wj88JzAS+vYcQDZp02ze1EpH2asgWjjf0leqEN76eKp8uucdUU3D1MFuQLvjVXET+1nM5y+KjvuV5vIGI914K+7iqPJpAqzjkF9T6a7nEuOY1vuUvodZ+Ut+PtU1cUgAAEAASURBVJKb5Xru0ccvj7nvL9cS3pPAIUOAG5BDZqkYKAh885vfXE488cTlppv0TZa8SGB7BM4///7LH3/wQq8ucLJ9c04yI4VyIqpFjRQjVmSheIl+Z7/o+Xsy6r7NN/3Yy0RRU9c2KJ4wr9CE/7bNaksmHvB7QHS3giKsyw/+m80bAkXxh37dmkGPuuUHbjJmNRz4RVe51HYynjbfOp7RPopgL0Ln7wFp7Sm/Ykfmaxzyz9qV8bh9i1c0cbXqbrdeH9ffv9wgf4q1t1eqEA+eF/G0y3pVCm1ekWcfj+cL+7Iwotesj3ZNHJyCj85ouPUcpW/viQh98PTnyt2U8XCrfvB4hP0h3tpP956kWTxu0Vdovj5w2OaHeNf6F4POz9t73u3Hlvuc/L3ujD9J4BAjwA3IIbZgDNcJvPWtb12uuOIK4iCBrRN4y9tetPzos77mVZNEY7VuFEF1eWOByqAVm1bUzEOvi5aqOnLDOUWKF/MEh1pGxX1E4IJuGnRQdcWUqotp2dbFYAqrwDZzst5HFPlpAAmoRFPfOf8q707QdWNq8dfmC3nxP8wfBHU0VRwqVl27it3cfGCoy8/Mi7qKZ1eqrxqXSfvtW9Llz7HMgFksptCVdoWJRrdSL/J8HjxOFP2ugBltL31hOARdN3yAV22/1izr41mUvnEr06uY18UjEwK4e8HvGwy19uXXGep7tC9qka9PgH1Mr/zkAmNKRHS7U+Rjd9+ACWxJ4JAjwA3IIbdkDBgEHvzgBy8f/ehH0WVLAlshoMXW577yXNlryBfASbFQn1BmcRlFxOzE1PU99Kw1pMZAUYNXBlQw2Fd/Ia8mjHrYlAxx1H5QRIUf+Ota9TN75QPvAWnjqOxLil46hZ+sseb+ZGaZMQfjhhCf6Ne8swgezMw5atzT9Qm5xjOOl/wy3BK16Ou4z2u5lHVrnpdhfSo9szN7Ttq40k/HY99y07JvZx+/B0SeB8Oc6zTyG9e5/F7Pn4OyTi1/1c7HNJ6H8vzXz8fsOcCEJp5Y1/PP/JnllDvcxx8I/iSBQ5AANyCH4KIxZCegn4aln4rFiwS2TeAll//Y8rM/f6yEIcVMKbOtL+WGt1lcRlGyS9ChbjXITNWtVv6aCS6vNze9jUa9H6z6zabByykZrar60OX3gFTQ5Da5QdwJhvXLGTEh9HWd1l1pNm9q7bJO+iqIfjSvvmJl69fpd93aiN9jmrbDVflJ+6IomybrVvor/XQDUzdqJ/T8+fXNw+x57MzdzDiq3y847toD+T0yDCsSG8SWgPLzTHJzLUaOu/39lwvP4hfzGk/+OGQJcANyyC4dA1cCT3/605drr72WMEhg6wQ+/PGrllPv8Xkpzaviv65O4iQcJ+JovXjy8MtJp9ZuUVxlbef93j70tLW/ce/9TOMRf1HbiHoctIa/JBn+Ont5whv++u+ZyKLT7OJkWPOJWmqw3/rP/NRv9zf3OBFuWk0kisKWX/jLYfCDduSLwNSfrFfNU/u+PlEE5jjygb735+8BafNTEI2f6fqIv0av+JO7IAg7o33wMT+V/X07+mdY8qlYkge/B0T4yYLZ8tsqO08XVPwrfvY82IRqvFknf05igap1xvrVj1OsX2cfz1+7/njOtD16ecR9f2U55qjbwQ1bEjgkCXADckguG4MGgU9+8pPLeeedhy5bEtgagSde8pjl3deeE6WwFBfdSSkCK8UnJG2LEkZbM9EORw/2QwdFkRWnsLBiOobNgeugRp+50ho8i6JUQBG83OJPV3L7EkfE4y76iNCXNidkMM1Nl96Q4DBus2Ef5rU4hFnMQN/bYTgFRc9E/XTrRx6i6sO6nnF1+WF6jkOvV28UqnxED5s6vdu3I19QGO8GMROdg8aMKmA87q1bwjcTatcVd+cHc+mnE3TdsF81pqDrU2uqf1yQR0Toaju5hmETlAR9HL9vyLP4O6DfZ/XfOey6EWHlJ54HPI8nnvj45YJ7PmuSCUUkcGgR4Abk0FovRjshcPXVVy+ve93rJiMUkcDBJfBb//HK5TFP+JIVR1b0ZTEpZUZ3Uoqivi4OO/WotaPYqjYZ+ecYMgF21H5McP/wJ8VhObkVHkUN6t7KkBZDqlCKqmJ/8CN6+QZ0iQPvAUHr+VrajX0rraLq8nzn/ixQVGtzMG2+GrdFn2Lzq/lioPFn+pKftmF/bd6VoaJX8svh4s7zjnVYuz4S4N7iEOPV1eSD9YY/zauyW9ZvWW7YJ19QiIVo5hXq5qZZJ3Bt10tnzPwUf/HA1XoZV8uvyafWj/UJoLZesI+2RN7Gl+OSp7g1NTMnt95t9f25HZ/7+vd0XRzpz+KPqMSRubfW/Q1+9pDvzlF3WL7rvm+rngDeksChS4AbkEN37Rh5ReCkk05avvrVr1YS3pLAwSdwxhmnLx/6rxdLKeFFWV0UoWixqkdC0+Jn3aVFkphZqejDlZ8s0tzqLtNRfVlYa+PAoBksxSQM6Hs/jpb/pu8BwVxpdfr0ikDrorDoAUDV7pLYMLzC8SC2iSW/8gpWiaa+S9yDIdcyc3Kbw42g5FP8QCG8RNeeg9pxd49ZpgezqQNB9ZxIRDv6fhD5c6z6+Uo7Obe72VM8lZ8E1NpZ6acb0O54VfmI/brYx/OIOWkubzDi7QpxMWMBVPnYShb/UMw0Tb/1Uffm61M0PJ7KX2PY5aef+uzl3Ls+vkziHQkcwgS4ATmEF4+hFwLvfOc7l+c///lFwDsS2BKBX/il5y3PffE3fRNSFxHNSXNfPHmw7cm6FB0yHyeneWIamxucmKMI03b1e0Ci1ox4urBib+T+Cjb4b9sMKPwd0HtAdJeSNRzsSikn1VfmEfmZIgJF8Yd+3ZrBGT+3O/gT1Sz2ajsr1qfeTLbro/axjhq/bMI0j85+5hX2cx3hL/LFetZ8e/vadw/I1/16GrF+GkjkZfNX2N8nf4il7wnxeGBH8jF995LuzO18vULT4irxgosCmcUD+xjX6XP7c/7Ffs3Xnv8uXx/3MMp4FZa4dqor+GVcMt69J2mar/jHFcvQPN82XPPs4h14wf+xpy2PPvcXYJotCRzyBLgBOeSXkAmAwEUXXbRcd9116LIlga0R+Pw/vHTZt/968V/KUQtGCg/7cxUrKubh1UVLM12LlrykGLKySQRRzNiQ6ZggNZtpKsVwDHTdnIcbjyeKMwirwPLPsDDWGey60CptKFixm1Jwg6AUdSiukT400A7+OkHXjWnFX5sv5MX/MH8QIBJvdTiv7BS79jxYERpa+QB438yLessnLRYcabuM6Z3NN/t+V0+wT8Uyf664wkQxKAphpcOPfDxOFP0+ETPaXvrCcAi6bvie2a81dRwX5N43bmU6lLKFtrZ2mUAmBHAfx+8bDBV/hq+ow0q2c/synA5VFfYxrfITDh545muWu97+DCiwJYFDngA3IIf8EjIBEPjABz6wXHzxxeiyJYGtEbjs2U9Z3viWE6XGiBPlKCJmJ6Y4cdZg62JG9ijRj+IfJ6FRrODEHCfAw8lprWfVThoUuzhBrk6CY9iKoRyHXmnVj32KktjPzYfo1+/9QCJNPpqf/CdubNhvVOD5IQ+0oekzGkMlj+InOFe8swg2h7WZ8FfzCfuFS8m3jmcct/DbfDQ/dxfhlfVr4kXeBxSHGJarxdHyy+egs4s80No6yveC3CT/mrxsnvtBImv97cEPAjY/qi8GsT6CwYZFDDVvNU/5D8/5quck81EDMaPYhx+xZI7M4NR+2sG69K3GvcZ+PR8Jtc9Bm1/JN3iE/TpfADn29g9aLjzzJyV4XiRw+BDgBuTwWUtmIgQuu+yy5V3vehdZkMDWCfzph65a7n2/L0gcUYZkkVtK63VB1kXfTC+Ls85+KX5QlM9md8XQXMWkdRFVIi/FHqZO3wMCNVFSO9OrxiMKrR4MVK2CqYrN3mbO79VioBY3c21A/IR9FJuNTtXZ2/pU+XSOvVuKWtfUPOMKfQsHskmbZvOmVircSj6VYSmy9c+w9u3fh6eo41/ZqqZV0rid+ElArfY0TFXpBrQ7vao4suifPA+duWoh3OowDmfNwGx9agXdPMTeRsVrrhzOm1Z5EKtA1mdnOWZ51H1/mR+72+Ji7zAgwA3IYbCITKEQ+Lu/+7vlzDPPLALekcCWCFx44bcvv/2fHliqk/5ENfpeTHuQ5eRWp/nJaKmtvO+vmMTmQqof6Gm7+j0gRX84CY6aG3YKrvDXxe3zpToKfwf0HpCmyoJ9qQ3NXJef+u3+5r6p9mQcmwVUry2/fhj2oe39Op8yv3D19bFqUNxBbukP/fl7QDyO5Nvx7NdzHk/x5/HoKkU+/fqBC/yonvybnawjH/9ULNHS/Ezfvei6SNcwI/5iPvipQuweYK9uh3wa+7bwmB5+Wn8RSZUv8m5b9VPiL/l63GLF8nB/+bzJgpncrEc+JcGpvSEf+I3W4xWDchUO8C/CxLUuXsS5fznppO9ZHnT3/87s8QcJHE4EuAE5nFaTuRiB17zmNcs111xDGiSwdQL//jdfunzfD+G9IB5OXZTMAoyaz0o6/zHTkuIFgzYhqsRS3dgkHRquxkHWfrA2qos+is8yqFWUX/lnWBDcLPtedMJEqdIgyaoN1akHjuGq7dwPCQ7jNhf2YV6LQxjFDPS9HYZTUPRM1E+3PtYL4el6xuXVceaH6TkOvV69UajyET1scozrYF+fpP3yqVg3msXGjEoQQNxbt4Rvc+r1yuI+DdUGirlhOATQzvHwkI0pePFe/Gq+uGAhEKK7wuAwbIKSoI/j9w1ci78D+n3WEDuHXTeScD/7jj5xeex93oTE2JLAYUWAG5DDajmZDAjc6173Wj73uc+hy5YEtkLgxBNPXD726adI0SFlRndSiqK+Lg6zNnT1mBbFFk5m7QS5P+FtJlQnr0WvOupFOG0rhLQY0qKuFFV6Qtz23Y5qzt8DUr8XpMlHZvgsxyHTw39rH/6a4rIxlBNhwOM1LjGrwqF+4NjNhD/Tb/mszbsyVPTEX4STw8Vdk18qdjyx/tZGnsV+z1+MV1eTT2dXSejGAnbBFa3GU/vZkT/Dukn+Ay5zEwvW4m/n7cWPgajjybhafk0+tX4bQBN35pORt/HluC2UZIXHR249vVa/54L5WKdioJ2XesHVuZh2PAd4XH3e4GeS7+mnPn8556RHVivOWxI4fAhwA3L4rCUzqQi8+93vXp75zGdWEt6SwHYIXP2qZy1XvkJKnSyiPA4tftZdqp411UQxi6coo2b2m2KytxH2zU8/VvUzTtPvq23dhPB7QCpceRt4bXVM2AiwMlKMYv2yDROhv5f1MWuNfYSxxs/kedy3/wZ5P4gamlx7iqfKp7MPi9MwdbAbmEdR5SP2UfSXXxQd9yvN5Q1GuvFW3MVR5dMEWMch3qW7ChvM2zimQVi1Hmbl79jTl0ef89pKg7ckcHgR4Abk8FpPZlMR0E/E0k/G4kUC2ybwqc9eudzxTvEN6d3JsxdPHmE5kdaiRooRK7KiuEG/OykteuveAxIlmlZBZseasmcxsfsrrOC/bbPaEjuzT8PycbFiRRmKxPDH7wEJ/uASr1BIcYtXKmq+7fOgzwGqaTwv9TrG+sm6YGFtfve8zO17PDs78gWF+28spTbcWYvnAObDny50zCjxlvwGfxaPPR6ej8Wrz8vcfv3Kw8z+8Px3+fq4czqUvgfkQee8frnLcaf6QvMnCRyGBLgBOQwXlSk5gQ9+8IPLIx7xCOIgga0T+OGnfvfy7379nlan2Z/FWLE1Dyv2CFZDVrWd13g5RYo1K/pEEMWhDel9FIPWjx7ura2LyhhHCdnoRcfjQbEJDcyo/gwLQwdoH+FabQ0bmTgE6i+uBARB23buCw5jM3RjMvKRcdFDURtlsugU/7vZb6NxfymLGGq7+WdSUOryM3/ivuUDZcS7ZlxU6yI+EqwC84wQ2s5++WBe+VOs6SVKrl1NN8UZP1jADO+jp61dnaDrhtLMfq1Z1qdEGOZrtbBWN8OwCQpwH8fvG+Io/nK5VHFyze2LYqMP+27guDs+bPnO06+YWKOIBA4fAtyAHD5ryUwmBF7wghcs73jHOyYjFJHAwSXwB3981fLgh30+i1sUuV4ceix1MVMOsqP4xwmxlJNZtMoE2NETZBSXw8k3ysZwUE6SpTgt06LIdX+w27c6YfbKR/3ejxJHZV9SzGIsb0SIvLpWy+acMQezOt/kovZ7M5Ffx3FVHMhfDRVu4G7hOzf4Ke4Cg8+rQTd2DigOMa72hV9ZtzauHOjsIg+0qQfulf4NOzfYM4YFW+uvmtfkFXanfqr1QR5ips1L85T/6leGZvYzHzUQM2Z6HocZdD+pPfKbza83cdPxPl/jovF3eUWeOuBcw7/p75fvpz9uefR938aP3RVuvA5vAtyAHN7re8Rn96UvfWm5293udsRzIIDtEzj//Pstf/QXFzXFz7qo6qJvppfF2axKjGKm3tz0NnazD/3cK+iNl1Nd65r8HhDngJ/JbYVgWD+sY6ev67TuSj95U2tXRXnaD8V8AFy/dqMb3BtlE9Jc1bRGbp2Jn84+5kzD1MFuoI4Hc62t4phtPqDbmXP7GJR2GMdYMyCbg0az5AkLmabOW3PlcN60yhDf5aQfWB506tPaQfZI4DAkwA3IYbioTKkl8PrXv3555Stf2QrZI4EtEHjL//ATy4888x9lE4ITdC07tKjxq8hFmieqMmZq7UkpToahpy2/BwRclZ9gA96GH0pH55mKwbvmqetRb7ra9VH7rb9D9XtASh6Sj21eF3mW5FOx5EsK9fFUDIVL25/zARebiAnOK+xbKe+GZdwxZ7fyt5t9xKXraHmY/cijWx8dd73I5zb2PSA3Hn2X5XH3+Tf+Pwb8SQKHOQFuQA7zBWZ6TuC+973v8qlPfYo4SGCrBLRY+uxXflxikDf6atE1uaIWs5rMf0yUosiyEZswVNs5NMxuHGTtt9KV12xRrKcxLR/94veACAerpkGktLbE4A1xs17gL3xzXO5s9+QCTM9x6EUbNXX3PJWAfL7aD0s5AfbLpqMzLa+C6HMqr21hucWEWZF++/xW/kTBNwWwFn4Rr7RFWzoY1nbsurD+afp4HmFJW1ww6KZ7+9BCC+1wPyTo4xW/NOgWyuYNFtt2bl90wmE9fuY9XrqcdeJ3tAbYI4HDlAA3IIfpwjKtlsB73/ve5WlP48vaLRX2tkHgpVf82PKq1x4bRRqKPy9DsjaUrtWg1kaxBUFsPvpXQKoJUhyWE2jo+bhkLLXa1I8MaRSq0MwXv3U//Yhebj7EIN4Dglb1Gj9h30pGTzfGW/t5oq2BothrDI0JWHwat0Xf5jeaCX+mX07KPd6KW593ZajwKOuUwyXqJr/k1tn1Vxz2GocYry7Hsprf7L1CyXePcdyon4oljkS9ySftdBwhR5sTaz1ZKX8uW35NPrV+t/6Ff1kve7DjCZiOWwICD3nIrT8vLb+Vz0HEUwy085AvWtWbPY853vFfjjtnefTZP1etLm9J4PAmwA3I4b2+zK4i8OQnP3l5//vfX0l4SwLbIfDXH79qOfXuX1jrXGsuLZasiploZvGEMieLNFfeZTqqLysqJ+ZTpHbsMoNRvWVgugnh94AEoaYZ+DcCLKwWqfWAyuMKsT0HkE3anJ03tdIaP3t8XvwLCuVPsfYUT5VPZx9RTcPUwW5Au+NV5SP2s5ivnkfMSXN5gxFvV4i7OKp8mgDrOOTXVLq7rtNKh/LnbhL/g8/+JfnY3bu3QbJHAocxAW5ADuPFZWotgQ9/+MPLQx7ykFbIHglsgcATn/jo5V3vvbedLPsuw4MoJ7da1EjxY0VWFDfoS7Gy6mR79XtAYi8TRWE0VjSheIK/ggP+2zarLZk4+zQsHxcrVpShSNR8JA/drWTtBrueH/zjFYEw4BNR/M0CN4MzfuAmY1b8hT90lWNnr/BH3NKqXvgv45GPzPe4vT9/DwjyLP6KnWLfXxGQQMuCxPrrPIhRxSJfyLUt9jHB/ET86+0jD8TT2rc/xVIKlm+7XuI5iTZ5rY0nZmViYiL0S/qRzy72kbe29vx3+bbrU/JLPxn9Cn4Zl4zbAtuDXcXr8xCHZ9by8zRhHw5jnsR73B2/c3n46T/hk/iTBI4QAtyAHCELzTSdwJVXXrm85S1vIQ4S2DqB3/rtK5dHPe5LQxxZk6HWrNvUluLFimIR2LgWgXHvAu9DlL0QoGYcu7Wm3TfFU47CQPVnWBjr4u260CptKKifcsE+JJGfdhMQxtp28NcJum5MLv7afCEv/of5g2CMJyWqa1exm5tJDHX5mXlRb/lAucKRtsuY3nl4eF7CkFXf0HONFdPNwH6ZZp+KJUG4ttuFhdhOWLfwwyhmeB+99NcJum4YAS/kG8V8tTmBN2SMvnEr0yHOdvBnguAkWj5e8UsCbsLz9bjSaHUztx+GpbnxqOOXx9znLfKxu8dWs3hLAoc/AW5ADv81ZoYVgW984xvLSSedtNx4442VlLckcPAJnHHG6ct1H71YSigtbvyqi5k8oY0T2DwhNv04yZUJefJaJvhJda2HoikclJNqO8gtNb0F4sUd7PatxjF75aN+7wcMNvlIilmM5Y0II7/Bj8SfMxpDURyuyze5qP3eTORX8xm4FK6ISw0Vbhgv/NJPcRcYfJ7mWbhgvrQHFIcYV/vCr5hr48qBzi7yQJt64N/p+7g4i7B35A+FbpI3pWM+WuMiK4tXWCBHO/VTrQ/ygB/0y7IVfiP/wtECjSdsptfn09uv453NxzpZvhl/8V/PtwUynhFVs16+fsj3pJMuXb7t1B+0deUPEjiSCHADciStNnM1AvoKiL4SwosEtk3gF173vOXHX/StaRh1kTlT8BpeijOU9c0El9ebm95Go94PVv3cK+iNVk3wl60r619X2ZUTpAd1ubXprtH+DH2LZ9CDgapVxTSs8vZKP71aDNTiZqYNiL2wn1wbpdLZjd/gpxN4t1q/jie6Fk5xO9yl2bypVQq3kk8oZgKur9J1l6rvk29J3zf9lvSJn84+bE/D1MFuYGU8oefmY3MyeR46c8MDOIxPA5ytTz1T/cvTiMcGNiatzrIrb+TVj2NOWR537zdihC0JHFEEuAE5opabyYLABRdcsHzkIx9Bly0JbI3A33/1JfKKwlfNfzl51aImiqus7byPk9jZifPq94CUE+rhJDiKp/SXJMJfxJHjqLaknb0S0trHCfGsSIN9r/lhP/NTv93f3DfVHuKois+WX+4lorgFv+jKPNXP6lH9ST/jiL4oCBGtGutxTIO+9+fvAfE4YFf9NX7UrvzDes7jKf40Dr9gZ7QPTuZnT/aRR8QRHkqc6l/97SzlU7Hcv8fT8yn2hnwsnpiV/A0vwo52b/YHrl2+Pq7xKydfb2/EviyYyc19+HNFm3Bz+HlmDrDl5+tky2e4jlrOusdVyxknPDhosyGBI4sANyBH1noz2yCgn4aln4rFiwS2TeBZz/mh5XVvukuG4aWcFCsqsR85VN1IsYTBKGasaivVjelOp5t+sd11Kx9+m8Wa3uSFIlg/wUc+glf8Tl8BEf292Y/irLHf+wtLUUQi/ZwSN4O/TtB1YxY2GR4HilYfxIzWk0rtwnAKMBDLh3GIrW/VcDVd1zOuLj9Mz3Ho9eqNQpWP6GFTZ8XxYL/ddHTmmwVUFzuyCdk3fI9N5U+U1vFTG0VbOp2g6w7huH5sFtKSWsQFCx1/FU8uaOewCcRePO8+jt83RF781ZuMifk+vcx3/7H3lY/dfdVsCmUkcEQQ4AbkiFhmJjkj8PSnP3259tprZ0OUkcBBJfCnf3nVcu59vhAnv177lIPYKLYgkKKrPjGvT4BhoBRFUVzWRWfUVjCXrWTsRZj7g92+zRNtiSM3H2If7wFBq3rpVgzXpZvVdhnH3F8zozGUExNUOamOWeov1GrHbib8dRw93nJyP+RdGSp8J36Co+Vrcbi/DMi4VH4OKI72sWzy6ewqidlzgryGfDt9j1f8DbiP8i8o1NWPhdzNjz0ItX2JzF/xafk1+dT6PtCu9yRff4JXPE/2QFT55Dq1+gMX+Il4aiDlOajWM/Sdv2m3vwcyfqO8q/8hZ/8iP3a3fZzZO8IIcANyhC040y0EPvGJTyz3u9/9ioB3JLAlAt954cOW3/5PD2q8R22HXUEzph3dLKw/2Y7iZ5gZAjfgteEqHZGrml2mP1b1/B4QAGrbwNvxEx0DatsT6fgmoayUyuMKA/YcQDZp00/e1Epr/GRR7/rT6TpUxQFrKtZPxcpX4VRgV5VPZx8au/kBMNUbL0TQbRqEYwYak9JP3rTWVoiLGQugygcgujbTNP3WR92zdYwwj73To5bvvNfz62Hek8ARR4AbkCNuyZlwTeCVr3zl8vrXv74W8Z4EtkLg19/10uW7n3y9HMBqcSUlKU5epWjx4iWKriha8Z6Boufvyaj74ysDZrg7kXX7mFeSb4u8HJe4YOCA3wPC7wHRhRV81Yl5t546Dr5Fz6bZPN+s+Cr5cwJ1tzvM35P9Pp7V9hGevvp1k2xCPB6tvru8Is95PDErE9DpmN/lI3ZFstI+nktt7T1QXb4+buarce+b+7S+gl/GJePde5LK+hR+npkYVbv+6xat27/h6Dsuj7n3v11ux4/ddUj8ecQS4AbkiF16Jg4Cd73rXZevfOUr6LIlga0QOPHEE5f/+2+f0hQtVe3lNVhGJsWMFWUisNpMi7S4j2LNBd006KCmiylVF9Oy9SIqirOUYkb1Z1gY81oxHXddaJU2FNRPuWAfEu3HlVUdBG07+OsEXTcmF39tvpAX/8P8QTDGkxLVtavYzT9fwlCXn5kX9ZYPlF0uNfLqcVFd90qZL5Q+TyuuKr9e5yb5RKwd+WQsL7p9tPCDPRjwPnppqxN03TACXsgXzyPk2uKCBe8bN6hBpWqhra1dJpAJAdzH8fsGQ8Wf55vqsJJtb/+kk35seeDdvi/HeUMCRyoBbkCO1JVn3kngHe94x/KCF7wg+7whgW0R+OlXXbZc/nIUWWij2MJJ7PSEV8ocVKEzPWxKoloqJ7fNtKi53F99slz03c/slY/6vR9myOKo7AvULMbyRoSIt2tloMyoqzzRg320Ft+Ui9rvzUR+nf6qOMBBDdUc6pN1q1Xhp7iL8Mr6NfEi3wOKQ4yr/Wa527jyOejsIg+0qbcmDizYzJ+c+ZsH/VQsfWP67BU55TX1I/IZv0Zd85T/YFftjPxhp3mgpnoehxl0fp39msvUj2XrfqbjEV/ma/rx+AWGbx196vL4e/MVd0HPiwQWbkD4EJCAEHjEIx6xfPCDHyQLEtg6gb/57JXL7e/4pabInAWVxdmsSoxiyUvE2ey2iJ1ruDRLO70RuygLS+t600/BgnrMcs3uZziw4nPQg4GqVcUmjtaehamiXi0GanEz0wbET9j3V5jU7/yqi+WZxuCnE3hXiuoh0LAW+hbOzEGrhrA979Qv3AY/mYArq7t1l6mLQq+nm9GbZBMC4Omnsw/bkdZgp8Ew8YP50HPzsbmbPA+Dny7wYRwOmoHZ+tQK6l+eRjw2sDFpVe/s0165nH7n+09GKSKBI48ANyBH3poz4wmBP/7jP16e8IQnTEYoIoGDS+Cpl3738rZfu6cUNVFcZQ3pfd9UxPmzVDXQ09b+Bj7mpbzejGS1JDlF0YTiCfol2/DX2ctqK/z5R/DGR/EO9hHfrEiDfa/54T/zU7/d39w31R4Cr4rPcjJd+Rv4oVR2/3U+ZT7i7otNyGG/7R/+3wOi+Zb12qfPn/zTLyjckT/HmvIrE3xc9JPq8LyAq7axPtP1BffSamDm3+x7XCUe2PXdgrsV/YP4PSA7x99/ecxZryy/XrwjgSOcADcgR/gDwPQLgWc+85nLu9/97iLgHQlsicAf/PHLlgc97IteKU9j0CJOyzi5rJqLqrAq1jBkOvWPrP5c2HVrTbvPYk1v8tKq3q/8KF4IOoNdF1rZZg1am888oJa7CFS/K9kM/jpB1w0HsA/zWszCN2ag7+0wnIKiZ6J+uvWxXrF8VjTHvARS/JToim3cpXrjv8xw93hewq9tCmA/inUY7FvEL23jotJTC/qG9P320bzYPEABBryPXtrqBF0XRkprCro+tabmiwvyiBddbSfXMGyC4CT6Pl7xCwlM1ZscyOpW59+4/3bysbs/v5x03N3rId6TwBFNgBuQI3r5mXxN4NOf/vRy1lln1SLek8BWCDzg/Pstf/TnF1kRnCfBOEm2YrU/4ZUyB+M4CUar+lmlSjp1DVpPkyEtllShFFXiB3aiTT+il5sPsY/3gKD1E+kqrLCvpSJqRw9r7s8CRbGX8dcBl0QsXo3bonf7Em76wUDjz/QLR493zBf51/EUPiU/MQeAcGf+cz4C6njmKz4aT+RZ7PfxiI/qavLp7Gq8ukk1+6KIONAO+Xb6Oo5EIqwmn7BsHjzu/cuN+26Y+sFCZDwZV8uvyWcaj6//jM98fUreQz7C0Z+X9vkbuIBrxGN+AsgsjuRr+h7VsXd63PLw055TrRxvSYAEuAHhM0ACFYFXv/rVi/7HiwS2TeCtv/yi5dJ/+rUsavt4sngaqkTXzGK8n4h+KGgtte7KYdMfq3p+D8icXuC11TGNRoDdim8S6uI5rYX+XtbHrDX2YWWNnyiiEeB0upqp4oA1WK9bfQ70z7D0z7HqIh32obubH+ir3nghgm7TIMV+BhqT0k/etNZWiIsZC2C2PvVMjUOyFfer1ukbR91peey5/3q53dHHtQGwRwJHOAFuQI7wB4DpjwROP/305bOf/ew4QAkJHEQCepL6mS8/R6qbm+IAOYqu7mQYJ67arn4PSJS4US3VRROKJ9gpKbZFXo6XCebvgN4DolVq1oqw78Ub7OMVAVNEoE0VHNUe4jCDHnU5kZbZKAp7f6LqJaT7T0WZUOaXk/M6njIO+9Dz/vw9IK3d4YS9W895PMWf3OUSAY+3K/LZk33kIa3pgyf8aos82vXSGfnKhgSC94NAf8gn7NuyZALib4V9z9dXrPCv4s158fx38Xgcnof9fsB/PB/5eKg84/FdxeCve0/SMK7zxQ4u7d715MuW80/h+wvBhC0JgAA3ICDBlgSCwLve9a7lsssuIw8S2DqBy6/80eXqVx9farCMyIs+61rNE0WP3qNYD10Txb01ph9q0aAIq9Vw7zVZFGcQWpHlhvLPsDB2gPYRrtVusJH2IShFne3GpOi0eRiu2s59waEDcg3jJi0E2nwhL/6H+YPADOaPcOv97BS7WbxjhgeQ+Zl5UW/5QNnlhiNtlzG9s/laXCPzzj40VkzHsLWrdOpti74xfZ98KlaJ1yNAVOilrU7QdWMaeEkYopCbm3xOyvqUgH2qxVGmI4xsB38mKMB9vOIHjmHB4/G40mjcfPOY05aLz/2FXsw+CZCAEOAGhI8BCUwIXHzxxcsHPvCByQhFJHBwCXz4E1ctp9ztC1p1SfGFUi9a7Ydcx6M6G/VQNEW1VE5uzSymWSsSnw9/Xat+9CS5f+Wjfu8HDIY77wq2LPbyRoSd/cynLi4bQyXP4mcVF7VfHLuZOcdVcdTxFG7gXviln+IuwnN/w/ogb+Ut//BejfVxiHG1L/xkemM/48RAZxfjaCsDYmfk5+PiLP20/uoZPZd9O/KpWIt/KtbUj/qz/Esegx/N09wXfr2fum+Bxoxa3uZb5dPZr/Vm8+evhCGP0iLffcsxyzn3fPlyBj92V0jzIoGRADcgIxNKSGD5i7/4i+WRj3wkSZDA1glccsmjl9/4D/ce4sjiLIqupiqti89hpgvqInaFiolzr6A3WiXCX7amJgVnXDlB+lCXW5sOnboNfYtn0IOBqlXFNKzy9ko/vVoM1OJmpg2IvbCfrxg0SqWzG7/BTyfwrm8+pvmEvoVT3A53aTZvapXCreRTGbbNiuurdN1l+YrCKj3/67qyWdi3I19QqE9FNyG892LXQ7hr/NjEWKbcNEyeh8HPzYpjtj61Zc1XVg+PTQVw3/HftjzmzJ+qJLwlARKoCXADUtPgPQlUBJ7//Ocv73znOysJb0lgOwSu/e0rl0c87svTk2oUYdqufg9InFdntSR5ZBHnNTfslAy9mIQcbVZb4a9/JcTHYR8nw7MiDfZb/zhpNn/d39w31V5WfahaYa8rCnM4xiU0LyG9X+czO/muNwdlHPm0+c3fA9Lmp/6KnVgXiah+BQR5Fr3iz+PRVYKd0X4zX/V2tY88EI/aV7uQq//RH74HpLYPPX2+9FOxtB3jgRjVu+iIXj6eJnZ/oWkKJR7EVdrk2uXr8YgVs+/+3I/YlwUzuVkPf65oE8xfZy8MlfHkUuL9xv5jl28/+7Xysbv3EMu8SIAEZgS4AZlRoYwEhMAXv/jF5dRTTyULEtg6gdNPv9dy3UefWMUhxY78s0sbFE1e7akgh+ym/mH6Iqinl26tafdZrOlNXm5fu7f0PSB10ZnmMw9I1F8EnhMw1rZdejltfb6wjyJYi0nYhUX0vR2GU1D0TNRPt774Cwc+rOsZV5cfpuc49Hr1RqHKR/SwqbPnYrAvRbj8a6bXPqoAVunUFnzPqPz0W0HkD7HklRA8j2q2MudeOkHXdZ36pym4fbeLGVAqfb0bHULPW2ibburP1qfWVL5+lU0RJMty7J0vWR5+z2cUAe9IgAQGAtyADEgoIIFC4HWve91y9dVXFwHvSGBLBH7x9c9dnv0CL+bmJ85RNHUnsu3JugRf1NoTZxnyIsyLO5xk92292cnNhxSbeA8IWtXLWlcMa8mWJVzc+PjcXzOjMTQmUE6qY5b6C7XacePPiu4oncN+KSb1ZLyNq46n6E38dHnCTgbU2cXmoF6nYr+PQ4xXV5NPZ1fjnT0ndTyNn07f4xVnA27ngk2Hto2dLo598tG8O/HRvBmPROb5tvyafKbx+MLO/Fmg8YRNxyUuPIDmR1Lzx7CNX/Oezcc61UBmel8/6sTlcee+kR+7Wz2nvCWBGQFuQGZUKCOBisB55523fPKTn6wkvCWB7RD43FdeLMXcP5jzLJ6aqiqKLNHwcW+n0YaCFmPrrhw2/bGq17/9P1r+m74HpDKcdiqZ3ZpdiVNasW5xFxVIqjb0O8WcMgyrYHINYptY8vNXmNTv/PJi2eOeaUzjQBqZqRS7zUpV/sLAXtbHzA4ONSo4nPjJBDz66XQdquKANZ/R/uzfA2ILGv5vsk/FUkNpbly+LgDXbn00+Uj8uZmq8sSMNJc3GPF2hbgLcMINQKJNjBHwSSc/dzn/5O9qnbFHAiQwEOAGZEBCAQm0BK699trl6U9/eitkjwS2QODZP/6Dyy/+m7tK6YMT5FKEaTG2+j0gUbpFtVQXTXYwLMVTKeaQ2Pwk2E/GbYL5O6D3gHiVGkUe7Eu38j87ac6qcBa4FZ8eczmR1nzcbqlNw5+oaq1Yv+IQAUjT8rS+aGKTUMZhH/ren78HBHl6q4EVO7GO1Xpm4I1e8aeR42pxFPtNPhH/geXrHmb2wRXPi2aw6nnUPDWfnR35gsJFv88G+XoWGPcFAZf2eQhNW7GGW8PH16F8z0f4UX+mZ2H474fF630LTyzv+Xnwvy9DgO06ip+vH3368oRz/yWWhy0JkMAaAtyArIHDIRIAgSc96UnL7/3e76HLlgS2RuDP/vJly9n3/pIVfRaEVU9RlOp9lFMI0ETo1MMxYNNjVq2Ge68ho7iF0Ipgn5l/hoWxzmDXhVZpQ0H9lKs/ay9FN4prS7NMyLvBXyfoujGv+Gvzhbz4H+YPggzFbnQ4r+wUu1m8Q8kD8GUUmZkX9ZYPlF0ute/qcVGdbuoyFvOwCmcE4IHklOLe7sq2Qr8NXR0ioJInvqDQvbnZmKwBpmAYN6WisNv6lIBtonMp011Y/Rz8NfHDmm+ySqBq0C8s1w37j1nufc+fko/dfQCG2JIACawhwA3IGjgcIgEQ+Ou//uvloQ99KLpsSWBrBC686KHLe3//wV5USvWDk+gs+uzEFyVhaa14imqpnCSXWjFrRrFcxov92g+/BwRcCr9pES3FbM3NqmGsD1rlLf/qVyhW8/fHDkWvt+165XPQ2UUcaFNvTRy++5Ei3PJA6/7Kk9X6X2f/xh35VCzNVgy6Xsuv8WOaMq55xECZh/mlVU1sF2Z6nq+oiJqZS+02ftWbza83cbPxfcc/RD529yqxyosESGAvBLgB2Qsl6pCAELjiiiuWt771rWRBAlsn8OvvfslyyZO+6sXZrErUok3+edE0D7cu9uYaLs0TYr3R6g3+snW96XtAoB6zXLP7GQ7qorBowEDVqmITR9HWOwsTN9U0DNSzm5k2IBPCvvJzP41Wdnbjh9na2tUJvOvrNM0n9C0c2Ji0aTZvaqUCoORTGZZiu+ZSz+zvLV8R6uzZtfo9IEVbPxXrJvlULERVRuSui3+VH+g5f98szPh15obAh3EE0wzM1qdWUP/L8vX9xy3fcfZr+LG7YMiWBPZAgBuQPUCiCgkoga9//evLySefvNxwg57i8SKB7RE48cQTlv/rvz11OKld/R6Q2Ix41ZbFXnaliMqT60zLizvI0fpJsk048PeAaO2WF+xLOJV/nDSbv+5v7kMRE7zNchb2vCi02lr9odrFybaIXOz6dT6zk+3KQMVbeal7nMB7f/4eEIRb/JV52CT262NABvs6z+NRiMh3tA9O5kf15F/9SkIzDi5oTV/t9/mN/tZ9D0g+L2JPLBkg/d4N/YZ0/WQsk+YDKCrG09QivOCF+dI23BBvtLogs3w9DtgFV+2LvsQjzfrnQf3uwu92d/o++djdH1NkvEiABPZIgBuQPYKiGgkogTe/+c3Ly172MsIgga0T+Omfeebykp9C9RTVW1WsaYBarg4XatgY7LqjuiiUYhLD4i+uW/oekKxBIx43q/ZrAfqRJ6pGBFG1Qz6doOvGTNgXr6KAotUHMaNyIrcqtQvDKcBA6GAcYutHHiLzYS1y40og3sf0HIder94oVPmIHjZ1ehcJZgJZXHd2s1sF0LhIBTVVXmvzPaNvBsxfZAh1tbFv/w22eTVZZV/7XddUmh+msNp+sRAp7mJwGA77xinj8U3ILJ9/WO6yXHzu6/mxu80isUMCuxPgBmR3RtQggYbAQx7ykOXDH/5wI2OHBLZB4FOfvWK5/R2ut5NfP8qV6gknwWilOLSTcxTtdQ3q6l6TSgJae2mRtdtJs00Qvdx8SNGM7/9A63FYOI19K42tyBN/5n/uryn2siivAy6JlJPvmFWpSZhZkzb+NE/5V78ysDbvylDRK/nlcHHX5Ld2ffYch65PuZp8sN7RKok6P2wi0U6fky4O6RrQFr+vFzYd2hYe0uvjQL+KZ2e/vA5iH83b8mvyqfTV/kp+Vb5Y6Fk8Pr/KR249vTb+gUsXfw1EN1snn/KC5QF3fWRZFN6RAAnsiQA3IHvCRCUSKATe//73L09+8pOLgHcksCUClz7tkuUt7zxNvJdi3KoqkUTtiO4YYShobbfuymHTDz/qLzzo3/7ze0BGgoG38G8EhZ9uEmz9sg1bId7L+pi12kyGs8ZPFvWuPJ2uQ1UcsJbmq5vV7wGpLeumyC/9ckL9U6y8ajURQi/H7QYRdJuG6nmEfprLG4x4u0Kc+XoAGm+tWfyr4teOOXt54jmvbg2zRwIksCcC3IDsCROVSKAl8LSnPW1573vf2wrZI4EtEPiDD7xs+bYLvmgnz6vfAxIlbhSdWXtKbSUHvO1JfebQFnk42a4mHPh7QLxKjSIP9lv/0z8XQhE4C9yKTw+6nHyXvEptGv5E1UtK79f5lPnVSb4YQBFaxmEfet63Pz/q7IMbWvVX7OjrB26/fiUmFqTSK/7kLleoxbEinz3ZRx6IBzzhV1vE3a6XztjtlZbMx95zATtHLfqpWMbWFgTy1r7n6yvWcMt4MC++B2caj+dRviekyqtbr7XPg/99mQX4reXY5T73/Of82N18GnlDAgdGgBuQA+NFbRIwAh//+MeX+9///qRBAlsncP755y3/+c/iT0C0TovyGoGZCJ16OAa8tPNZtRruvcj1Ig+yuijMP8PCYGew60KrtKGgfsqFk2ZIStGNYtbSxHDVDv46QdeNmcVfmy/kxf8wfxBUwcitDueVnWI3i3co5a7CBWZe1Fs+UHY5NpFFWu48PFk/PBedfY9Qx1dcbsDUVunU2xat0bOIt80SDLj9Ol/dUNykH80LHKIC7dZXUfDw8TxCri0uWPC+cYMaVKoW2unPBDLBJiKeil9EeOPx37581xmXV5Z4SwIkcCAEuAE5EFrUJYGKwCte8YrlDW94QyXhLQlsh8Bb/90Llqf+k2960YST4fokGGWdV29SW+HEu9SKpYj14q6ceLd9LS75PSAjv2kRLcUsOGZRjvVBW6/TsD7wg9afr1CLvdi4Pl48e9GMV1YQB9ohnkkc3WPT+JOIckZ5nhCnJb76eayeP/tUrJ2bbBPS5CWp2l5AvezKxTUxY3U8YjT2FtiT9HyUy2w+slUDX91//HLhma9eTjr+Htv5hadXEjgMCHADchgsIlPYDgH9P6lTTjlluf7667cTAL2SQEXg765/jvTkb5y0WMvSUIvQ+VUXe3MNl2ZpZ4ZK2YZiD3P1r6vsygnSg7rcroqjKXIHPRio2siv92++6/lr4oA1zLHW9GWk4ucJNFrZ2Y1f7b7Yl7sA4eO+SSigNLK4woCFA9mkTT95Uysh04mfTMD1dfq6y9RFYZXe6veAtFaH+SK4yd6QLhYQ7ho/zfMSm4UysfBTP5W5IfBhHGE2AxNuEsDt7vxDy8PvcSlmsCUBErgZBLgBuRnQOIUEQODtb3/78sIXvhBdtiSwNQKXX/n05RXX3CFP3HHSjZNbnPT6ybeEKdVZ1qBSdEG/JCDFlyhAjtbn24TpKyGtfcxX++5vtI84wp8EZn+mo8Vl9Tf3aQCG0GaZWcdb+UMVqvY0HwnAa0zv13an+VYzyjjst/lZuJ19hFnzK3Y0HolD/rXr43yLXvEnd4EQ+bb8hnz2ZB95IB530fof/d2c7wExDl2+6sc3IRpHl4/l6ytW4qnijXXViTbe5evcK36mp33RlwWTZv3z0Nn7ylEnL0849xeXY48+PtaBDQmQwM0hwA3IzaHGOSRQEbjooouW6667rpLwlgS2Q+DDn7hSPhb0S+Lci1Qt24bLazmvumSw647qopDFc46iCNbXXOQjeMXf9BWQPdv3ojPNW/x19OovIs1dU9Gu74Z8OkHXjamw73GgaPVBzKi9eDQmwbC23WUijGPM+uJP85DLh6UYznG5Q1Wc45U/6EWbONKADlT5WE/tuyfz29hvNx1htjQxTac3LoqGyH0bpSLfM/pmoMSh8fhVmWsEO/KJWPvkT7GGcUxEawqr7YOoqlu8uxgchsP+uD6ySVqOWe528vP4sbtYC7YkcAsIcANyC+BxKgkogT/6oz9anvjEJxIGCWydwHd/z6OXf/8/38dPgvWEV6rT9mRdQoza12pQKbaylSGtvVRht5NmL874PSBN8V9q/lJEG98olhN0x1d5y796nVbztwXKH+6/sxfrbutY2cUmEq0ufONnEgcSqfPEfGw6tG3sdHbTT2cfdnJc5t20c6OxMHudfnlQ5/7swY6AZ/H4fHu87fHFcoH7LJ7GjsTzD8ecu1xyzs8mf96QAAncfALcgNx8dpxJAkngmc985vLud787+7whgW0RuPZ3Ll8uevRXUDtaO43FTnpl0+G7jqmKCnPY9GP3IsWYj/grH/wekBFf4O34AWjhl69M5IqFrTCwl/Uxa4NDtbPGT+4q3N90ug5VccCaz2h/rn4PSG1ZNg/ttLSvA8rCPhUr3PaqTT4Sf24aqjwxJ73mDUa8XSFu4sEmTtuv7z92ud89r5KP3T2/NcQeCZDAzSLADcjNwsZJJNAS+PSnP72cddZZrZA9EtgCgdNPP235i49cksUZ/jjGi1Qpu+yE2ho/CZYBr0X9ZLmEvOKkWeZj4uzTsNqTZhSJ4c+r1CjyYB/moi/FXhblKJK1OtUiE/26teLToy4n1iU/G7bpsB/u1U9tpzu5R3Hr/Nz/aL/Nb/4ekPAb9p0/5kmrccg/nMQ7P6wT9JBPcIhFasNfkc+e7MMP4gFP+NUWeWAZvK8z6viL3iQee88F7NTjWF61pJuQG9OfeJbBnn8Vb8bln87W8/R4PI9b8j0gNxx/0fLYM34iyLMhARK4pQS4AbmlBDmfBILANddcs7zmNa8hDxLYOoFfesNzlsuep9W+l25NQKhhtZWr67qw+ulFbhSLKS9F4S19DwgCUD/lgn1ItB9XVt0QtO2QTyfoujG5+Gvzhbz4H+YPgjGelKiuXcVuFu8Y6vIz86Le8oGyy6UGXz0uqijKrZjv7OMJyNCKab+r8lulU29bdBOWm6hq8wCzY76qL/+FcW2Gb0mvFHZbH+ST/iyeYh9ytMOwCQpQ7X5l/x3lY3d/drnr8ffENLYkQAK3kAA3ILcQIKeTQE3gjDPOWD7zmc/UIt6TwFYIfPb6n1j27f/HafE5nuRXNaPMKOPjSbMWl7NXPo4OeRafdjJd7KLGtLau+kxv4ieLzigGRc+q7Elr8Wrc8g+vJODkezQT+XX6GvfavFVfqt/2hL/kl35ktTM9uYF+y6Wyc0Bx+KOUe4jK/uCns4txtEM8nb6Pi78Bu3MI0kZ85GKB5Xrttj5tPjqt+lQsjSsUZn4yHw00yM/0hnxSu11X1Wvmi91jTnjq8vC7/5DD508SIIFbhQA3ILcKRhohASfwm7/5m8uznvUs4iCBrRN4znN/YPn5f3WylWSzYOqibzYOWV1MWzVaymtR0aLPL3+9Re5zgtyjJgyxa3Y/Q9/iGfRgoGpVMQ0X/7Cqo3b1ajFQi6Fa9MVe2NfNTJ1foyud3fhhdrhtueh8sy7FbvrBjPAUXQsnRLMGsxosqVi4DX4yAVdWO+suUxeFVXr+13VlswCOvc1hfibgmhjfv3/HPpq3nw9cHn74mzwPndkh8GEcjpqBo5YvLacsl5z78/zYXfBhSwK3EgFuQG4lkDRDAiDw+Mc/fvmTP/kTdNmSwNYI/OlfXrmcfe6XrcjFKwPDSXDU3OUkGeF2J8FxMuzzpUqT/uyVkNY+TvpN3WtSmJei0U+apTY0c9FXufyzePwzXaEwb6vis5xcV/6yBod9r0VbHp5PmY+462oU8WoL+9Dz/vw9IAjb5yufxg/yDR7Or4+n+JO7IAg7o30EaH72ZB95SGv67qLEqf5Hf7fW94A0mwpx7dT9U7F27AOeXVLiqeKtnstZvh53xc/0Ix97T0rxp/Nr/t/aOWa5+ynPlY/dfVQ+tbwhARK4dQhwA3LrcKQVEkgCf/7nf7486lH8P6wEwputEbjoEQ9dfuv9F7T+vZbzqktGum6rq+NWk0XxnKMogvk9IOsAKtscBzsDHru+HBa+OW7AD3B9fJ1gQqrosAz3at8cu6IU4XBom71q01FsxF1MU329nV31tsX3jHheEIe2flXmpoJ+XD8Vy2OvDay2j4xV2+LtDYYZNMOwCZTP/uWrx5y3fPc5r4IqWxIggVuRADcgtyJMmiIBEHje8563/Nqv/Rq6bElgawR+490/sTzh+/4xTnYlDK+t6oNe32TIkBVsWoxK8VVOvNt+ThS9fAO66OM9IGhVzzcvVsupW7NvbVR9Pt7ah99SRK8KuMjLyXfMEvtWY4cfOG78aZ7yr34lZG3eVQZFb+KnyzPzQUDGpeJ7QHGI8epq8unsKok6P8SB1tdnfRwtt1jH8BPkjGDhUdkLvfSzIp4cN/3CE8+L5nDTvhuqgd2fl1k8/kAIPDw2cuuPR2sP8Xxt/+3lY3evXM7kx+5WTxxvSeAI12yxAAAda0lEQVTWI8ANyK3HkpZIIAl84QtfWO5+97tnnzcksC0CJ554wvJf/9+nju6rTcA4WCSqZpfpR/WmVVyUb/q3//weEEdU/wy8RsnkjaDw89P90k8boa+bjHVXms2bWrvYHfz47sWXUaZMp6upGDD16Kq4v1a/B6S2rJui7qqHZajrmvI++ZZ0/WQs2z2ERr3JqOWwnnbyBiPerhBnAN867lHysbsvaCexRwIkcKsR4AbkVkNJQyTQEnjd6163XH311a2QPRLYAoFX/Yt/urz4J29nr2z4CW9zoByvVPhJcAmvPRmuT87x0sYBvwfEq9Qo8mBfulINwr6/ByHKQxTJKEvRr1vbDHnUpSgt+ZW9UvgTVbce+crJO/Ip86uTfDGA4r2Mwz70vD9/DwjyLP6Knfp1hDI+xlP8yV0uUY0B/Pyk34CKmb3aRx7QB0/41RZ5AJf3dYbywStJRW+Sj73nAnbqcfFny1D8w56lK+nctNy47OzsVHG0dtRv+Z6PPh7Po4xXeU2ehy/u3HF55Jn/gh+7m08ab0jg1ifADcitz5QWSSAJnHfeecsnP/nJ7POGBLZF4FOfu2I57vjrUX17K8FEqW/tLDYvcqNYTIVysp5/hoWxzmDXhVZpQ0H9lAv2ISlFN4rzVQEP/jpB1w0HxV+bL+TF/zB/ECBmb3U4r+wUu1m8Q8kDaNdH1Fs+UHY59lBFWu48PFk/rHRnH09Ahlam+p0bMLVVOmXboN/hIdMyoJInzI75qr78F8Yrd5hirW6mbtov7wcRBWxyykQ1gAsWvG/cKvvQQgttbfXat//o5bgTniYfu/tkF/AnCZDARghwA7IRrDRKAk7gt37rt5Yf+ZEfIQ4S2DqBpz39kuVNv3qaFYflBN66paa3Kmw8WS76ohAnzUdL1ZibD6ny6vd+wKAXi1EkC4Es9vJGhGKvtj8tLhtDUk12fZsv8WRxK+NuR+0Xxz4t/HX6q+Ko4xnjLPzST3EXYbo/tY+4GzsHFIcYV/u+DI39jBN+OrsYRzvE0+n7uDgrYTf+sOnQtskn1nM3+x7HzH7kp3nacOG3T74hXT8Va+pPA40Z03HjUvlL7Tb+LyynLt9z7r/kx+4KH14ksEkC3IBski5tk4AQ+P7v//7l93//98mCBLZO4A8+cPnywAu+YnHURey6wHKvoDdVkYdiD3P1r6vsygnSQ00otzbdNdqfoW/xDHowULWqmIZV3l7pp1eLgVrczLQBsRf28xWDRql0duM3+OkE3pXiN4rmnifEFk5xO9yl2bypVQq3wU8m4Po6fd1l6qKwSm/1e0Baq8P8Lu5hvJ2+3CSbkP22CZGnAJudyfPQmR0CH8bFzzd2jlvuccpzlvP5sbsddXZJ4NYnwA3Irc+UFkmgIfBXf/VXy8Me9rBGxg4JbIPAAx943vIH/+WRWetmDSrVWCnmEFl7MpzjOGGX9oDfA9JUl7Av4VT+8R4Q8+ef6QqFeVsVn+XkW/Nx9TIc/iQ9Lz69n4pRzCJPtPVmZ7RfXmlRf/P3gCDs4q/YqV9HKOMBpDrpRz4eua9Q5BN5ZrxIHPkIgPqVod3ydf7uocRZno9i/ij5c6UxfsSBNvlpPHgPiERU3uOhCYg/5DGsDwTgs3+5UT4VC/bRal4Wb5evj1f8TC/ysXjg/qjly0ffb/nec/i+PV99/iSBzRLgBmSzfGmdBIzA5ZdfvrztbW8jDRLYOoG3/crzlqf8qHysqRZ9cqGkja4Lq5/15qCIpVqMK/8MC4LOYNeFVrb1JiiFWo0iQBOijypV26Jd3w3+OkHXjamwL2ZFAUWrD2JG7aVyj2Ftu8tEGMeY9SMPkfmwbhLiSiDex/Qch16v3ihU+YgeNnV6h80NHObmpLOb3SqAxkUqaA5l2+J7xtgs5DpqPH5V5qaCYRwTMV8UdpZ9y76d9lOxihosxBqhq+3kwvD1+++wnH/3K5YzTzh/okURCZDArU2AG5BbmyjtkcCEwNe+9rXlbne72/Ktb31rMkoRCRxcAp/+0rOlFpXSU6qvPNGWELxGi5NknCh3bU6Q4jI3H2II7wFB6yfSo30rjaPqK8W+lLC9n7p4bQKti2hPoJx8W4nd5DWamZ+Ue7xjHIgrLAulmk/JL/0ER+SZ8xN0PR+le7SRZ3nloY+nfU5245ebC1FEHGiHfDUvbCWSt6Xb8MT8OvLV8fbrU/KEnTaOwtP4WbplvWs/++RjeXfk43nTTi5AxzeeK/VjDzjM5Tq5/jePf+zyuDOe2wJmjwRIYGMEuAHZGFoaJoGWwJve9KblqquuaoXskcAWCFzxsqctL//ZO1lNrbXmuiuH9QZFdFXs6d/+83tARoKGS8QtPwhQXnvRbwuB6himwsBe1sesDQ7V0Bo/9SYjwoI2QrC2imM6Hsqr3wNSB6b5dlc9LENdtyjXAxKI/vnfvv3yfhADhMi09SvV8wYj3bh0v7Bz5+VRZ75KPnb3tFaJPRIggY0R4AZkY2hpmARGAhdccMHykY98ZByghAQOMoEPf+KK5aSTr889RTlJRiDrTpKlqpPNyAG/B8Sr1KgyYV+6Zi76cRJvxTOKZJSl6NetFdkeczkht/DMbqnBYR9FrvcrAFbMgkO2VTyjfbyy4P7m7wFBnsVfsVO/jlDGA0gVD/JBNY18Idd2xfyIv33Pha9fE0fML39MhXVBizzavmZQv3KCONA2fPEeEFm/dlzykb2DxWP2tIt8ZMzShv/S6p9h6Z9jIY/yPR/BNf04pzLufX2Mbtx/zHL8CZcu38mP3fWHij9J4CAR4AbkIIGmGxJQAr/7u7+7/MAP/ABhkMDWCXzP9z5q+bX33BelvbWzoLzWj2IwFcqJc/4ZFsZQI2srV9d1Yf0zFNRPuWAfknKyjeJ8VcCDv07QdcNB8dfmC3nxP8wfBIjZWx3OKzvFbhbvUPIAHJzIzLyot3yg7PJ8YaqI887Dk/XDSnT2w8MqnBi2NsNP636DbZT2dBOWmw7dVcCvDso15itCqNl409UpzdWuj35vh/4plu5scXnG2UN3RfB/v/8ey/ed+2r52N3bYwpbEiCBg0CAG5CDAJkuSKAmcOmlly7ve9/7ahHvSWArBK79nRcvFz76H0tNb0VaOWHGyXLdanE5e+Wjfu8HDGatK3ZRY1pbF4U4ee/aZkZjSCx0/XJyPp58147r4tVP+ou+5lXniRN6tBrPOC7SCCf9yEpmepp32E3F3o/alX/lxH/mR8Ztnj8mbfqtfvrp7CIOtKmHeDp9Hxd/A273FxFb5CMXSzzXabf1afOJacnR/Wk8Uz+id+OOfKiCXU5+qifzsTDmT/T/UT5297RTni0fu/vomM+GBEjgYBHgBuRgkaYfEggCH/vYx5YHPOAB5EECWydwxhn3Wv7sry9ZG0ddTFs1iiouW5+eZ9A5QeRS85laaVy5/hn6KAq1Wy4YqFpVTMMqb6+c36vFQC1uZtqA2Av7+YpBo1Q6Fi/UizjvBj+dwLtSVCdHKISJ6Fo4aXW8wawGS6oVboOfTMCV1c66y9RFYZXe6veAtFaH+ZmA6w3j7XRbHmSF50C/nFC/pND7xU7RE1lnWLtfPvqBy/ed83KfwJ8kQAIHlQA3IAcVN52RgBN4+ctfvrzxjW8kDhLYOoFfeuOzl2c8FyfsdZW24sTZTpJFT9rZKyHtyTnsmrrX9pkx7HvNj5P5fGVCT7z9M12hMG+rzUg5+a78oQpVe1JFZ1futO/xelvmI27lUWaUcUyDnvfn7wFB2MVfsaPxiFz+1a+AeJUd8VrcxZ/HoxAxPtpv5u/JPvJAPL5IJU71P/rbxveAlDg8Huehb0iXj+aVP8fqebq+xq+csM7Lcv3+Oy0PvPtL5GN3H+jJ8icJkMBBJcANyEHFTWck4AR2dnbsY3mvv/56IiGBrRP4uy+/SDYTX5/G4TUbij2oaFHu1y19D0i9B4BNFJVj36rIqCbLaH1XbxlM3gm6bkzFJqMu5mEVM9D3VqV2YTgFGBBbeotxiK0feeSw8M1xubNq2QWYnuPQi3Y3fj5f7YelnAD77aajM1/il+krY4iyX+fu/h6QbnUjLBjvumM4ooBNSBn09btJ/hQr85RBi3dicEfi/ebxFy+PP/1ZxQTvSIAEDioBbkAOKm46I4FC4Fd/9VeXF73oRUXAOxLYEoEf/2dPXl77hlOiBvTNBoq8vo2jZImU3wOStXxX5GZXbsAvueUrCcFZOPavgJRXHqpXJmxe+4C4//l66frUdhEHWo2n8dPpe7y2zHhBJVqfh22Lto2dzm766ezP41BesnFQbuJaOdpdgF7rR2bo94LoqyAzvTqfz9104vJdZ13Nj901vvxBAtshwA3IdrjTKwkYgQsvvHD50Ic+RBoksHUCf/Z/XL6ccfZXhji8CBSx3qA6zPJQNyH8HpABGnBFa+PGDwKU175JKOW2yuMKfa29111pNm9q7TV+oqiPKt+XV6YO7sJuuymoffj96veA1IFpvt1VD8tQ1y3K9YCk5VxKfpip3w2in4qV6nnjpr65/3bLHU74YfnYXX4aYYHLOxI4+AS4ATn4zOmRBJLAH/7hHy6XXLL+TcCpzBsS2CCBRzzyocv/8r9dUHmYn2znJkQ2Iwf8HhCvUqNWhH0vJnEijr/hr0++UVz60XhUn81myMMuJ9+zvVL4E1WvSb1f51PmV688xMm9xlPGYR963p+/B6SeJ54l7mKnfh1hXTzFn9zlGuUewsyumB/xr3+PCfJAPOAJv9oi7na9dMZur7Rg3fQ9PcVOHa/4s2Ut/ku8WDD4b1vn4SsKrv6pWBKVAHJ/noc+r5/bf6/l+8/9ueU4fuxuPke8IYFtEOAGZBvU6ZMEKgLPeMYzlve85z2VhLcksB0Cv/GeFy4Xf+83Gude5EaxmCPl5PmWvgcER9Xqp1ywD0kpulHM2jwMV62Xor7JMHEn6Loxs/hr84W8+B/mD4IqGLnV4byyU+xm8Q4lDyAnmnlRb/lA2eW5FyvivPPwZP1q0DYBKq6RoUGM1octnlU6Zduwl/eA1NripLKvLrsuosi2XR+I6/XxjYe+EqKXcQvcX925/XL6KZfxY3eBjS0JbJEANyBbhE/XJKAE/vZv/3Y5++yzCYMEtk7gxBNPWD76/1xanRzjBLm0eoI/e+WD3wMiyxcVehbRcoMTf+WGzVM5mUcxHm1sPppxmVf6/oiEWpirx81hVt25uZEJiAPtEE/3SoaPi78SduOvjrzEV/zsZh+vTIz2A1PgLK+EtHkiD7QaaJ2vfkO6flN6jgvHLx71oOX7z/kph8ifJEACWyXADchW8dM5CTiBn/u5n1te+9rXEgcJbJ3Aq372nywvetlxGUddTFs12pxRl5Nn/esqu3KC9OLkWeUqnl6hb0W1KLR6MFC1qpiGi3/Yzvm9WgzUYsyx1gbEXtjPVwwapdKxeKFexHk3+OkE3vWieZpP6Fs4aXW8SbN5U+sUbiWfyrBtilxfpesuy1cUVumtfg9Ia3WYH+HA8DDeTvdNUMZR8vPISl/j3bf/BnmPklv8wr47Lw++x4v5sbsdT3ZJYFsEuAHZFnn6JYGOwOmnn7589rOf7aTsksDBJ/Cpz71kOfY4/Yb0cqJdnyTHUfj0lZD25BzzpcQeinWcaHvND/t4D4j17U0VMREG+rbajJR4K39Zk4Y/wek1r/czMLFb5iNu18SMMg770PP+/D0gbX7qr9iR+fKvPrmfx1P8yV08ELAz2sf6mJ892UceiMddlDjV/+jvtvQ9IMqlxOv56JvR9U+xbtx/9PIt+djdi0+/7OD/MtEjCZDAlAA3IFMsFJLAwSfwgQ98wP4PtPas/6ffX/3/yd6Sfm+bfRJQAjfu/Lflsd914c2CUZfsN8vAgU6aOsxdRynu0y4mpOCg3qj35kI4w0Cjdat1bnV3t9CgT5fNQ2wLsdkrCcNBkRzI3Se+8r8vH//qdcsTz/rvl5OPP+1AplKXBEhggwS4AdkgXJomARIgARIgARLYLoHr/r/f4cfubncJ6J0EBgLcgAxIKCABEiABEiABEiABEiABEtgUAW5ANkWWdkmABEiABEiABEiABEiABAYC3IAMSCggARIgARIgARIgARIgARLYFAFuQDZFlnZJgARIgARIgARIgARIgAQGAtyADEgoIAESIAESIAESIAESIAES2BQBbkA2RZZ2SYAESIAESIAESIAESIAEBgLcgAxIKCABEiABEiABEiABEiABEtgUAW5ANkWWdkmABEiABEiABEiABEiABAYC3IAMSCggARIgARIgARIgARIgARLYFAFuQDZFlnZJgARIgARIgARIgARIgAQGAtyADEgoIAESIAESIAESIAESIAES2BQBbkA2RZZ2SYAESIAESIAESIAESIAEBgLcgAxIKCABEiABEiABEiABEiABEtgUAW5ANkWWdkmABEiABEiABEiABEiABAYC3IAMSCggARIgARIgARIgARIgARLYFAFuQDZFlnZJgARIgARIgARIgARIgAQGAtyADEgoIAESIAESIAESIAESIAES2BQBbkA2RZZ2SYAESIAESIAESIAESIAEBgLcgAxIKCABEiABEiABEiABEiABEtgUAW5ANkWWdkmABEiABEiABEiABEiABAYC3IAMSCggARIgARIgARIgARIgARLYFAFuQDZFlnZJgARIgARIgARIgARIgAQGAtyADEgoIAESIAESIAESIAESIAES2BQBbkA2RZZ2SYAESIAESIAESIAESIAEBgLcgAxIKCABEiABEiABEiABEiABEtgUAW5ANkWWdkmABEiABEiABEiABEiABAYC3IAMSCggARIgARIgARIgARIgARLYFAFuQDZFlnZJgARIgARIgARIgARIgAQGAtyADEgoIAESIAESIAESIAESIAES2BQBbkA2RZZ2SYAESIAESIAESIAESIAEBgLcgAxIKCABEiABEiABEiABEiABEtgUAW5ANkWWdkmABEiABEiABEiABEiABAYC3IAMSCggARIgARIgARIgARIgARLYFAFuQDZFlnZJgARIgARIgARIgARIgAQGAtyADEgoIAESIAESIAESIAESIAES2BQBbkA2RZZ2SYAESIAESIAESIAESIAEBgLcgAxIKCABEiABEiABEiABEiABEtgUAW5ANkWWdkmABEiABEiABEiABEiABAYC3IAMSCggARIgARIgARIgARIgARLYFAFuQDZFlnZJgARIgARIgARIgARIgAQGAtyADEgoIAESIAESIAESIAESIAES2BQBbkA2RZZ2SYAESIAESIAESIAESIAEBgLcgAxIKCABEiABEiABEiABEiABEtgUAW5ANkWWdkmABEiABEiABEiABEiABAYC3IAMSCggARIgARIgARIgARIgARLYFAFuQDZFlnZJgARIgARIgARIgARIgAQGAtyADEgoIAESIAESIAESIAESIAES2BQBbkA2RZZ2SYAESIAESIAESIAESIAEBgLcgAxIKCABEiABEiABEiABEiABEtgUAW5ANkWWdkmABEiABEiABEiABEiABAYC3IAMSCggARIgARIgARIgARIgARLYFAFuQDZFlnZJgARIgARIgARIgARIgAQGAtyADEgoIAESIAESIAESIAESIAES2BQBbkA2RZZ2SYAESIAESIAESIAESIAEBgLcgAxIKCABEiABEiABEiABEiABEtgUAW5ANkWWdkmABEiABEiABEiABEiABAYC3IAMSCggARIgARIgARIgARIgARLYFAFuQDZFlnZJgARIgARIgARIgARIgAQGAtyADEgoIAESIAESIAESIAESIAES2BQBbkA2RZZ2SYAESIAESIAESIAESIAEBgLcgAxIKCABEiABEiABEiABEiABEtgUAW5ANkWWdkmABEiABEiABEiABEiABAYC3IAMSCggARIgARIgARIgARIgARLYFAFuQDZFlnZJgARIgARIgARIgARIgAQGAtyADEgoIAESIAESIAESIAESIAES2BQBbkA2RZZ2SYAESIAESIAESIAESIAEBgLcgAxIKCABEiABEiABEiABEiABEtgUAW5ANkWWdkmABEiABEiABEiABEiABAYC3IAMSCggARIgARIgARIgARIgARLYFAFuQDZFlnZJgARIgARIgARIgARIgAQGAtyADEgoIAESIAESIAESIAESIAES2BQBbkA2RZZ2SYAESIAESIAESIAESIAEBgLcgAxIKCABEiABEiABEiABEiABEtgUAW5ANkWWdkmABEiABEiABEiABEiABAYC3IAMSCggARIgARIgARIgARIgARLYFAFuQDZFlnZJgARIgARIgARIgARIgAQGAtyADEgoIAESIAESIAESIAESIAES2BQBbkA2RZZ2SYAESIAESIAESIAESIAEBgLcgAxIKCABEiABEiABEiABEiABEtgUAW5ANkWWdkmABEiABEiABEiABEiABAYC3IAMSCggARIgARIgARIgARIgARLYFAFuQDZFlnZJgARIgARIgARIgARIgAQGAtyADEgoIAESIAESIAESIAESIAES2BQBbkA2RZZ2SYAESIAESIAESIAESIAEBgLcgAxIKCABEiABEiABEiABEiABEtgUAW5ANkWWdkmABEiABEiABEiABEiABAYC3IAMSCggARIgARIgARIgARIgARLYFAFuQDZFlnZJgARIgARIgARIgARIgAQGAtyADEgoIAESIAESIAESIAESIAES2BQBbkA2RZZ2SYAESIAESIAESIAESIAEBgLcgAxIKCABEiABEiABEiABEiABEtgUAW5ANkWWdkmABEiABEiABEiABEiABAYC3IAMSCggARIgARIgARIgARIgARLYFAFuQDZFlnZJgARIgARIgARIgARIgAQGAtyADEgoIAESIAESIAESIAESIAES2BQBbkA2RZZ2SYAESIAESIAESIAESIAEBgLcgAxIKCABEiABEiABEiABEiABEtgUAW5ANkWWdkmABEiABEiABEiABEiABAYC3IAMSCggARIgARIgARIgARIgARLYFAFuQDZFlnZJgARIgARIgARIgARIgAQGAtyADEgoIAESIAESIAESIAESIAES2BQBbkA2RZZ2SYAESIAESIAESIAESIAEBgLcgAxIKCABEiABEiABEiABEiABEtgUAW5ANkWWdkmABEiABEiABEiABEiABAYC3IAMSCggARIgARIgARIgARIgARLYFAFuQDZFlnZJgARIgARIgARIgARIgAQGAtyADEgoIAESIAESIAESIAESIAES2BQBbkA2RZZ2SYAESIAESIAESIAESIAEBgLcgAxIKCABEiABEiABEiABEiABEtgUAW5ANkWWdkmABEiABEiABEiABEiABAYC3IAMSCggARIgARIgARIgARIgARLYFAFuQDZFlnZJgARIgARIgARIgARIgAQGAtyADEgoIAESIAESIAESIAESIAES2BQBbkA2RZZ2SYAESIAESIAESIAESIAEBgLcgAxIKCABEiABEiABEiABEiABEtgUAW5ANkWWdkmABEiABEiABEiABEiABAYC3IAMSCggARIgARIgARIgARIgARLYFAFuQDZFlnZJgARIgARIgARIgARIgAQGAtyADEgoIAESIAESIAESIAESIAES2BQBbkA2RZZ2SYAESIAESIAESIAESIAEBgLcgAxIKCABEiABEiABEiABEiABEtgUAW5ANkWWdkmABEiABEiABEiABEiABAYC3IAMSCggARIgARIgARIgARIgARLYFAFuQDZFlnZJgARIgARIgARIgARIgAQGAtyADEgoIAESIAESIAESIAESIAES2BQBbkA2RZZ2SYAESIAESIAESIAESIAEBgLcgAxIKCABEiABEiABEiABEiABEtgUAW5ANkWWdkmABEiABEiABEiABEiABAYC3IAMSCggARIgARIgARIgARIgARLYFAFuQDZFlnZJgARIgARIgARIgARIgAQGAtyADEgoIAESIAESIAESIAESIAES2BSB/x+7vC2ucvKdBQAAAABJRU5ErkJggg==;" vertex="1" parent="1">
          <mxGeometry x="-87" y="830" width="30" height="30" as="geometry" />
        </mxCell>
        <mxCell id="cPlidqTL_9iM7uaxnswC-90" style="edgeStyle=orthogonalEdgeStyle;rounded=0;orthogonalLoop=1;jettySize=auto;html=1;dashed=1;dashPattern=1 1;" edge="1" parent="1" source="cPlidqTL_9iM7uaxnswC-36" target="cPlidqTL_9iM7uaxnswC-87">
          <mxGeometry relative="1" as="geometry" />
        </mxCell>
        <mxCell id="cPlidqTL_9iM7uaxnswC-99" value="Search" style="edgeLabel;html=1;align=center;verticalAlign=middle;resizable=0;points=[];" vertex="1" connectable="0" parent="cPlidqTL_9iM7uaxnswC-90">
          <mxGeometry x="0.4537" y="3" relative="1" as="geometry">
            <mxPoint as="offset" />
          </mxGeometry>
        </mxCell>
        <mxCell id="cPlidqTL_9iM7uaxnswC-92" value="&lt;div align=&quot;center&quot;&gt;PnP Modern Search&lt;br&gt;Core Components&lt;/div&gt;" style="text;whiteSpace=wrap;html=1;align=center;" vertex="1" parent="1">
          <mxGeometry x="-207" y="822.5" width="120" height="45" as="geometry" />
        </mxCell>
        <mxCell id="cPlidqTL_9iM7uaxnswC-64" value="" style="group" vertex="1" connectable="0" parent="1">
          <mxGeometry x="163" y="980" width="220" height="100" as="geometry" />
        </mxCell>
        <mxCell id="cPlidqTL_9iM7uaxnswC-65" value="App Service" style="image;aspect=fixed;html=1;points=[];align=center;fontSize=12;image=img/lib/azure2/app_services/App_Services.svg;" vertex="1" parent="cPlidqTL_9iM7uaxnswC-64">
          <mxGeometry x="90" width="40" height="40" as="geometry" />
        </mxCell>
        <mxCell id="cPlidqTL_9iM7uaxnswC-66" value="https://app1internal.azurewebsites.net" style="text;html=1;align=center;verticalAlign=middle;whiteSpace=wrap;rounded=0;" vertex="1" parent="cPlidqTL_9iM7uaxnswC-64">
          <mxGeometry y="70" width="220" height="30" as="geometry" />
        </mxCell>
        <mxCell id="cPlidqTL_9iM7uaxnswC-110" value="" style="group" vertex="1" connectable="0" parent="1">
          <mxGeometry x="90" y="240" width="220" height="100" as="geometry" />
        </mxCell>
        <mxCell id="cPlidqTL_9iM7uaxnswC-111" value="App Service" style="image;aspect=fixed;html=1;points=[];align=center;fontSize=12;image=img/lib/azure2/app_services/App_Services.svg;" vertex="1" parent="cPlidqTL_9iM7uaxnswC-110">
          <mxGeometry x="90" width="40" height="40" as="geometry" />
        </mxCell>
        <mxCell id="cPlidqTL_9iM7uaxnswC-112" value="https://&lt;b&gt;&lt;span style=&quot;color: rgb(255, 0, 0);&quot;&gt;app1&lt;/span&gt;&lt;/b&gt;.mycompany.com" style="text;html=1;align=center;verticalAlign=middle;whiteSpace=wrap;rounded=0;" vertex="1" parent="cPlidqTL_9iM7uaxnswC-110">
          <mxGeometry y="70" width="220" height="30" as="geometry" />
        </mxCell>
        <mxCell id="cPlidqTL_9iM7uaxnswC-116" value="" style="group" vertex="1" connectable="0" parent="1">
          <mxGeometry x="315" y="240" width="220" height="100" as="geometry" />
        </mxCell>
        <mxCell id="cPlidqTL_9iM7uaxnswC-117" value="App Service" style="image;aspect=fixed;html=1;points=[];align=center;fontSize=12;image=img/lib/azure2/app_services/App_Services.svg;" vertex="1" parent="cPlidqTL_9iM7uaxnswC-116">
          <mxGeometry x="90" width="40" height="40" as="geometry" />
        </mxCell>
        <mxCell id="cPlidqTL_9iM7uaxnswC-118" value="https://&lt;b&gt;&lt;span style=&quot;color: rgb(255, 0, 0);&quot;&gt;app2&lt;/span&gt;&lt;/b&gt;.mycompany.com" style="text;html=1;align=center;verticalAlign=middle;whiteSpace=wrap;rounded=0;" vertex="1" parent="cPlidqTL_9iM7uaxnswC-116">
          <mxGeometry y="70" width="220" height="30" as="geometry" />
        </mxCell>
        <mxCell id="cPlidqTL_9iM7uaxnswC-119" value="" style="group" vertex="1" connectable="0" parent="1">
          <mxGeometry x="540" y="240" width="220" height="100" as="geometry" />
        </mxCell>
        <mxCell id="cPlidqTL_9iM7uaxnswC-120" value="App Service" style="image;aspect=fixed;html=1;points=[];align=center;fontSize=12;image=img/lib/azure2/app_services/App_Services.svg;" vertex="1" parent="cPlidqTL_9iM7uaxnswC-119">
          <mxGeometry x="90" width="40" height="40" as="geometry" />
        </mxCell>
        <mxCell id="cPlidqTL_9iM7uaxnswC-121" value="https://&lt;b&gt;&lt;span style=&quot;color: rgb(255, 0, 0);&quot;&gt;app3&lt;/span&gt;&lt;/b&gt;.mycompany.com" style="text;html=1;align=center;verticalAlign=middle;whiteSpace=wrap;rounded=0;" vertex="1" parent="cPlidqTL_9iM7uaxnswC-119">
          <mxGeometry y="70" width="220" height="30" as="geometry" />
        </mxCell>
        <mxCell id="cPlidqTL_9iM7uaxnswC-141" value="" style="group" vertex="1" connectable="0" parent="1">
          <mxGeometry x="70" y="870" width="78" height="30" as="geometry" />
        </mxCell>
        <mxCell id="cPlidqTL_9iM7uaxnswC-130" value="" style="image;aspect=fixed;html=1;points=[];align=center;fontSize=12;image=img/lib/azure2/identity/Managed_Identities.svg;" vertex="1" parent="cPlidqTL_9iM7uaxnswC-141">
          <mxGeometry y="5" width="20.61" height="20" as="geometry" />
        </mxCell>
        <mxCell id="cPlidqTL_9iM7uaxnswC-135" value="&lt;font style=&quot;font-size: 10px;&quot;&gt;(Secured)&lt;/font&gt;" style="text;html=1;align=center;verticalAlign=middle;whiteSpace=wrap;rounded=0;" vertex="1" parent="cPlidqTL_9iM7uaxnswC-141">
          <mxGeometry x="18" width="60" height="30" as="geometry" />
        </mxCell>
        <mxCell id="cPlidqTL_9iM7uaxnswC-142" value="" style="group" vertex="1" connectable="0" parent="1">
          <mxGeometry x="270" y="870" width="78" height="30" as="geometry" />
        </mxCell>
        <mxCell id="cPlidqTL_9iM7uaxnswC-143" value="" style="image;aspect=fixed;html=1;points=[];align=center;fontSize=12;image=img/lib/azure2/identity/Managed_Identities.svg;" vertex="1" parent="cPlidqTL_9iM7uaxnswC-142">
          <mxGeometry y="5" width="20.61" height="20" as="geometry" />
        </mxCell>
        <mxCell id="cPlidqTL_9iM7uaxnswC-144" value="&lt;font style=&quot;font-size: 10px;&quot;&gt;(Secured)&lt;/font&gt;" style="text;html=1;align=center;verticalAlign=middle;whiteSpace=wrap;rounded=0;" vertex="1" parent="cPlidqTL_9iM7uaxnswC-142">
          <mxGeometry x="18" width="60" height="30" as="geometry" />
        </mxCell>
        <mxCell id="cPlidqTL_9iM7uaxnswC-145" value="&lt;font style=&quot;font-size: 10px;&quot;&gt;(Non secured)&lt;/font&gt;" style="text;html=1;align=center;verticalAlign=middle;whiteSpace=wrap;rounded=0;" vertex="1" parent="1">
          <mxGeometry x="490" y="870" width="90" height="30" as="geometry" />
        </mxCell>
        <mxCell id="cPlidqTL_9iM7uaxnswC-146" value="&lt;font style=&quot;font-size: 10px;&quot;&gt;(Non secured)&lt;/font&gt;" style="text;html=1;align=center;verticalAlign=middle;whiteSpace=wrap;rounded=0;" vertex="1" parent="1">
          <mxGeometry x="690" y="867.5" width="90" height="30" as="geometry" />
        </mxCell>
        <mxCell id="cPlidqTL_9iM7uaxnswC-156" value="" style="group" vertex="1" connectable="0" parent="1">
          <mxGeometry x="202" y="180" width="78" height="30" as="geometry" />
        </mxCell>
        <mxCell id="cPlidqTL_9iM7uaxnswC-157" value="" style="image;aspect=fixed;html=1;points=[];align=center;fontSize=12;image=img/lib/azure2/identity/Managed_Identities.svg;" vertex="1" parent="cPlidqTL_9iM7uaxnswC-156">
          <mxGeometry y="5" width="20.61" height="20" as="geometry" />
        </mxCell>
        <mxCell id="cPlidqTL_9iM7uaxnswC-158" value="&lt;font style=&quot;font-size: 10px;&quot;&gt;(Secured)&lt;/font&gt;" style="text;html=1;align=center;verticalAlign=middle;whiteSpace=wrap;rounded=0;" vertex="1" parent="cPlidqTL_9iM7uaxnswC-156">
          <mxGeometry x="18" width="60" height="30" as="geometry" />
        </mxCell>
      </root>
    </mxGraphModel>
  </diagram>
</mxfile>
